<svg width="56" height="56" viewBox="0 0 56 56" fill="none" xmlns="http://www.w3.org/2000/svg">
<rect width="56" height="56" rx="7" fill="#0D1117"/>
<path d="M41.0679 44H9.24328C6.88826 44 5 41.975 5 39.5V12.5C5 10.0025 6.88826 8 9.24328 8H21.9731L26.2164 12.5H41.0679C43.3953 12.5 45.3112 14.5318 45.3112 17H9.24328V39.5L13.7836 21.5H50L45.1627 40.625C44.6747 42.5825 43.0198 44 41.0679 44Z" fill="#42A5F5"/>
<path d="M34.9577 30L34.3038 33.34H47.9759L47.5332 35.5H33.8712L33.2072 38.83H46.8793L46.1147 42.64L40.6016 44.45L35.8229 42.64L36.1549 41H32.7948L32 45L39.8974 48L49.002 45L50.2093 38.97L50.4507 37.76L52 30H34.9577Z" fill="#BBDEFB"/>
</svg>
