<svg width="56" height="56" viewBox="0 0 56 56" fill="none" xmlns="http://www.w3.org/2000/svg">
<rect width="56" height="56" rx="7" fill="#0D1117"/>
<path d="M42.0679 46H10.2433C7.88826 46 6 43.975 6 41.5V14.5C6 12.0025 7.88826 10 10.2433 10H22.9731L27.2164 14.5H42.0679C44.3953 14.5 46.3112 16.5317 46.3112 19H10.2433V41.5L14.7836 23.5H51L46.1627 42.625C45.6747 44.5825 44.0198 46 42.0679 46Z" fill="#42A5F5"/>
<path d="M34.9577 30L34.3038 33.34H47.9759L47.5332 35.5H33.8712L33.2072 38.83H46.8793L46.1147 42.64L40.6016 44.45L35.8229 42.64L36.1549 41H32.7948L32 45L39.8974 48L49.002 45L50.2093 38.97L50.4507 37.76L52 30H34.9577Z" fill="#BBDEFB"/>
</svg>
