<svg width="56" height="56" viewBox="0 0 56 56" fill="none" xmlns="http://www.w3.org/2000/svg">
<rect width="56" height="56" rx="7" fill="#0D1117"/>
<path d="M42.0679 46H10.2433C7.88826 46 6 43.975 6 41.5V14.5C6 12.0025 7.88826 10 10.2433 10H22.9731L27.2164 14.5H42.0679C44.3953 14.5 46.3112 16.5317 46.3112 19H10.2433V41.5L14.7836 23.5H51L46.1627 42.625C45.6747 44.5825 44.0198 46 42.0679 46Z" fill="#FF7043"/>
<path fill-rule="evenodd" clip-rule="evenodd" d="M29.2345 45.5012L26.9554 23H52L49.7182 45.4976L39.4628 48L29.2345 45.5012V45.5012ZM38.4632 39.6798L30.3477 35.3857V33.8298L38.4632 29.5345V31.9429L33.2855 34.6071L38.4632 37.2726V39.6798ZM40.4921 39.6774V37.2714L45.7064 34.6071L40.4921 31.944V29.5369L48.6077 33.8119V35.4024L40.4921 39.6774V39.6774Z" fill="#FFCCBC"/>
</svg>
