<svg width="74" height="29" viewBox="0 0 74 29" fill="none" xmlns="http://www.w3.org/2000/svg">
<path d="M0 14.1918C0 6.35388 6.35388 0 14.1918 0H59.8082C67.6461 0 74 6.35388 74 14.1918V14.1918C74 22.0297 67.6461 28.3836 59.8082 28.3836H14.1918C6.35388 28.3836 0 22.0297 0 14.1918V14.1918Z" fill="#FF5B5B"/>
<path d="M44.7798 6.22018C49.0734 10.5138 49.0734 17.4862 44.7798 21.7798C42.6147 23.945 39.1284 23.945 37 21.7798C34.8715 19.6147 34.8349 16.1651 37 14C39.1651 11.8349 39.1651 8.34863 37 6.22018C34.8349 4.09174 31.3486 4.05505 29.2202 6.22018C33.5137 1.9266 40.4862 1.9266 44.7798 6.22018Z" fill="#F5F5F5"/>
<path d="M29.2202 21.7798C24.9266 17.4863 24.9266 10.5138 29.2202 6.2202C31.3853 4.05506 34.8716 4.05506 37 6.2202C39.1651 8.38534 39.1651 11.8716 37 14C34.8349 16.1285 34.8349 19.6514 37 21.7798C39.1651 23.9083 42.6514 23.945 44.7798 21.7798C40.4862 26.0734 33.5138 26.0734 29.2202 21.7798" fill="#3E4347"/>
<path d="M38.9572 13.5107H45.4332L44.8442 20.1049L42.1881 20.8502L39.5468 20.1046L38.9572 13.5107ZM44.2274 14.8603L40.163 14.8593L40.2286 15.6612L43.351 15.6618L43.2724 16.4924H41.2247L41.2987 17.2792H43.2051L43.0923 18.3566L42.1949 18.6025L41.2833 18.3548L41.2253 17.7095H40.4204L40.5099 18.8884L42.1952 19.4092L43.8521 18.9413L44.2274 14.8606V14.8603Z" fill="#3E4347"/>
<path d="M29.1712 8.12842H35.5321L34.9536 14.7226L32.3447 15.4679L29.7507 14.7223L29.1712 8.12842ZM31.3009 11.1101L31.2307 10.2789L34.2775 10.2798L34.3472 9.47796L30.3562 9.47704L30.5676 11.9266H33.3319L33.2331 12.9743L32.3517 13.2202L31.4566 12.9725L31.3997 12.3272H30.6094L30.7094 13.6027L32.3517 14.0462L33.981 13.6049L34.2063 11.1104H31.3009V11.1101Z" fill="white"/>
</svg>
