<svg width="74" height="29" viewBox="0 0 74 29" fill="none" xmlns="http://www.w3.org/2000/svg">
<path d="M0 14.1918C0 6.35388 6.35388 0 14.1918 0H59.8082C67.6461 0 74 6.35388 74 14.1918V14.1918C74 22.0297 67.6461 28.3836 59.8082 28.3836H14.1918C6.35388 28.3836 0 22.0297 0 14.1918V14.1918Z" fill="#FF5B5B"/>
<path d="M46.3407 5.6593C51.2198 10.5384 51.2198 18.4616 46.3407 23.3407C43.8803 25.8011 39.9187 25.8011 37.5 23.3407C35.0813 20.8803 35.0396 16.9604 37.5 14.5C39.9604 12.0396 39.9604 8.07798 37.5 5.6593C35.0396 3.24062 31.078 3.19892 28.6593 5.6593C33.5383 0.780233 41.4616 0.780233 46.3407 5.6593Z" fill="#F5F5F5"/>
<path d="M28.6593 23.3407C23.7802 18.4617 23.7802 10.5384 28.6593 5.65931C31.1197 3.19893 35.0813 3.19893 37.5 5.65931C39.9604 8.1197 39.9604 12.0813 37.5 14.5C35.0396 16.9187 35.0396 20.922 37.5 23.3407C39.9604 25.7594 43.922 25.8011 46.3407 23.3407C41.4616 28.2198 33.5384 28.2198 28.6593 23.3407" fill="#3E4347"/>
<path d="M39.7241 13.944H47.0832L46.4138 21.4374L43.3956 22.2843L40.3941 21.4371L39.7241 13.944ZM45.713 15.4776L41.0943 15.4765L41.1689 16.3877L44.717 16.3884L44.6277 17.3322H42.3008L42.3849 18.2264H44.5513L44.423 19.4507L43.4033 19.7301L42.3674 19.4486L42.3015 18.7153H41.3869L41.4885 20.055L43.4036 20.6468L45.2865 20.1151L45.713 15.4779V15.4776Z" fill="#3E4347"/>
<path d="M28.6037 7.82773H35.8319L35.1745 15.3211L32.2099 16.168L29.2621 15.3208L28.6037 7.82773ZM31.0238 11.216L30.9439 10.2714L34.4062 10.2725L34.4854 9.3613L29.9502 9.36026L30.1905 12.1438H33.3316L33.2194 13.3344L32.2178 13.6138L31.2007 13.3323L31.136 12.5991H30.238L30.3515 14.0485L32.2178 14.5524L34.0693 14.051L34.3254 11.2163H31.0238V11.216Z" fill="white"/>
</svg>
