<svg width="74" height="37" viewBox="0 0 74 37" fill="none" xmlns="http://www.w3.org/2000/svg">
<path d="M0 16.1918C0 8.35388 6.35388 2 14.1918 2H59.8082C67.6461 2 74 8.35388 74 16.1918V16.1918C74 24.0297 67.6461 30.3836 59.8082 30.3836H14.1918C6.35388 30.3836 0 24.0297 0 16.1918V16.1918Z" fill="#FF5B5B"/>
<g filter="url(#filter0_d)">
<g filter="url(#filter1_d)">
<path d="M45.9618 7.22997C50.9077 12.1759 50.9077 20.2077 45.9618 25.1536C43.4677 27.6477 39.4518 27.6477 37 25.1536C34.5482 22.6595 34.5059 18.6859 37 16.1918C39.4941 13.6977 39.4941 9.68178 37 7.22997C34.5059 4.77815 30.49 4.73588 28.0382 7.22997C32.9841 2.28406 41.0159 2.28406 45.9618 7.22997Z" fill="#F5F5F5"/>
<path d="M28.0382 25.1536C23.0923 20.2077 23.0923 12.1759 28.0382 7.22997C30.5323 4.73588 34.5482 4.73588 37 7.22997C39.4941 9.72406 39.4941 13.74 37 16.1918C34.5059 18.6436 34.5059 22.7018 37 25.1536C39.4941 27.6054 43.51 27.6477 45.9618 25.1536C41.0159 30.0995 32.9841 30.0995 28.0382 25.1536" fill="#3E4347"/>
<path d="M39.2545 15.6281H46.7144L46.0359 23.2242L42.9763 24.0827L39.9337 23.2238L39.2545 15.6281ZM45.3255 17.1827L40.6435 17.1817L40.7192 18.1053L44.3159 18.106L44.2253 19.0628H41.8666L41.9518 19.9692H44.1479L44.0178 21.2103L42.9841 21.4935L41.9341 21.2081L41.8673 20.4648H40.9401L41.0431 21.8229L42.9845 22.4228L44.8931 21.8838L45.3255 17.1831V17.1827Z" fill="#3E4347"/>
<path d="M27.9818 9.42813H35.3091L34.6427 17.0242L31.6374 17.8827L28.6493 17.0238L27.9818 9.42813ZM30.4351 12.8628L30.3541 11.9053L33.8639 11.9064L33.9441 10.9827L29.3468 10.9817L29.5903 13.8034H32.7746L32.6608 15.0102L31.6455 15.2935L30.6144 15.0081L30.5488 14.2648H29.6385L29.7536 15.7342L31.6455 16.245L33.5223 15.7366L33.7819 12.8631H30.4351V12.8628Z" fill="white"/>
</g>
</g>
<defs>
<filter id="filter0_d" x="20.3288" y="0.520538" width="33.3425" height="33.3425" filterUnits="userSpaceOnUse" color-interpolation-filters="sRGB">
<feFlood flood-opacity="0" result="BackgroundImageFix"/>
<feColorMatrix in="SourceAlpha" type="matrix" values="0 0 0 0 0 0 0 0 0 0 0 0 0 0 0 0 0 0 127 0"/>
<feOffset dy="1"/>
<feGaussianBlur stdDeviation="2"/>
<feColorMatrix type="matrix" values="0 0 0 0 0 0 0 0 0 0 0 0 0 0 0 0 0 0 0.25 0"/>
<feBlend mode="normal" in2="BackgroundImageFix" result="effect1_dropShadow"/>
<feBlend mode="normal" in="SourceGraphic" in2="effect1_dropShadow" result="shape"/>
</filter>
<filter id="filter1_d" x="20.3288" y="3.52054" width="33.3425" height="33.3425" filterUnits="userSpaceOnUse" color-interpolation-filters="sRGB">
<feFlood flood-opacity="0" result="BackgroundImageFix"/>
<feColorMatrix in="SourceAlpha" type="matrix" values="0 0 0 0 0 0 0 0 0 0 0 0 0 0 0 0 0 0 127 0"/>
<feOffset dy="4"/>
<feGaussianBlur stdDeviation="2"/>
<feColorMatrix type="matrix" values="0 0 0 0 0 0 0 0 0 0 0 0 0 0 0 0 0 0 0.25 0"/>
<feBlend mode="normal" in2="BackgroundImageFix" result="effect1_dropShadow"/>
<feBlend mode="normal" in="SourceGraphic" in2="effect1_dropShadow" result="shape"/>
</filter>
</defs>
</svg>
