<svg width="56" height="56" viewBox="0 0 56 56" fill="none" xmlns="http://www.w3.org/2000/svg">
<rect width="56" height="56" rx="7" fill="#0D1117"/>
<path d="M41.1323 44H9.25086C6.89163 44 5 41.975 5 39.5V12.5C5 10.0025 6.89163 8 9.25086 8H22.0034L26.2543 12.5H41.1323C43.4639 12.5 45.3831 14.5318 45.3831 17H9.25086V39.5L13.7993 21.5H50.0803L45.2343 40.625C44.7455 42.5825 43.0877 44 41.1323 44Z" fill="#FF7043"/>
<path fill-rule="evenodd" clip-rule="evenodd" d="M29.2345 45.5012L26.9554 23H52L49.7182 45.4976L39.4628 48L29.2345 45.5012ZM38.4632 39.6798L30.3477 35.3857V33.8298L38.4632 29.5345V31.9429L33.2855 34.6071L38.4632 37.2726V39.6798ZM40.4921 39.6774V37.2714L45.7064 34.6071L40.4921 31.944V29.5369L48.6077 33.8119V35.4024L40.4921 39.6774Z" fill="#FFCCBC"/>
</svg>
