<svg width="74" height="34" viewBox="0 0 74 34" fill="none" xmlns="http://www.w3.org/2000/svg">
<path d="M0 15.1918C0 7.35388 6.35388 1 14.1918 1H59.8082C67.6461 1 74 7.35388 74 15.1918V15.1918C74 23.0297 67.6461 29.3836 59.8082 29.3836H14.1918C6.35388 29.3836 0 23.0297 0 15.1918V15.1918Z" fill="#FF5B5B"/>
<g filter="url(#filter0_d)">
<g filter="url(#filter1_d)">
<path d="M44.7798 7.22018C49.0734 11.5138 49.0734 18.4862 44.7798 22.7798C42.6147 24.945 39.1284 24.945 37 22.7798C34.8716 20.6147 34.8349 17.1651 37 15C39.1651 12.8349 39.1651 9.34863 37 7.22018C34.8349 5.09174 31.3486 5.05505 29.2202 7.22018C33.5138 2.9266 40.4862 2.9266 44.7798 7.22018Z" fill="#F5F5F5"/>
<path d="M29.2202 22.7798C24.9266 18.4863 24.9266 11.5138 29.2202 7.2202C31.3853 5.05506 34.8716 5.05506 37 7.2202C39.1651 9.38534 39.1651 12.8716 37 15C34.8349 17.1285 34.8349 20.6514 37 22.7798C39.1651 24.9083 42.6514 24.945 44.7798 22.7798C40.4862 27.0734 33.5138 27.0734 29.2202 22.7798" fill="#3E4347"/>
<path d="M38.9572 14.5107H45.4332L44.8442 21.1049L42.1881 21.8502L39.5468 21.1046L38.9572 14.5107ZM44.2274 15.8603L40.163 15.8593L40.2286 16.6612L43.351 16.6618L43.2724 17.4924H41.2247L41.2987 18.2792H43.2051L43.0923 19.3566L42.1949 19.6025L41.2833 19.3548L41.2253 18.7095H40.4204L40.5099 19.8884L42.1952 20.4092L43.8521 19.9413L44.2274 15.8606V15.8603Z" fill="#3E4347"/>
<path d="M29.1713 9.12842H35.5321L34.9536 15.7226L32.3447 16.4679L29.7507 15.7223L29.1713 9.12842ZM31.3009 12.1101L31.2307 11.2789L34.2775 11.2798L34.3472 10.478L30.3562 10.477L30.5676 12.9266H33.3319L33.2331 13.9743L32.3517 14.2202L31.4566 13.9725L31.3997 13.3272H30.6094L30.7094 14.6027L32.3517 15.0462L33.981 14.6049L34.2063 12.1104H31.3009V12.1101Z" fill="white"/>
</g>
</g>
<defs>
<filter id="filter0_d" x="22" y="0.5" width="30" height="30" filterUnits="userSpaceOnUse" color-interpolation-filters="sRGB">
<feFlood flood-opacity="0" result="BackgroundImageFix"/>
<feColorMatrix in="SourceAlpha" type="matrix" values="0 0 0 0 0 0 0 0 0 0 0 0 0 0 0 0 0 0 127 0"/>
<feOffset dy="0.5"/>
<feGaussianBlur stdDeviation="2"/>
<feColorMatrix type="matrix" values="0 0 0 0 0 0 0 0 0 0 0 0 0 0 0 0 0 0 0.25 0"/>
<feBlend mode="normal" in2="BackgroundImageFix" result="effect1_dropShadow"/>
<feBlend mode="normal" in="SourceGraphic" in2="effect1_dropShadow" result="shape"/>
</filter>
<filter id="filter1_d" x="22" y="4" width="30" height="30" filterUnits="userSpaceOnUse" color-interpolation-filters="sRGB">
<feFlood flood-opacity="0" result="BackgroundImageFix"/>
<feColorMatrix in="SourceAlpha" type="matrix" values="0 0 0 0 0 0 0 0 0 0 0 0 0 0 0 0 0 0 127 0"/>
<feOffset dy="4"/>
<feGaussianBlur stdDeviation="2"/>
<feColorMatrix type="matrix" values="0 0 0 0 0 0 0 0 0 0 0 0 0 0 0 0 0 0 0.25 0"/>
<feBlend mode="normal" in2="BackgroundImageFix" result="effect1_dropShadow"/>
<feBlend mode="normal" in="SourceGraphic" in2="effect1_dropShadow" result="shape"/>
</filter>
</defs>
</svg>
