<svg width="50" height="50" viewBox="0 0 50 50" fill="none" xmlns="http://www.w3.org/2000/svg">
<path d="M43.5547 49.0234H6.44531C3.425 49.0234 0.976562 46.575 0.976562 43.5547V6.44531C0.976562 3.425 3.425 0.976562 6.44531 0.976562H43.5547C46.575 0.976562 49.0234 3.425 49.0234 6.44531V43.5547C49.0234 46.575 46.575 49.0234 43.5547 49.0234Z" fill="#6E87F5"/>
<path d="M39.5416 21.1678C38.3472 19.7969 36.6931 19.1115 34.5797 19.1115C33.0162 19.1115 31.6908 19.4219 30.6027 20.0425C29.5146 20.6634 28.4389 21.6967 27.376 23.1424V19.6026H20.2661V41.3328H27.3236V29.0099C27.3236 26.8516 28.9348 25.071 30.9899 24.9582L31.2389 24.9446C33.1096 24.8419 34.68 26.405 34.68 28.3697V41.3327H41.3331V27.5211C41.333 24.6565 40.7358 22.5388 39.5416 21.1678Z" fill="white"/>
<path d="M16.1987 19.6025H9.08887V41.333H16.1987V19.6025Z" fill="white"/>
<path d="M12.6445 16.6218C14.8411 16.6218 16.6218 14.8411 16.6218 12.6445C16.6218 10.448 14.8411 8.6673 12.6445 8.6673C10.448 8.6673 8.6673 10.448 8.6673 12.6445C8.6673 14.8411 10.448 16.6218 12.6445 16.6218Z" fill="white"/>
<path d="M43.5547 50H6.44531C2.89131 50 0 47.1087 0 43.5547V6.44531C0 2.89131 2.89131 0 6.44531 0H43.5547C47.1087 0 50 2.89131 50 6.44531V43.5547C50 47.1087 47.1087 50 43.5547 50ZM6.44531 1.95312C3.96836 1.95312 1.95312 3.96836 1.95312 6.44531V43.5547C1.95312 46.0316 3.96836 48.0469 6.44531 48.0469H43.5547C46.0316 48.0469 48.0469 46.0316 48.0469 43.5547V6.44531C48.0469 3.96836 46.0316 1.95312 43.5547 1.95312H6.44531Z" fill="black"/>
<path d="M41.333 42.3093H34.6799C34.1406 42.3093 33.7033 41.8721 33.7033 41.3327V28.3696C33.7033 27.6678 33.4211 26.9981 32.929 26.5324C32.4767 26.1042 31.8946 25.8873 31.2923 25.9197L31.0434 25.9334C29.505 26.0178 28.3 27.3691 28.3 29.0099V41.3328C28.3 41.8722 27.8627 42.3094 27.3234 42.3094H20.266C19.7268 42.3094 19.2895 41.8722 19.2895 41.3328V19.6024C19.2895 19.0631 19.7268 18.6259 20.266 18.6259H27.3759C27.9151 18.6259 28.3524 19.0631 28.3524 19.6024V20.5338C28.9347 19.9808 29.5247 19.533 30.1184 19.1941C31.3513 18.4911 32.8521 18.1347 34.5796 18.1347C36.978 18.1347 38.8951 18.9393 40.2778 20.5261C40.2778 20.5261 40.2778 20.5262 40.2779 20.5262C41.626 22.0738 42.3096 24.4273 42.3096 27.5209V41.3325C42.3096 41.8721 41.8723 42.3093 41.333 42.3093ZM35.6564 40.3562H40.3564V27.5211C40.3564 24.9127 39.8345 22.9909 38.8051 21.8091L38.8052 21.8092C37.796 20.6509 36.4139 20.0878 34.5796 20.0878C33.1957 20.0878 32.0204 20.3579 31.0863 20.8906C30.1227 21.4405 29.139 22.3928 28.1628 23.7206C27.9127 24.0607 27.4729 24.2017 27.0715 24.0701C26.6705 23.9386 26.3993 23.5643 26.3993 23.1422V20.5789H21.2426V40.3561H26.3469V29.0099C26.3469 26.3324 28.3628 24.1244 30.9362 23.9832L31.1852 23.9695C32.329 23.9063 33.4256 24.3132 34.2716 25.114C35.1517 25.9471 35.6563 27.1337 35.6563 28.3696L35.6564 40.3562Z" fill="black"/>
<path d="M16.1991 42.3093H9.08926C8.55001 42.3093 8.1127 41.8721 8.1127 41.3327V36.0352C8.1127 35.4958 8.55001 35.0586 9.08926 35.0586C9.62852 35.0586 10.0658 35.4958 10.0658 36.0352V40.3562H15.2226V20.579H10.0658V27.7344C10.0658 28.2737 9.62852 28.7109 9.08926 28.7109C8.55001 28.7109 8.1127 28.2737 8.1127 27.7344V19.6024C8.1127 19.0631 8.55001 18.6259 9.08926 18.6259H16.1991C16.7384 18.6259 17.1757 19.0631 17.1757 19.6024V41.3327C17.1757 41.8721 16.7384 42.3093 16.1991 42.3093Z" fill="black"/>
<path d="M9.08881 33.1055C8.83197 33.1055 8.58002 33.001 8.39847 32.8193C8.21683 32.6377 8.11224 32.3857 8.11224 32.1289C8.11224 31.8721 8.21674 31.6201 8.39847 31.4385C8.58002 31.2568 8.83197 31.1523 9.08881 31.1523C9.34672 31.1523 9.59769 31.2568 9.78021 31.4385C9.96185 31.6201 10.0664 31.8721 10.0664 32.1289C10.0664 32.3857 9.96195 32.6377 9.78021 32.8193C9.59769 33.001 9.34672 33.1055 9.08881 33.1055Z" fill="black"/>
<path d="M12.6442 17.5983C9.9127 17.5983 7.69043 15.3761 7.69043 12.6445C7.69043 9.913 9.9127 7.69073 12.6442 7.69073C15.3759 7.69073 17.5981 9.913 17.5981 12.6445C17.5981 15.3761 15.3758 17.5983 12.6442 17.5983ZM12.6442 9.64386C10.9897 9.64386 9.64355 10.99 9.64355 12.6445C9.64355 14.2991 10.9896 15.6452 12.6442 15.6452C14.2988 15.6452 15.645 14.2991 15.645 12.6445C15.645 10.99 14.2988 9.64386 12.6442 9.64386Z" fill="black"/>
<path d="M37.9527 6.64062H29.9937C29.4545 6.64062 29.0172 6.20342 29.0172 5.66406C29.0172 5.12471 29.4545 4.6875 29.9937 4.6875H37.9527C38.492 4.6875 38.9293 5.12471 38.9293 5.66406C38.9293 6.20342 38.492 6.64062 37.9527 6.64062Z" fill="black"/>
<path d="M25.562 6.64062H25.5504C25.0112 6.64062 24.5739 6.20342 24.5739 5.66406C24.5739 5.12471 25.0112 4.6875 25.5504 4.6875H25.562C26.1013 4.6875 26.5386 5.12471 26.5386 5.66406C26.5386 6.20342 26.1013 6.64062 25.562 6.64062Z" fill="black"/>
</svg>
