<svg width="76" height="76" viewBox="0 0 76 76" fill="none" xmlns="http://www.w3.org/2000/svg">
<g clip-path="url(#clip0)">
<path d="M65.724 73.9764H9.72598C5.16832 73.9764 1.47363 70.2817 1.47363 65.724V9.72598C1.47363 5.16832 5.16832 1.47363 9.72598 1.47363H65.724C70.2817 1.47363 73.9764 5.16832 73.9764 9.72598V65.724C73.9764 70.2817 70.2817 73.9764 65.724 73.9764Z" fill="#6E87F5"/>
<path d="M59.6683 31.9422C57.8659 29.8735 55.3699 28.8392 52.1808 28.8392C49.8215 28.8392 47.8213 29.3076 46.1794 30.2441C44.5375 31.1811 42.9143 32.7403 41.3104 34.9219V29.5803H30.5816V62.3712H41.2313V43.7759C41.2313 40.519 43.6626 37.8322 46.7637 37.662L47.1395 37.6413C49.9624 37.4864 52.3321 39.8451 52.3321 42.8098V62.3711H62.3717V41.5294C62.3715 37.2066 61.4703 34.011 59.6683 31.9422Z" fill="white"/>
<path d="M24.4439 29.5803H13.7151V62.3715H24.4439V29.5803Z" fill="white"/>
<path d="M19.0806 25.0823C22.3952 25.0823 25.0823 22.3952 25.0823 19.0806C25.0823 15.766 22.3952 13.0789 19.0806 13.0789C15.766 13.0789 13.0789 15.766 13.0789 19.0806C13.0789 22.3952 15.766 25.0823 19.0806 25.0823Z" fill="white"/>
<path d="M65.724 75.45H9.72598C4.36298 75.45 0 71.087 0 65.724V9.72598C0 4.36298 4.36298 0 9.72598 0H65.724C71.087 0 75.45 4.36298 75.45 9.72598V65.724C75.45 71.087 71.087 75.45 65.724 75.45ZM9.72598 2.94727C5.98825 2.94727 2.94727 5.98825 2.94727 9.72598V65.724C2.94727 69.4617 5.98825 72.5027 9.72598 72.5027H65.724C69.4617 72.5027 72.5027 69.4617 72.5027 65.724V9.72598C72.5027 5.98825 69.4617 2.94727 65.724 2.94727H9.72598Z" fill="black"/>
<path d="M62.3715 63.8447H52.3319C51.5182 63.8447 50.8583 63.1849 50.8583 62.3711V42.8098C50.8583 41.7507 50.4324 40.7402 49.6899 40.0374C49.0073 39.3912 48.129 39.0639 47.2201 39.1129L46.8444 39.1335C44.523 39.2608 42.7047 41.3 42.7047 43.7759V62.3712C42.7047 63.1851 42.0448 63.8448 41.2311 63.8448H30.5814C29.7677 63.8448 29.1078 63.1851 29.1078 62.3712V29.5801C29.1078 28.7662 29.7677 28.1064 30.5814 28.1064H41.3102C42.1239 28.1064 42.7838 28.7662 42.7838 29.5801V30.9855C43.6624 30.151 44.5528 29.4753 45.4486 28.9639C47.3091 27.9031 49.5739 27.3652 52.1806 27.3652C55.7998 27.3652 58.6927 28.5793 60.7792 30.9738C60.7792 30.9738 60.7792 30.974 60.7794 30.974C62.8136 33.3094 63.8451 36.8607 63.8451 41.529V62.3708C63.8451 63.1849 63.1852 63.8447 62.3715 63.8447ZM53.8056 60.8974H60.8979V41.5293C60.8979 37.5932 60.1102 34.6933 58.5569 32.9099L58.557 32.91C57.0342 31.1622 54.9485 30.3125 52.1806 30.3125C50.0923 30.3125 48.3188 30.7201 46.9093 31.5239C45.4551 32.3537 43.9707 33.7907 42.4977 35.7944C42.1203 36.3076 41.4565 36.5203 40.8509 36.3218C40.2458 36.1233 39.8366 35.5585 39.8366 34.9215V31.0536H32.0551V60.8973H39.7574V43.7759C39.7574 39.7356 42.7995 36.4037 46.6828 36.1906L47.0584 36.17C48.7845 36.0745 50.4392 36.6886 51.7158 37.897C53.0439 39.1541 53.8054 40.9447 53.8054 42.8098L53.8056 60.8974Z" fill="black"/>
<path d="M24.4445 63.8447H13.7157C12.902 63.8447 12.2421 63.185 12.2421 62.3711V54.377C12.2421 53.5632 12.902 52.9034 13.7157 52.9034C14.5294 52.9034 15.1893 53.5632 15.1893 54.377V60.8974H22.9709V31.0537H15.1893V41.8512C15.1893 42.6651 14.5294 43.3248 13.7157 43.3248C12.902 43.3248 12.2421 42.6651 12.2421 41.8512V29.5801C12.2421 28.7662 12.902 28.1064 13.7157 28.1064H24.4445C25.2582 28.1064 25.9181 28.7662 25.9181 29.5801V62.3711C25.9181 63.185 25.2582 63.8447 24.4445 63.8447Z" fill="black"/>
<path d="M13.715 49.9561C13.3274 49.9561 12.9472 49.7985 12.6733 49.5244C12.3992 49.2503 12.2413 48.8701 12.2413 48.4825C12.2413 48.0949 12.399 47.7147 12.6733 47.4407C12.9472 47.1666 13.3274 47.0089 13.715 47.0089C14.1042 47.0089 14.4829 47.1666 14.7583 47.4407C15.0324 47.7147 15.1902 48.0949 15.1902 48.4825C15.1902 48.8701 15.0325 49.2503 14.7583 49.5244C14.4829 49.7985 14.1042 49.9561 13.715 49.9561Z" fill="black"/>
<path d="M19.0802 26.5559C14.9583 26.5559 11.6049 23.2025 11.6049 19.0806C11.6049 14.9587 14.9583 11.6053 19.0802 11.6053C23.2022 11.6053 26.5556 14.9587 26.5556 19.0806C26.5556 23.2025 23.2021 26.5559 19.0802 26.5559ZM19.0802 14.5526C16.5835 14.5526 14.5521 16.5838 14.5521 19.0806C14.5521 21.5774 16.5834 23.6086 19.0802 23.6086C21.5769 23.6086 23.6083 21.5774 23.6083 19.0806C23.6083 16.5838 21.5769 14.5526 19.0802 14.5526Z" fill="black"/>
<path d="M57.2707 10.0207H45.2606C44.4468 10.0207 43.7869 9.36095 43.7869 8.54706C43.7869 7.73317 44.4468 7.07343 45.2606 7.07343H57.2707C58.0844 7.07343 58.7443 7.73317 58.7443 8.54706C58.7443 9.36095 58.0844 10.0207 57.2707 10.0207Z" fill="black"/>
<path d="M38.5731 10.0207H38.5555C37.7418 10.0207 37.0819 9.36095 37.0819 8.54706C37.0819 7.73317 37.7418 7.07343 38.5555 7.07343H38.5731C39.3868 7.07343 40.0467 7.73317 40.0467 8.54706C40.0467 9.36095 39.3868 10.0207 38.5731 10.0207Z" fill="black"/>
</g>
<defs>
<clipPath id="clip0">
<rect width="75.45" height="75.45" fill="white"/>
</clipPath>
</defs>
</svg>
