<svg width="63" height="50" viewBox="0 0 63 50" fill="none" xmlns="http://www.w3.org/2000/svg">
<path d="M61.7113 12.4066C58.9623 5.41153 50.494 1.21668 43.3216 3.99267C35.1346 7.16128 37.8491 20.1834 30.4127 22.8167C26.3957 24.2391 20.4574 18.9257 16.3989 18.1109C8.9202 16.6096 2.14992 21.8865 0.482798 29.194C-1.21801 36.6492 1.5099 46.6066 9.70089 48.6301C19.4579 51.0404 24.5403 42.2694 32.7254 39.7509C41.1249 37.1663 50.4643 43.2703 57.4179 35.8436C62.5552 30.357 64.4335 19.3333 61.7113 12.4066V12.4066Z" fill="url(#paint0_linear)"/>
<path opacity="0.1" d="M58.6341 15.4819C58.6341 10.6251 54.697 6.68799 49.8402 6.68799C46.0776 6.68799 42.8684 9.05193 41.6129 12.375H9.81402C8.45578 12.375 7.35478 13.476 7.35478 14.8342V42.0592C7.35478 43.4175 8.45578 44.5185 9.81402 44.5185H53.1428C54.501 44.5185 55.602 43.4175 55.602 42.0592V22.1222C57.4585 20.5098 58.6341 18.1339 58.6341 15.4819V15.4819Z" fill="#2626BC"/>
<path d="M53.1429 41.4445H9.8141C8.45586 41.4445 7.35486 40.3435 7.35486 38.9852V11.7602C7.35486 10.402 8.45586 9.30096 9.8141 9.30096H53.1428C54.5011 9.30096 55.6021 10.402 55.6021 11.7602V38.9852C55.6022 40.3435 54.5011 41.4445 53.1429 41.4445Z" fill="#9FB0FE"/>
<path d="M55.6023 11.7608V22.1511C54.0591 23.4901 52.045 24.3017 49.8403 24.3017C44.9833 24.3017 41.0461 20.3644 41.0461 15.5087C41.0461 13.0863 42.0261 10.8914 43.6111 9.30154H53.1431C54.5006 9.30154 55.6023 10.4021 55.6023 11.7608Z" fill="#8399FE"/>
<path d="M55.6023 11.7612V14.8611L33.7261 31.6663C33.0843 32.1593 32.2862 32.4299 31.4784 32.4299C30.6705 32.4299 29.8725 32.1593 29.2306 31.6663L7.35448 14.8611V11.7612C7.35448 10.4025 8.45622 9.30194 9.81372 9.30194H53.1431C54.5006 9.30194 55.6023 10.4025 55.6023 11.7612V11.7612Z" fill="#8399FE"/>
<path d="M32.2275 21.0296L55.602 38.9852C55.602 40.3434 54.501 41.4444 53.1428 41.4444H9.81397C8.45573 41.4444 7.35473 40.3434 7.35473 38.9852L30.7293 21.0296C31.1711 20.6903 31.7857 20.6903 32.2275 21.0296V21.0296Z" fill="#8399FE"/>
<path d="M39.9 26.9232L33.7261 31.6659C33.0843 32.159 32.2862 32.4295 31.4784 32.4295C30.6705 32.4295 29.8725 32.159 29.2306 31.6659L23.0567 26.9232L30.7295 21.0297C31.171 20.6903 31.7858 20.6903 32.2272 21.0297L39.9 26.9232Z" fill="#6583FE"/>
<path d="M30.7294 29.7158L7.35486 11.7602C7.35486 10.402 8.45586 9.30096 9.8141 9.30096H53.1428C54.5011 9.30096 55.6021 10.402 55.6021 11.7602L32.2276 29.7158C31.7858 30.0551 31.1712 30.0551 30.7294 29.7158Z" fill="#B7C5FF"/>
<path d="M45.6126 38.1723H41.6613C41.3218 38.1723 41.0465 37.897 41.0465 37.5575V34.8334C41.0465 34.4939 41.3218 34.2186 41.6613 34.2186H45.6126C45.9521 34.2186 46.2274 34.4939 46.2274 34.8334V37.5575C46.2274 37.8971 45.9521 38.1723 45.6126 38.1723Z" fill="#02FFB3"/>
<path d="M38.3484 35.6661H34.926C34.5863 35.6661 34.3111 35.3908 34.3111 35.0513C34.3111 34.7118 34.5863 34.4365 34.926 34.4365H38.3484C38.688 34.4365 38.9632 34.7118 38.9632 35.0513C38.9632 35.3908 38.688 35.6661 38.3484 35.6661Z" fill="white"/>
<path d="M38.3484 38.1723H26.3186C25.979 38.1723 25.7038 37.897 25.7038 37.5575C25.7038 37.218 25.979 36.9427 26.3186 36.9427H38.3484C38.688 36.9427 38.9632 37.218 38.9632 37.5575C38.9632 37.897 38.688 38.1723 38.3484 38.1723Z" fill="white"/>
<path d="M49.8403 21.2017C54.697 21.2017 58.6341 17.2645 58.6341 12.4078C58.6341 7.5511 54.697 3.61395 49.8403 3.61395C44.9835 3.61395 41.0464 7.5511 41.0464 12.4078C41.0464 17.2645 44.9835 21.2017 49.8403 21.2017Z" fill="#FF5BA8"/>
<path d="M49.8402 21.8165C55.0281 21.8165 59.2489 17.5958 59.2489 12.4078C59.2489 7.21982 55.0283 2.99915 49.8402 2.99915C44.6522 2.99915 40.4316 7.21982 40.4316 12.4078C40.4316 15.4258 41.8615 18.1145 44.0778 19.8373L31.8529 29.2282C31.6326 29.3976 31.3245 29.3977 31.1038 29.2282L7.9916 11.4742C8.12945 10.5925 8.89427 9.91576 9.8139 9.91576H38.0172C38.3568 9.91576 38.632 9.64045 38.632 9.30095C38.632 8.96145 38.3568 8.68614 38.0172 8.68614H9.81403C8.11899 8.68614 6.73997 10.0652 6.73997 11.7602V38.9852C6.73997 40.6802 8.11899 42.0592 9.81403 42.0592H53.1428C54.8378 42.0592 56.2168 40.6802 56.2168 38.9852V22.737C56.2168 22.3975 55.9416 22.1222 55.602 22.1222C55.2624 22.1222 54.9872 22.3975 54.9872 22.737V37.7376L38.8905 25.3727L45.1542 20.5612C46.535 21.358 48.1346 21.8165 49.8402 21.8165V21.8165ZM24.0662 25.3727L7.9696 37.7376V13.0078L24.0662 25.3727ZM54.9628 39.2696C54.8254 40.1517 54.0628 40.8296 53.1426 40.8296H9.81403C8.8939 40.8296 8.13129 40.1517 7.99382 39.2696L25.0756 26.148L30.3548 30.2033C30.6856 30.4573 31.082 30.5844 31.4785 30.5844C31.8749 30.5844 32.2712 30.4574 32.6021 30.2033L37.8813 26.1478L54.9628 39.2696ZM41.6612 12.4078C41.6612 7.89795 45.3302 4.22877 49.8402 4.22877C54.3502 4.22877 58.0193 7.89783 58.0193 12.4078C58.0193 16.9178 54.3502 20.5869 49.8402 20.5869C45.3302 20.5869 41.6612 16.9177 41.6612 12.4078Z" fill="#2626BC"/>
<path d="M46.0019 9.40888L47.2568 12.4078L46.0019 15.4067C45.7888 15.916 46.3029 16.4263 46.8105 16.2094L54.3873 12.9732C54.885 12.7606 54.885 12.055 54.3873 11.8424L46.8105 8.60619C46.3029 8.38928 45.7888 8.89958 46.0019 9.40888V9.40888Z" fill="white"/>
<path d="M50.1195 12.9818L46.3415 14.5963L47.2566 12.4076L46.3404 10.2189L50.1195 11.8334C50.5908 12.035 50.5908 12.7814 50.1195 12.9818V12.9818Z" fill="#FFDBED"/>
<path d="M40.6793 3.56414C40.2227 3.56414 39.7661 3.3904 39.4186 3.04279C38.7234 2.34756 38.7234 1.21643 39.4186 0.521328C40.1135 -0.173653 41.2448 -0.173899 41.9399 0.521328C42.6352 1.21656 42.6352 2.34768 41.9399 3.04279C41.5924 3.3904 41.1359 3.56414 40.6793 3.56414ZM40.6793 1.22897C40.5377 1.22897 40.3959 1.28283 40.2879 1.39079C40.0723 1.60647 40.0723 1.95752 40.2879 2.17332C40.5039 2.389 40.8546 2.38912 41.0705 2.17332C41.2862 1.95765 41.2862 1.60659 41.0705 1.39079C40.9626 1.28295 40.8209 1.22897 40.6793 1.22897V1.22897Z" fill="#00ECA2"/>
<path d="M26.8719 50C26.4154 50 25.9587 49.8261 25.6112 49.4786C24.916 48.7834 24.916 47.6523 25.6112 46.9572C26.3062 46.2621 27.4377 46.2621 28.1326 46.9572C28.8279 47.6524 28.8279 48.7835 28.1326 49.4786C27.7852 49.8263 27.3285 50 26.8719 50V50ZM26.8719 47.6648C26.7303 47.6648 26.5885 47.7187 26.4805 47.8266C26.2649 48.0423 26.2649 48.3934 26.4805 48.6092C26.6964 48.825 27.0473 48.825 27.2632 48.6092C27.4789 48.3935 27.4789 48.0424 27.2632 47.8266C27.1553 47.7188 27.0136 47.6648 26.8719 47.6648V47.6648Z" fill="#00ECA2"/>
<path d="M36.2468 5.14739C36.0895 5.14739 35.932 5.08739 35.8121 4.96738L35.0787 4.23403L34.3452 4.96738C34.1053 5.2074 33.7158 5.2074 33.4759 4.96738C33.2357 4.72723 33.2357 4.33793 33.4759 4.09791L34.644 2.92977C34.8839 2.68975 35.2734 2.68975 35.5133 2.92977L36.6815 4.09791C36.9216 4.33806 36.9216 4.72735 36.6815 4.96738C36.5616 5.08726 36.4042 5.14739 36.2468 5.14739Z" fill="#FF7EB8"/>
<path d="M54.0721 47.6646C53.9148 47.6646 53.7573 47.6046 53.6374 47.4846L52.904 46.7512L52.1705 47.4846C51.9306 47.7246 51.541 47.7246 51.3011 47.4846C51.061 47.2444 51.061 46.8551 51.3011 46.6151L52.4693 45.447C52.7092 45.2069 53.0987 45.2069 53.3386 45.447L54.5068 46.6151C54.7469 46.8552 54.7469 47.2445 54.5068 47.4846C54.3869 47.6044 54.2294 47.6646 54.0721 47.6646Z" fill="#FF7EB8"/>
<path d="M21.996 48.2486C21.8387 48.2486 21.6812 48.1886 21.5613 48.0686L20.8279 47.3353L20.0944 48.0686C19.8545 48.3087 19.465 48.3087 19.2251 48.0686C18.9849 47.8285 18.9849 47.4392 19.2251 47.1992L20.3932 46.031C20.6331 45.791 21.0226 45.791 21.2625 46.031L22.4307 47.1992C22.6708 47.4393 22.6708 47.8286 22.4307 48.0686C22.3107 48.1885 22.1533 48.2486 21.996 48.2486Z" fill="#6583FE"/>
<defs>
<linearGradient id="paint0_linear" x1="53.1607" y1="55.328" x2="24.3876" y2="17.2097" gradientUnits="userSpaceOnUse">
<stop stop-color="#C6D1FF"/>
<stop offset="0.5834" stop-color="#E6D5F4"/>
<stop offset="0.997" stop-color="#FFD9EC"/>
</linearGradient>
</defs>
</svg>
