<svg width="95" height="76" viewBox="0 0 95 76" fill="none" xmlns="http://www.w3.org/2000/svg">
<path d="M93.1209 18.7212C88.9727 8.16586 76.1943 1.83593 65.3713 6.02484C53.0173 10.8062 57.1134 30.4563 45.8921 34.4298C39.8305 36.5762 30.8697 28.5584 24.7455 27.3289C13.4604 25.0634 3.24417 33.0262 0.72853 44.053C-1.83795 55.3027 2.2784 70.3283 14.6384 73.3816C29.3615 77.0187 37.0307 63.7835 49.3818 59.9831C62.0565 56.0831 76.1494 65.2938 86.6422 54.0872C94.3943 45.8079 97.2286 29.1735 93.1209 18.7212V18.7212Z" fill="url(#paint0_linear)"/>
<path opacity="0.1" d="M88.4775 23.3618C88.4775 16.033 82.5364 10.092 75.2077 10.092C69.53 10.092 64.6874 13.6591 62.7928 18.6735H14.8091C12.7596 18.6735 11.0982 20.3349 11.0982 22.3845V63.4664C11.0982 65.5159 12.7596 67.1773 14.8091 67.1773H80.1911C82.2407 67.1773 83.9021 65.5159 83.9021 63.4664V33.3818C86.7035 30.9488 88.4775 27.3636 88.4775 23.3618V23.3618Z" fill="#2626BC"/>
<path d="M80.1912 62.5387H14.809C12.7595 62.5387 11.0981 60.8773 11.0981 58.8277V17.7458C11.0981 15.6963 12.7595 14.0349 14.809 14.0349H80.191C82.2406 14.0349 83.902 15.6963 83.902 17.7458V58.8277C83.9021 60.8773 82.2406 62.5387 80.1912 62.5387Z" fill="#9FB0FE"/>
<path d="M83.9025 17.7468V33.4255C81.5739 35.4461 78.5347 36.6707 75.2078 36.6707C67.8787 36.6707 61.9375 30.7295 61.9375 23.4022C61.9375 19.747 63.4163 16.4349 65.808 14.0358H80.1916C82.24 14.0358 83.9025 15.6965 83.9025 17.7468Z" fill="#8399FE"/>
<path d="M83.9025 17.7468V22.4245L50.8919 47.7831C49.9233 48.5272 48.7191 48.9354 47.5001 48.9354C46.2811 48.9354 45.0769 48.5272 44.1083 47.7831L11.0977 22.4245V17.7468C11.0977 15.6965 12.7602 14.0359 14.8086 14.0359H80.1916C82.24 14.0359 83.9025 15.6965 83.9025 17.7468V17.7468Z" fill="#8399FE"/>
<path d="M48.6305 31.7333L83.9022 58.8277C83.9022 60.8773 82.2408 62.5387 80.1912 62.5387H14.809C12.7595 62.5387 11.0981 60.8773 11.0981 58.8277L46.3698 31.7333C47.0365 31.2212 47.9638 31.2212 48.6305 31.7333V31.7333Z" fill="#8399FE"/>
<path d="M60.2082 40.6265L50.8919 47.7831C49.9233 48.5271 48.7191 48.9353 47.5001 48.9353C46.2811 48.9353 45.0769 48.5271 44.1083 47.7831L34.792 40.6265L46.3701 31.7333C47.0362 31.2212 47.964 31.2212 48.6301 31.7333L60.2082 40.6265Z" fill="#6583FE"/>
<path d="M46.3698 44.8405L11.0981 17.7458C11.0981 15.6963 12.7595 14.0349 14.809 14.0349H80.191C82.2406 14.0349 83.902 15.6963 83.902 17.7458L48.6305 44.8405C47.9638 45.3524 47.0364 45.3524 46.3698 44.8405Z" fill="#B7C5FF"/>
<path d="M68.8283 57.6011H62.8659C62.3536 57.6011 61.9382 57.1857 61.9382 56.6734V52.5628C61.9382 52.0505 62.3536 51.635 62.8659 51.635H68.8283C69.3406 51.635 69.756 52.0505 69.756 52.5628V56.6734C69.756 57.1859 69.3406 57.6011 68.8283 57.6011Z" fill="#02FFB3"/>
<path d="M57.8668 53.8193H52.7024C52.1899 53.8193 51.7747 53.4038 51.7747 52.8915C51.7747 52.3792 52.1899 51.9638 52.7024 51.9638H57.8668C58.3792 51.9638 58.7945 52.3792 58.7945 52.8915C58.7945 53.4038 58.3792 53.8193 57.8668 53.8193Z" fill="white"/>
<path d="M57.8667 57.601H39.7142C39.2017 57.601 38.7864 57.1856 38.7864 56.6733C38.7864 56.161 39.2017 55.7456 39.7142 55.7456H57.8667C58.3792 55.7456 58.7945 56.161 58.7945 56.6733C58.7945 57.1856 58.3792 57.601 57.8667 57.601Z" fill="white"/>
<path d="M75.2078 31.9929C82.5364 31.9929 88.4775 26.0518 88.4775 18.7231C88.4775 11.3944 82.5364 5.45337 75.2078 5.45337C67.8791 5.45337 61.938 11.3944 61.938 18.7231C61.938 26.0518 67.8791 31.9929 75.2078 31.9929Z" fill="#FF5BA8"/>
<path d="M75.2077 32.9206C83.0361 32.9206 89.4052 26.5517 89.4052 18.7231C89.4052 10.8945 83.0363 4.52563 75.2077 4.52563C67.3791 4.52563 61.0102 10.8945 61.0102 18.7231C61.0102 23.2772 63.168 27.3343 66.5123 29.934L48.0652 44.1046C47.7329 44.3603 47.2679 44.3605 46.9349 44.1046L12.0591 17.3143C12.2671 15.9839 13.4212 14.9626 14.8089 14.9626H57.367C57.8795 14.9626 58.2948 14.5472 58.2948 14.0349C58.2948 13.5226 57.8795 13.1072 57.367 13.1072H14.8091C12.2514 13.1072 10.1705 15.1881 10.1705 17.7458V58.8277C10.1705 61.3855 12.2514 63.4664 14.8091 63.4664H80.1911C82.7489 63.4664 84.8298 61.3855 84.8298 58.8277V34.3096C84.8298 33.7973 84.4145 33.3819 83.9021 33.3819C83.3896 33.3819 82.9743 33.7973 82.9743 34.3096V56.9452L58.6848 38.2868L68.1365 31.0263C70.2202 32.2287 72.634 32.9206 75.2077 32.9206V32.9206ZM36.3153 38.2868L12.0259 56.9452V19.6284L36.3153 38.2868ZM82.9376 59.2569C82.7302 60.588 81.5794 61.6109 80.191 61.6109H14.8091C13.4207 61.6109 12.2699 60.588 12.0625 59.2569L37.8384 39.4567L45.8047 45.576C46.3038 45.9593 46.902 46.1512 47.5002 46.1512C48.0984 46.1512 48.6964 45.9595 49.1957 45.576L57.162 39.4565L82.9376 59.2569ZM62.8657 18.7231C62.8657 11.9178 68.4022 6.3811 75.2077 6.3811C82.0132 6.3811 87.5497 11.9176 87.5497 18.7231C87.5497 25.5286 82.0132 31.0651 75.2077 31.0651C68.4022 31.0651 62.8657 25.5284 62.8657 18.7231Z" fill="#2626BC"/>
<path d="M69.4157 14.1978L71.3094 18.7231L69.4157 23.2484C69.0942 24.0169 69.8699 24.7869 70.6359 24.4596L82.0691 19.5762C82.8202 19.2554 82.8202 18.1907 82.0691 17.8699L70.6359 12.9865C69.8699 12.6592 69.0942 13.4292 69.4157 14.1978V14.1978Z" fill="white"/>
<path d="M75.6291 19.5893L69.9282 22.0255L71.309 18.7228L69.9265 15.42L75.6291 17.8563C76.3403 18.1606 76.3403 19.2868 75.6291 19.5893V19.5893Z" fill="#FFDBED"/>
<path d="M61.3841 5.37821C60.695 5.37821 60.0061 5.11603 59.4817 4.59149C58.4326 3.54241 58.4326 1.83557 59.4817 0.786671C60.5303 -0.262038 62.2375 -0.262409 63.2864 0.786671C64.3354 1.83575 64.3354 3.5426 63.2864 4.59149C62.762 5.11603 62.0731 5.37821 61.3841 5.37821ZM61.3841 1.85449C61.1704 1.85449 60.9564 1.93576 60.7935 2.09867C60.4681 2.42412 60.4681 2.95386 60.7935 3.27949C61.1194 3.60494 61.6485 3.60513 61.9744 3.27949C62.2998 2.95404 62.2998 2.42431 61.9744 2.09867C61.8116 1.93595 61.5977 1.85449 61.3841 1.85449V1.85449Z" fill="#00ECA2"/>
<path d="M40.5491 75.4488C39.8601 75.4488 39.171 75.1864 38.6467 74.6621C37.5976 73.613 37.5976 71.9062 38.6467 70.8573C39.6954 69.8084 41.4028 69.8084 42.4515 70.8573C43.5006 71.9063 43.5006 73.6132 42.4515 74.6621C41.9271 75.1866 41.238 75.4488 40.5491 75.4488V75.4488ZM40.5491 71.9251C40.3353 71.9251 40.1214 72.0064 39.9585 72.1693C39.633 72.4947 39.633 73.0244 39.9585 73.3501C40.2843 73.6757 40.8137 73.6757 41.1395 73.3501C41.4649 73.0246 41.4649 72.4949 41.1395 72.1693C40.9768 72.0065 40.7628 71.9251 40.5491 71.9251V71.9251Z" fill="#00ECA2"/>
<path d="M54.6956 7.7673C54.4582 7.7673 54.2206 7.67675 54.0396 7.49566L52.9329 6.38906L51.8261 7.49566C51.4641 7.85784 50.8763 7.85784 50.5143 7.49566C50.1519 7.13328 50.1519 6.54584 50.5143 6.18366L52.277 4.42096C52.639 4.05878 53.2268 4.05878 53.5888 4.42096L55.3515 6.18366C55.7138 6.54603 55.7138 7.13347 55.3515 7.49566C55.1706 7.67656 54.9331 7.7673 54.6956 7.7673Z" fill="#FF7EB8"/>
<path d="M81.5935 71.9247C81.3562 71.9247 81.1185 71.8342 80.9376 71.6531L79.8308 70.5465L78.724 71.6531C78.362 72.0153 77.7742 72.0153 77.4122 71.6531C77.0498 71.2907 77.0498 70.7033 77.4122 70.3411L79.1749 68.5784C79.5369 68.2162 80.1247 68.2162 80.4867 68.5784L82.2494 70.3411C82.6118 70.7034 82.6118 71.2909 82.2494 71.6531C82.0685 71.834 81.8308 71.9247 81.5935 71.9247Z" fill="#FF7EB8"/>
<path d="M33.1914 72.8061C32.9541 72.8061 32.7164 72.7155 32.5355 72.5344L31.4287 71.4278L30.322 72.5344C29.96 72.8966 29.3721 72.8966 29.0101 72.5344C28.6478 72.172 28.6478 71.5846 29.0101 71.2224L30.7728 69.4597C31.1348 69.0975 31.7227 69.0975 32.0847 69.4597L33.8473 71.2224C34.2097 71.5848 34.2097 72.1722 33.8473 72.5344C33.6663 72.7153 33.4288 72.8061 33.1914 72.8061Z" fill="#6583FE"/>
<defs>
<linearGradient id="paint0_linear" x1="80.2182" y1="83.4885" x2="36.8003" y2="25.9691" gradientUnits="userSpaceOnUse">
<stop stop-color="#C6D1FF"/>
<stop offset="0.5834" stop-color="#E6D5F4"/>
<stop offset="0.997" stop-color="#FFD9EC"/>
</linearGradient>
</defs>
</svg>
