<svg width="56" height="56" viewBox="0 0 56 56" fill="none" xmlns="http://www.w3.org/2000/svg">
<rect width="56" height="56" rx="7" fill="#0D1117"/>
<path d="M40.0679 44H8.24328C5.88826 44 4 41.975 4 39.5V12.5C4 10.0025 5.88826 8 8.24328 8H20.9731L25.2164 12.5H40.0679C42.3953 12.5 44.3112 14.5317 44.3112 17H8.24328V39.5L12.7836 21.5H49L44.1627 40.625C43.6747 42.5825 42.0198 44 40.0679 44Z" fill="#8BC34A"/>
<path d="M40 23C39.67 23 39.3278 23.0862 39.0467 23.2463L29.9533 28.5419C29.3667 28.8867 29 29.5271 29 30.2167V40.7833C29 41.4729 29.3667 42.1133 29.9533 42.4581L32.3367 43.8374C33.4978 44.4039 33.8889 44.4163 34.4267 44.4163C36.1378 44.4163 37.1278 43.3695 37.1278 41.5468V31.1158C37.1278 30.968 37.0056 30.8448 36.8589 30.8448H35.7222C35.5633 30.8448 35.4411 30.968 35.4411 31.1158V41.5468C35.4411 42.3596 34.61 43.1601 33.2778 42.4828L30.7722 41.0419C30.6867 40.9803 30.6378 40.8818 30.6378 40.7833V30.2167C30.6378 30.1059 30.6867 30.0074 30.7722 29.9581L39.8656 24.6749C39.9389 24.6256 40.0611 24.6256 40.1344 24.6749L49.2278 29.9581C49.3133 30.0074 49.3622 30.1059 49.3622 30.2167V40.7833C49.3622 40.8818 49.3133 40.9803 49.2278 41.0419L40.1344 46.3251C40.0611 46.3744 39.9389 46.3744 39.8533 46.3251L37.5556 44.9212C37.4578 44.8842 37.36 44.8719 37.2989 44.9089C36.6511 45.2783 36.5289 45.3522 35.93 45.5369C35.7833 45.5862 35.5511 45.6724 36.0156 45.931L39.0467 47.7414C39.34 47.9138 39.6578 48 40 48C40.3422 48 40.66 47.9138 40.9533 47.7414L50.0467 42.4581C50.6333 42.1133 51 41.4729 51 40.7833V30.2167C51 29.5271 50.6333 28.8867 50.0467 28.5419L40.9533 23.2463C40.6722 23.0862 40.3422 23 40 23ZM42.4444 30.5739C39.8533 30.5739 38.3011 31.67 38.3011 33.5172C38.3011 35.5 39.8411 36.0788 42.3344 36.3251C45.3044 36.6207 45.5367 37.064 45.5367 37.6552C45.5367 38.6773 44.7178 39.1084 42.8111 39.1084C40.3911 39.1084 39.8778 38.5049 39.6944 37.298C39.67 37.1749 39.56 37.0764 39.4256 37.0764H38.2522C38.1056 37.0764 37.9956 37.1872 37.9956 37.3473C37.9956 38.8744 38.8267 40.7217 42.8111 40.7217C45.6833 40.7217 47.3333 39.5764 47.3333 37.5813C47.3333 35.5985 46.0133 35.0813 43.2144 34.6995C40.3911 34.3301 40.11 34.133 40.11 33.468C40.11 32.9138 40.3544 32.1749 42.4444 32.1749C44.2778 32.1749 44.9989 32.5813 45.28 33.8498C45.3044 33.9729 45.4144 34.0591 45.5367 34.0591H46.7222C46.7833 34.0591 46.8567 34.0345 46.9056 33.9729C46.9544 33.9236 46.9911 33.8498 46.9667 33.7759C46.7956 31.5837 45.3533 30.5739 42.4444 30.5739Z" fill="white"/>
</svg>
