<svg width="74" height="29" viewBox="0 0 74 29" fill="none" xmlns="http://www.w3.org/2000/svg">
<path d="M0 14.1918C0 6.35388 6.35388 0 14.1918 0H59.8082C67.6461 0 74 6.35388 74 14.1918V14.1918C74 22.0297 67.6461 28.3836 59.8082 28.3836H14.1918C6.35388 28.3836 0 22.0297 0 14.1918V14.1918Z" fill="#A3FF82"/>
<path d="M37.2404 25.8219C37.1086 25.8219 36.9855 25.7868 36.8711 25.7252L35.7016 25.0305C35.5257 24.9338 35.6136 24.8986 35.6664 24.881C35.9038 24.8019 35.9478 24.7843 36.194 24.6436C36.2204 24.626 36.2556 24.6348 36.282 24.6524L37.1789 25.1888C37.2141 25.2064 37.2581 25.2064 37.2844 25.1888L40.7931 23.1575C40.8282 23.1399 40.8459 23.1047 40.8459 23.0608V19.0069C40.8459 18.9629 40.8282 18.9278 40.7931 18.9102L37.2844 16.8876C37.2492 16.87 37.2053 16.87 37.1789 16.8876L33.6703 18.9102C33.6351 18.9277 33.6175 18.9717 33.6175 19.0069V23.0607C33.6175 23.0959 33.6351 23.1398 33.6703 23.1575L34.6288 23.7114C35.1476 23.9752 35.4729 23.6675 35.4729 23.3597V19.3586C35.4729 19.3059 35.5169 19.2531 35.5785 19.2531H36.0269C36.0797 19.2531 36.1325 19.297 36.1325 19.3586V23.3597C36.1325 24.0544 35.7543 24.4589 35.0948 24.4589C34.8926 24.4589 34.7343 24.4589 34.2858 24.239L33.3625 23.7114C33.1339 23.5796 32.9932 23.3333 32.9932 23.0695V19.0157C32.9932 18.7519 33.1339 18.5056 33.3625 18.3738L36.8711 16.3424C37.091 16.2193 37.39 16.2193 37.6098 16.3424L41.1184 18.3738C41.3471 18.5056 41.4878 18.7519 41.4878 19.0157V23.0695C41.4878 23.3333 41.3471 23.5796 41.1184 23.7114L37.6098 25.7428C37.4955 25.7956 37.3636 25.8219 37.2405 25.8219H37.2404ZM38.322 23.0344C36.7832 23.0344 36.4666 22.3309 36.4666 21.7329C36.4666 21.6801 36.5106 21.6274 36.5722 21.6274H37.0294C37.0822 21.6274 37.1261 21.6625 37.1261 21.7153C37.1965 22.1814 37.3987 22.41 38.3309 22.41C39.0695 22.41 39.3862 22.2429 39.3862 21.8472C39.3862 21.6186 39.2981 21.4516 38.1462 21.3372C37.1877 21.2404 36.5897 21.0294 36.5897 20.2644C36.5897 19.5521 37.1878 19.13 38.1902 19.13C39.3157 19.13 39.8698 19.5169 39.9402 20.361C39.9402 20.3875 39.9313 20.4138 39.9138 20.4402C39.8961 20.4578 39.8698 20.4754 39.8434 20.4754H39.3861C39.3421 20.4754 39.2981 20.4402 39.2894 20.3963C39.1839 19.9127 38.9113 19.7543 38.1902 19.7543C37.3812 19.7543 37.2844 20.0358 37.2844 20.2467C37.2844 20.5018 37.3987 20.5809 38.4891 20.7216C39.5708 20.8624 40.0808 21.0646 40.0808 21.8208C40.072 22.5947 39.4389 23.0344 38.322 23.0344Z" fill="#539E43"/>
<path d="M26.354 9.96707C26.354 9.80882 26.266 9.65923 26.1253 9.5801L22.3968 7.43449C22.3352 7.39927 22.2649 7.38169 22.1946 7.37286H22.1594C22.0891 7.37286 22.0187 7.39927 21.9571 7.43449L18.2286 9.5801C18.0879 9.65923 18 9.80874 18 9.96707L18.0088 15.7356C18.0088 15.8148 18.0528 15.8939 18.1231 15.9291C18.1935 15.9731 18.2814 15.9731 18.343 15.9291L20.559 14.6628C20.6997 14.5837 20.7876 14.4342 20.7876 14.2759V11.5763C20.7876 11.418 20.8755 11.2685 21.0163 11.1894L21.9571 10.6442C22.0275 10.6002 22.1066 10.5825 22.1858 10.5825C22.2649 10.5825 22.344 10.6002 22.4057 10.6442L23.3465 11.1894C23.4873 11.2685 23.5752 11.4179 23.5752 11.5763V14.2759C23.5752 14.4342 23.6631 14.5837 23.8038 14.6628L26.0198 15.9291C26.0902 15.9731 26.178 15.9731 26.2484 15.9291C26.3188 15.8939 26.3628 15.8148 26.3628 15.7356L26.354 9.96707Z" fill="#333333"/>
<path d="M44.2754 2.02642C44.2051 1.99119 44.1171 1.99119 44.0555 2.02642C43.9852 2.0704 43.9412 2.1407 43.9412 2.21983V7.93575C43.9412 7.98848 43.9149 8.0412 43.8621 8.07643C43.8093 8.10276 43.7565 8.10276 43.7038 8.07643L42.7717 7.54003C42.7033 7.50112 42.6261 7.48066 42.5474 7.48066C42.4688 7.48066 42.3915 7.50112 42.3232 7.54003L38.5947 9.69447C38.454 9.77359 38.366 9.9231 38.366 10.0814V14.3814C38.366 14.5397 38.454 14.6892 38.5947 14.7684L42.3232 16.9228C42.3915 16.9617 42.4688 16.9822 42.5474 16.9822C42.6261 16.9822 42.7033 16.9617 42.7717 16.9228L46.5002 14.7684C46.6409 14.6892 46.7288 14.5397 46.7288 14.3814V3.66203C46.7288 3.49495 46.6409 3.34551 46.5002 3.26631L44.2754 2.02642H44.2754ZM43.9324 12.9657C43.9324 13.0097 43.9149 13.0448 43.8796 13.0624L42.6046 13.801C42.5868 13.8097 42.5672 13.8142 42.5474 13.8142C42.5276 13.8142 42.5081 13.8097 42.4902 13.801L41.2152 13.0624C41.18 13.0448 41.1624 13.0008 41.1624 12.9657V11.4883C41.1624 11.4444 41.18 11.4092 41.2152 11.3916L42.4902 10.6529C42.5081 10.6442 42.5276 10.6397 42.5474 10.6397C42.5672 10.6397 42.5868 10.6442 42.6046 10.6529L43.8796 11.3916C43.9149 11.4091 43.9324 11.4532 43.9324 11.4883V12.9657Z" fill="#333333"/>
<path d="M56.6832 11.4532C56.8239 11.374 56.903 11.2245 56.903 11.0662V10.0198C56.903 9.86154 56.8151 9.71204 56.6832 9.63291L52.9811 7.4873C52.9127 7.4484 52.8355 7.42795 52.7568 7.42795C52.6782 7.42795 52.6009 7.4484 52.5326 7.4873L48.8041 9.64166C48.6634 9.72079 48.5755 9.87029 48.5755 10.0286V14.3287C48.5755 14.4869 48.6634 14.6364 48.8041 14.7156L52.5062 16.826C52.647 16.9052 52.814 16.9052 52.9459 16.826L55.1882 15.5775C55.2586 15.5422 55.3026 15.4631 55.3026 15.384C55.3026 15.3048 55.2586 15.2257 55.1882 15.1905L51.4422 13.0361C51.3719 12.9922 51.3279 12.9218 51.3279 12.8426V11.4972C51.3279 11.4181 51.3719 11.339 51.4422 11.3037L52.6117 10.6354C52.646 10.6139 52.6856 10.6024 52.7261 10.6024C52.7665 10.6024 52.8061 10.6139 52.8404 10.6354L54.0099 11.3037C54.0803 11.3477 54.1242 11.418 54.1242 11.4972V12.5525C54.1242 12.6316 54.1682 12.7107 54.2385 12.7459C54.3089 12.7898 54.3968 12.7898 54.4672 12.7459L56.6832 11.4532V11.4532Z" fill="#333333"/>
<path d="M52.6997 11.2509C52.7127 11.2423 52.728 11.2378 52.7436 11.2378C52.7593 11.2378 52.7745 11.2423 52.7876 11.2509L53.4999 11.6642C53.5263 11.6817 53.5439 11.7081 53.5439 11.7434V12.5699C53.5439 12.6051 53.5263 12.6315 53.4999 12.6491L52.7876 13.0624C52.7745 13.071 52.7593 13.0755 52.7436 13.0755C52.728 13.0755 52.7127 13.071 52.6997 13.0624L51.9874 12.6491C51.961 12.6315 51.9434 12.6051 51.9434 12.5699V11.7434C51.9434 11.7081 51.961 11.6817 51.9874 11.6642L52.6997 11.2509V11.2509Z" fill="#539E43"/>
<mask id="mask0" mask-type="alpha" maskUnits="userSpaceOnUse" x="29" y="8" width="9" height="10">
<path d="M33.3704 8.05935C33.3021 8.02045 33.2248 8 33.1462 8C33.0676 8 32.9903 8.02045 32.922 8.05935L29.2199 10.1961C29.0791 10.2752 29 10.4247 29 10.583V14.8655C29 15.0238 29.088 15.1733 29.2199 15.2524L32.922 17.3893C32.9903 17.4281 33.0676 17.4486 33.1462 17.4486C33.2248 17.4486 33.3021 17.4281 33.3704 17.3893L37.0726 15.2524C37.2133 15.1733 37.2925 15.0238 37.2925 14.8655V10.583C37.2925 10.4248 37.2044 10.2753 37.0726 10.1961L33.3704 8.05935Z" fill="white"/>
</mask>
<g mask="url(#mask0)">
<path d="M33.3704 8.05935C33.3021 8.02045 33.2248 8 33.1462 8C33.0676 8 32.9903 8.02045 32.922 8.05935L29.2199 10.1961C29.0791 10.2752 29 10.4247 29 10.583V14.8655C29 15.0238 29.088 15.1733 29.2199 15.2524L32.922 17.3893C32.9903 17.4281 33.0676 17.4486 33.1462 17.4486C33.2248 17.4486 33.3021 17.4281 33.3704 17.3893L37.0726 15.2524C37.2133 15.1733 37.2925 15.0238 37.2925 14.8655V10.583C37.2925 10.4248 37.2044 10.2753 37.0726 10.1961L33.3704 8.05935Z" fill="url(#paint0_linear)"/>
<path d="M37.0813 10.1961L33.3617 8.05936C33.3251 8.0409 33.2868 8.02617 33.2473 8.01538L29.0791 15.1558C29.1137 15.198 29.1554 15.2337 29.2023 15.2614L32.922 17.3982C33.0275 17.4598 33.1506 17.4774 33.2649 17.4421L37.1781 10.2842C37.1517 10.249 37.1165 10.2225 37.0813 10.1962V10.1961Z" fill="url(#paint1_linear)"/>
<path fill-rule="evenodd" clip-rule="evenodd" d="M37.0902 15.2525C37.1957 15.1909 37.2748 15.0854 37.3101 14.9711L33.2297 8.00654C33.1241 7.98896 33.0098 7.99771 32.9132 8.05927L29.2198 10.1874L33.2033 17.4509C33.2612 17.4414 33.3175 17.4236 33.3703 17.3981L37.0901 15.2525L37.0902 15.2525Z" fill="url(#paint2_linear)"/>
<path fill-rule="evenodd" clip-rule="evenodd" d="M37.0902 15.2525L33.3792 17.3893C33.3269 17.416 33.2704 17.4339 33.2122 17.4421L33.2825 17.574L37.3979 15.191V15.1382L37.2924 14.9623C37.2748 15.0854 37.1957 15.1909 37.0902 15.2525V15.2525Z" fill="url(#paint3_linear)"/>
<path fill-rule="evenodd" clip-rule="evenodd" d="M37.0902 15.2525L33.3792 17.3893C33.3269 17.416 33.2704 17.4339 33.2122 17.4421L33.2825 17.574L37.3979 15.191V15.1382L37.2924 14.9623C37.2748 15.0854 37.1957 15.1909 37.0902 15.2525V15.2525Z" fill="url(#paint4_linear)"/>
</g>
<defs>
<linearGradient id="paint0_linear" x1="34.6545" y1="9.65228" x2="30.5966" y2="16.0284" gradientUnits="userSpaceOnUse">
<stop stop-color="#41873F"/>
<stop offset="0.3288" stop-color="#418B3D"/>
<stop offset="0.6352" stop-color="#419637"/>
<stop offset="0.9319" stop-color="#3FA92D"/>
<stop offset="1" stop-color="#3FAE2A"/>
</linearGradient>
<linearGradient id="paint1_linear" x1="32.5841" y1="13.2259" x2="42.7468" y2="7.70451" gradientUnits="userSpaceOnUse">
<stop offset="0.1376" stop-color="#41873F"/>
<stop offset="0.4032" stop-color="#54A044"/>
<stop offset="0.7136" stop-color="#66B848"/>
<stop offset="0.9081" stop-color="#6CC04A"/>
</linearGradient>
<linearGradient id="paint2_linear" x1="28.8647" y1="12.7244" x2="37.4313" y2="12.7244" gradientUnits="userSpaceOnUse">
<stop offset="0.09192" stop-color="#6CC04A"/>
<stop offset="0.2864" stop-color="#66B848"/>
<stop offset="0.5968" stop-color="#54A044"/>
<stop offset="0.8624" stop-color="#41873F"/>
</linearGradient>
<linearGradient id="paint3_linear" x1="28.8648" y1="16.2753" x2="37.4313" y2="16.2753" gradientUnits="userSpaceOnUse">
<stop offset="0.09192" stop-color="#6CC04A"/>
<stop offset="0.2864" stop-color="#66B848"/>
<stop offset="0.5968" stop-color="#54A044"/>
<stop offset="0.8624" stop-color="#41873F"/>
</linearGradient>
<linearGradient id="paint4_linear" x1="38.6793" y1="9.44977" x2="36.5091" y2="20.8217" gradientUnits="userSpaceOnUse">
<stop stop-color="#41873F"/>
<stop offset="0.3288" stop-color="#418B3D"/>
<stop offset="0.6352" stop-color="#419637"/>
<stop offset="0.9319" stop-color="#3FA92D"/>
<stop offset="1" stop-color="#3FAE2A"/>
</linearGradient>
</defs>
</svg>
