<svg width="47" height="40" viewBox="0 0 47 40" fill="none" xmlns="http://www.w3.org/2000/svg">
<path d="M36.0679 36H4.24328C1.88826 36 0 33.975 0 31.5V4.5C0 2.0025 1.88826 0 4.24328 0H16.9731L21.2164 4.5H36.0679C38.3953 4.5 40.3112 6.53175 40.3112 9H4.24328V31.5L8.78359 13.5H45L40.1627 32.625C39.6747 34.5825 38.0198 36 36.0679 36Z" fill="#8BC34A"/>
<path d="M36 15C35.67 15 35.3278 15.0862 35.0467 15.2463L25.9533 20.5419C25.3667 20.8867 25 21.5271 25 22.2167V32.7833C25 33.4729 25.3667 34.1133 25.9533 34.4581L28.3367 35.8374C29.4978 36.4039 29.8889 36.4163 30.4267 36.4163C32.1378 36.4163 33.1278 35.3695 33.1278 33.5468V23.1158C33.1278 22.968 33.0056 22.8448 32.8589 22.8448H31.7222C31.5633 22.8448 31.4411 22.968 31.4411 23.1158V33.5468C31.4411 34.3596 30.61 35.1601 29.2778 34.4828L26.7722 33.0419C26.6867 32.9803 26.6378 32.8818 26.6378 32.7833V22.2167C26.6378 22.1059 26.6867 22.0074 26.7722 21.9581L35.8656 16.6749C35.9389 16.6256 36.0611 16.6256 36.1344 16.6749L45.2278 21.9581C45.3133 22.0074 45.3622 22.1059 45.3622 22.2167V32.7833C45.3622 32.8818 45.3133 32.9803 45.2278 33.0419L36.1344 38.3251C36.0611 38.3744 35.9389 38.3744 35.8533 38.3251L33.5556 36.9212C33.4578 36.8842 33.36 36.8719 33.2989 36.9089C32.6511 37.2783 32.5289 37.3522 31.93 37.5369C31.7833 37.5862 31.5511 37.6724 32.0156 37.931L35.0467 39.7414C35.34 39.9138 35.6578 40 36 40C36.3422 40 36.66 39.9138 36.9533 39.7414L46.0467 34.4581C46.6333 34.1133 47 33.4729 47 32.7833V22.2167C47 21.5271 46.6333 20.8867 46.0467 20.5419L36.9533 15.2463C36.6722 15.0862 36.3422 15 36 15ZM38.4444 22.5739C35.8533 22.5739 34.3011 23.67 34.3011 25.5172C34.3011 27.5 35.8411 28.0788 38.3344 28.3251C41.3044 28.6207 41.5367 29.064 41.5367 29.6552C41.5367 30.6773 40.7178 31.1084 38.8111 31.1084C36.3911 31.1084 35.8778 30.5049 35.6944 29.298C35.67 29.1749 35.56 29.0764 35.4256 29.0764H34.2522C34.1056 29.0764 33.9956 29.1872 33.9956 29.3473C33.9956 30.8744 34.8267 32.7217 38.8111 32.7217C41.6833 32.7217 43.3333 31.5764 43.3333 29.5813C43.3333 27.5985 42.0133 27.0813 39.2144 26.6995C36.3911 26.3301 36.11 26.133 36.11 25.468C36.11 24.9138 36.3544 24.1749 38.4444 24.1749C40.2778 24.1749 40.9989 24.5813 41.28 25.8498C41.3044 25.9729 41.4144 26.0591 41.5367 26.0591H42.7222C42.7833 26.0591 42.8567 26.0345 42.9056 25.9729C42.9544 25.9236 42.9911 25.8498 42.9667 25.7759C42.7956 23.5837 41.3533 22.5739 38.4444 22.5739Z" fill="white"/>
</svg>
