<svg width="74" height="32" viewBox="0 0 74 32" fill="none" xmlns="http://www.w3.org/2000/svg">
<path d="M0 15.1918C0 7.35388 6.35388 1 14.1918 1H59.8082C67.6461 1 74 7.35388 74 15.1918V15.1918C74 23.0297 67.6461 29.3836 59.8082 29.3836H14.1918C6.35388 29.3836 0 23.0297 0 15.1918V15.1918Z" fill="#A3FF82"/>
<g filter="url(#filter0_d)">
<path d="M37.2884 26.8813C37.1562 26.8813 37.0328 26.8461 36.9181 26.7843L35.7457 26.088C35.5694 25.9909 35.6575 25.9557 35.7105 25.9381C35.9485 25.8587 35.9925 25.8411 36.2394 25.7001C36.2658 25.6824 36.3011 25.6912 36.3275 25.7089L37.2267 26.2466C37.262 26.2642 37.3061 26.2642 37.3325 26.2466L40.8499 24.2102C40.8851 24.1926 40.9028 24.1573 40.9028 24.1133V20.0493C40.9028 20.0052 40.8851 19.97 40.8499 19.9523L37.3325 17.9248C37.2972 17.9071 37.2531 17.9071 37.2267 17.9248L33.7093 19.9523C33.6741 19.9699 33.6564 20.014 33.6564 20.0493V24.1132C33.6564 24.1485 33.6741 24.1925 33.7093 24.2102L34.6702 24.7656C35.1904 25.03 35.5165 24.7215 35.5165 24.413V20.4019C35.5165 20.349 35.5606 20.2961 35.6223 20.2961H36.0719C36.1248 20.2961 36.1777 20.3402 36.1777 20.4019V24.413C36.1777 25.1093 35.7986 25.5149 35.1374 25.5149C34.9347 25.5149 34.776 25.5149 34.3264 25.2945L33.4008 24.7656C33.1716 24.6334 33.0305 24.3865 33.0305 24.122V20.0581C33.0305 19.7937 33.1716 19.5468 33.4008 19.4146L36.9181 17.3782C37.1386 17.2548 37.4383 17.2548 37.6587 17.3782L41.176 19.4146C41.4053 19.5468 41.5464 19.7937 41.5464 20.0581V24.122C41.5464 24.3865 41.4053 24.6334 41.176 24.7656L37.6587 26.802C37.5441 26.8549 37.4119 26.8813 37.2885 26.8813H37.2884ZM38.3727 24.0868C36.83 24.0868 36.5127 23.3816 36.5127 22.7821C36.5127 22.7292 36.5567 22.6763 36.6185 22.6763H37.0769C37.1297 22.6763 37.1738 22.7116 37.1738 22.7645C37.2444 23.2317 37.4471 23.4609 38.3816 23.4609C39.122 23.4609 39.4395 23.2934 39.4395 22.8967C39.4395 22.6675 39.3512 22.5 38.1964 22.3854C37.2355 22.2884 36.6361 22.0769 36.6361 21.3099C36.6361 20.5958 37.2356 20.1727 38.2405 20.1727C39.3689 20.1727 39.9243 20.5606 39.9948 21.4068C39.9948 21.4333 39.986 21.4597 39.9684 21.4862C39.9507 21.5038 39.9243 21.5214 39.8978 21.5214H39.4394C39.3953 21.5214 39.3512 21.4862 39.3425 21.4421C39.2367 20.9573 38.9634 20.7986 38.2405 20.7986C37.4295 20.7986 37.3325 21.0807 37.3325 21.2922C37.3325 21.5479 37.4471 21.6272 38.5402 21.7683C39.6245 21.9094 40.1359 22.1121 40.1359 22.8702C40.127 23.646 39.4923 24.0868 38.3727 24.0868Z" fill="#539E43"/>
<path d="M26.3748 10.9869C26.3748 10.8283 26.2866 10.6783 26.1456 10.599L22.4078 8.44804C22.346 8.41273 22.2755 8.39511 22.205 8.38626H22.1697C22.0993 8.38626 22.0287 8.41273 21.967 8.44804L18.2292 10.599C18.0881 10.6783 18 10.8282 18 10.9869L18.0088 16.7699C18.0088 16.8492 18.0529 16.9285 18.1234 16.9639C18.194 17.0079 18.2821 17.0079 18.3438 16.9639L20.5654 15.6944C20.7064 15.6151 20.7946 15.4652 20.7946 15.3065V12.6002C20.7946 12.4415 20.8827 12.2916 21.0238 12.2123L21.967 11.6657C22.0375 11.6216 22.1169 11.6039 22.1962 11.6039C22.2755 11.6039 22.3549 11.6216 22.4166 11.6657L23.3599 12.2123C23.501 12.2916 23.5891 12.4414 23.5891 12.6002V15.3065C23.5891 15.4652 23.6772 15.6151 23.8183 15.6944L26.0398 16.9639C26.1103 17.0079 26.1984 17.0079 26.269 16.9639C26.3395 16.9285 26.3836 16.8492 26.3836 16.7699L26.3748 10.9869Z" fill="#333333"/>
<path d="M44.3408 3.02649C44.2704 2.99117 44.1822 2.99117 44.1204 3.02649C44.0499 3.07057 44.0058 3.14105 44.0058 3.22038V8.95055C44.0058 9.0034 43.9795 9.05626 43.9265 9.09158C43.8737 9.11797 43.8207 9.11797 43.7679 9.09158L42.8334 8.55384C42.7649 8.51483 42.6874 8.49432 42.6086 8.49432C42.5298 8.49432 42.4523 8.51483 42.3838 8.55384L38.646 10.7136C38.505 10.793 38.4168 10.9429 38.4168 11.1015V15.4123C38.4168 15.5709 38.505 15.7209 38.646 15.8002L42.3838 17.96C42.4523 17.999 42.5298 18.0195 42.6086 18.0195C42.6874 18.0195 42.7649 17.999 42.8334 17.96L46.5712 15.8002C46.7122 15.7209 46.8004 15.571 46.8004 15.4123V4.66617C46.8004 4.49867 46.7122 4.34887 46.5712 4.26947L44.3409 3.02649H44.3408ZM43.9971 13.993C43.9971 14.0371 43.9795 14.0723 43.9441 14.09L42.6659 14.8304C42.6481 14.8392 42.6285 14.8437 42.6086 14.8437C42.5887 14.8437 42.5691 14.8392 42.5513 14.8304L41.2731 14.09C41.2377 14.0723 41.2201 14.0283 41.2201 13.993V12.512C41.2201 12.4679 41.2377 12.4327 41.2731 12.415L42.5513 11.6745C42.5691 11.6658 42.5887 11.6612 42.6086 11.6612C42.6285 11.6612 42.6481 11.6658 42.6659 11.6745L43.9441 12.415C43.9795 12.4326 43.9971 12.4767 43.9971 12.512V13.993Z" fill="#333333"/>
<path d="M56.7796 12.4767C56.9207 12.3974 57 12.2475 57 12.0888V11.0398C57 10.8811 56.9118 10.7312 56.7796 10.6519L53.0682 8.50096C52.9997 8.46197 52.9223 8.44147 52.8435 8.44147C52.7646 8.44147 52.6872 8.46197 52.6187 8.50096L48.8809 10.6607C48.7398 10.74 48.6517 10.8899 48.6517 11.0486V15.3594C48.6517 15.518 48.7398 15.6679 48.8809 15.7473L52.5922 17.863C52.7333 17.9423 52.9007 17.9423 53.033 17.863L55.2809 16.6113C55.3515 16.576 55.3955 16.4967 55.3955 16.4173C55.3955 16.338 55.3515 16.2587 55.2809 16.2234L51.5255 14.0636C51.455 14.0195 51.4109 13.949 51.4109 13.8697V12.5209C51.4109 12.4416 51.455 12.3622 51.5255 12.3269L52.698 11.6569C52.7323 11.6353 52.7721 11.6239 52.8126 11.6239C52.8532 11.6239 52.8929 11.6353 52.9272 11.6569L54.0996 12.3269C54.1702 12.371 54.2143 12.4415 54.2143 12.5209V13.5788C54.2143 13.6581 54.2584 13.7374 54.3288 13.7726C54.3994 13.8167 54.4875 13.8167 54.5581 13.7726L56.7796 12.4767V12.4767Z" fill="#333333"/>
<path d="M52.7862 12.274C52.7993 12.2654 52.8146 12.2608 52.8302 12.2608C52.8459 12.2608 52.8612 12.2654 52.8743 12.274L53.5884 12.6883C53.6148 12.7059 53.6325 12.7323 53.6325 12.7677V13.5963C53.6325 13.6315 53.6148 13.658 53.5884 13.6756L52.8743 14.09C52.8612 14.0986 52.8459 14.1032 52.8302 14.1032C52.8146 14.1032 52.7993 14.0986 52.7862 14.09L52.0721 13.6756C52.0456 13.658 52.028 13.6315 52.028 13.5963V12.7677C52.028 12.7323 52.0456 12.7059 52.0721 12.6883L52.7862 12.274V12.274Z" fill="#539E43"/>
<mask id="mask0" mask-type="alpha" maskUnits="userSpaceOnUse" x="28" y="8" width="9" height="10">
<path d="M32.625 8.5186C32.5565 8.47961 32.479 8.45911 32.4002 8.45911C32.3214 8.45911 32.2439 8.47961 32.1754 8.5186L28.4641 10.6606C28.323 10.74 28.2437 10.8898 28.2437 11.0485V15.3417C28.2437 15.5004 28.3318 15.6502 28.4641 15.7296L32.1754 17.8718C32.2439 17.9108 32.3214 17.9313 32.4002 17.9313C32.479 17.9313 32.5565 17.9108 32.625 17.8718L36.3364 15.7296C36.4774 15.6502 36.5568 15.5004 36.5568 15.3417V11.0486C36.5568 10.8899 36.4686 10.74 36.3364 10.6607L32.625 8.5186Z" fill="white"/>
</mask>
<g mask="url(#mask0)">
<path d="M32.625 8.5186C32.5565 8.47961 32.479 8.45911 32.4002 8.45911C32.3214 8.45911 32.2439 8.47961 32.1754 8.5186L28.4641 10.6606C28.323 10.74 28.2437 10.8898 28.2437 11.0485V15.3417C28.2437 15.5004 28.3318 15.6502 28.4641 15.7296L32.1754 17.8718C32.2439 17.9108 32.3214 17.9313 32.4002 17.9313C32.479 17.9313 32.5565 17.9108 32.625 17.8718L36.3364 15.7296C36.4774 15.6502 36.5568 15.5004 36.5568 15.3417V11.0486C36.5568 10.8899 36.4686 10.74 36.3364 10.6607L32.625 8.5186Z" fill="url(#paint0_linear)"/>
<path d="M36.3452 10.6607L32.6162 8.5186C32.5796 8.5001 32.5412 8.48533 32.5016 8.47452L28.323 15.6328C28.3576 15.675 28.3994 15.7109 28.4465 15.7386L32.1754 17.8808C32.2812 17.9425 32.4046 17.9601 32.5192 17.9248L36.4422 10.749C36.4157 10.7137 36.3804 10.6872 36.3452 10.6608V10.6607Z" fill="url(#paint1_linear)"/>
<path fill-rule="evenodd" clip-rule="evenodd" d="M36.354 15.7296C36.4598 15.6679 36.5391 15.5621 36.5744 15.4476L32.4839 8.46566C32.3781 8.44805 32.2634 8.45682 32.1666 8.51852L28.464 10.6519L32.4574 17.9335C32.5155 17.924 32.5719 17.9062 32.6249 17.8807L36.3539 15.7297L36.354 15.7296Z" fill="url(#paint2_linear)"/>
<path fill-rule="evenodd" clip-rule="evenodd" d="M36.354 15.7297L32.6338 17.8719C32.5813 17.8986 32.5247 17.9165 32.4663 17.9247L32.5369 18.057L36.6625 15.668V15.6151L36.5567 15.4388C36.5391 15.5622 36.4598 15.668 36.354 15.7297V15.7297Z" fill="url(#paint3_linear)"/>
<path fill-rule="evenodd" clip-rule="evenodd" d="M36.354 15.7297L32.6338 17.8719C32.5813 17.8986 32.5247 17.9165 32.4663 17.9247L32.5369 18.057L36.6625 15.668V15.6151L36.5567 15.4388C36.5391 15.5622 36.4598 15.668 36.354 15.7297V15.7297Z" fill="url(#paint4_linear)"/>
</g>
</g>
<defs>
<filter id="filter0_d" x="14" y="0" width="47" height="31.8813" filterUnits="userSpaceOnUse" color-interpolation-filters="sRGB">
<feFlood flood-opacity="0" result="BackgroundImageFix"/>
<feColorMatrix in="SourceAlpha" type="matrix" values="0 0 0 0 0 0 0 0 0 0 0 0 0 0 0 0 0 0 127 0"/>
<feOffset dy="1"/>
<feGaussianBlur stdDeviation="2"/>
<feColorMatrix type="matrix" values="0 0 0 0 0 0 0 0 0 0 0 0 0 0 0 0 0 0 0.25 0"/>
<feBlend mode="normal" in2="BackgroundImageFix" result="effect1_dropShadow"/>
<feBlend mode="normal" in="SourceGraphic" in2="effect1_dropShadow" result="shape"/>
</filter>
<linearGradient id="paint0_linear" x1="33.9122" y1="10.1155" x2="29.8443" y2="16.5075" gradientUnits="userSpaceOnUse">
<stop stop-color="#41873F"/>
<stop offset="0.3288" stop-color="#418B3D"/>
<stop offset="0.6352" stop-color="#419637"/>
<stop offset="0.9319" stop-color="#3FA92D"/>
<stop offset="1" stop-color="#3FAE2A"/>
</linearGradient>
<linearGradient id="paint1_linear" x1="31.8367" y1="13.6981" x2="42.0248" y2="8.16287" gradientUnits="userSpaceOnUse">
<stop offset="0.1376" stop-color="#41873F"/>
<stop offset="0.4032" stop-color="#54A044"/>
<stop offset="0.7136" stop-color="#66B848"/>
<stop offset="0.9081" stop-color="#6CC04A"/>
</linearGradient>
<linearGradient id="paint2_linear" x1="28.1081" y1="13.1953" x2="36.696" y2="13.1953" gradientUnits="userSpaceOnUse">
<stop offset="0.09192" stop-color="#6CC04A"/>
<stop offset="0.2864" stop-color="#66B848"/>
<stop offset="0.5968" stop-color="#54A044"/>
<stop offset="0.8624" stop-color="#41873F"/>
</linearGradient>
<linearGradient id="paint3_linear" x1="28.1081" y1="16.7551" x2="36.696" y2="16.7551" gradientUnits="userSpaceOnUse">
<stop offset="0.09192" stop-color="#6CC04A"/>
<stop offset="0.2864" stop-color="#66B848"/>
<stop offset="0.5968" stop-color="#54A044"/>
<stop offset="0.8624" stop-color="#41873F"/>
</linearGradient>
<linearGradient id="paint4_linear" x1="37.9471" y1="9.9125" x2="35.7715" y2="21.3128" gradientUnits="userSpaceOnUse">
<stop stop-color="#41873F"/>
<stop offset="0.3288" stop-color="#418B3D"/>
<stop offset="0.6352" stop-color="#419637"/>
<stop offset="0.9319" stop-color="#3FA92D"/>
<stop offset="1" stop-color="#3FAE2A"/>
</linearGradient>
</defs>
</svg>
