<svg width="146" height="56" viewBox="0 0 146 56" fill="none" xmlns="http://www.w3.org/2000/svg">
<path d="M0 17C0 7.61116 7.61116 0 17 0H129C138.389 0 146 7.61116 146 17V39C146 48.3888 138.389 56 129 56H17C7.61116 56 0 48.3888 0 39V17Z" fill="#A3FF82"/>
<g filter="url(#filter0_d)">
<path d="M72.9608 51C72.7007 51 72.4578 50.9307 72.2322 50.8092L69.9248 49.4387C69.5777 49.2477 69.7512 49.1784 69.8554 49.1437C70.3238 48.9876 70.4105 48.9528 70.8963 48.6753C70.9484 48.6405 71.0179 48.6579 71.0698 48.6926L72.8395 49.7509C72.9089 49.7856 72.9956 49.7856 73.0476 49.7509L79.9701 45.7432C80.0395 45.7085 80.0743 45.639 80.0743 45.5524V37.5543C80.0743 37.4673 80.0395 37.3981 79.9701 37.3633L73.0476 33.373C72.9782 33.3381 72.8915 33.3381 72.8395 33.373L65.917 37.3633C65.8476 37.398 65.8128 37.4848 65.8128 37.5541V45.5522C65.8128 45.6217 65.8476 45.7083 65.917 45.7432L67.8081 46.8361C68.8318 47.3566 69.4737 46.7494 69.4737 46.1422V38.2481C69.4737 38.1441 69.5604 38.0399 69.6819 38.0399H70.5666C70.6708 38.0399 70.7749 38.1266 70.7749 38.2481V46.1422C70.7749 47.5127 70.0288 48.3109 68.7276 48.3109C68.3286 48.3109 68.0163 48.3109 67.1314 47.877L65.3098 46.8361C64.8587 46.576 64.5811 46.0901 64.5811 45.5696V37.5715C64.5811 37.0511 64.8587 36.5652 65.3098 36.305L72.2322 32.2972C72.666 32.0544 73.2559 32.0544 73.6896 32.2972L80.612 36.305C81.0631 36.5652 81.3408 37.0511 81.3408 37.5715V45.5696C81.3408 46.0901 81.0631 46.576 80.612 46.8361L73.6896 50.8439C73.464 50.9481 73.2039 51 72.961 51H72.9608ZM75.0948 45.5003C72.0588 45.5003 71.4342 44.1123 71.4342 42.9326C71.4342 42.8284 71.5209 42.7244 71.6424 42.7244H72.5446C72.6486 42.7244 72.7353 42.7937 72.7353 42.8979C72.8742 43.8173 73.2732 44.2684 75.1123 44.2684C76.5696 44.2684 77.1943 43.9388 77.1943 43.158C77.1943 42.7069 77.0207 42.3774 74.7479 42.1518C72.8568 41.9609 71.677 41.5446 71.677 40.0352C71.677 38.6298 72.8569 37.797 74.8347 37.797C77.0553 37.797 78.1485 38.5605 78.2873 40.2258C78.2873 40.2781 78.2699 40.33 78.2352 40.3821C78.2004 40.4168 78.1485 40.4515 78.0964 40.4515H77.1942C77.1074 40.4515 77.0207 40.3821 77.0034 40.2953C76.7952 39.3412 76.2573 39.0288 74.8347 39.0288C73.2385 39.0288 73.0476 39.5841 73.0476 40.0004C73.0476 40.5036 73.2732 40.6597 75.4245 40.9372C77.5585 41.215 78.5649 41.614 78.5649 43.1059C78.5475 44.6328 77.2984 45.5003 75.0948 45.5003Z" fill="#539E43"/>
<path d="M51.4821 19.7189C51.4821 19.4066 51.3086 19.1115 51.031 18.9554L43.6748 14.7221C43.5532 14.6526 43.4145 14.618 43.2758 14.6006H43.2063C43.0676 14.6006 42.9288 14.6526 42.8073 14.7221L35.4511 18.9554C35.1734 19.1115 35 19.4065 35 19.7189L35.0174 31.1001C35.0174 31.2562 35.1042 31.4123 35.2429 31.4818C35.3817 31.5686 35.5551 31.5686 35.6767 31.4818L40.0488 28.9835C40.3264 28.8274 40.4999 28.5324 40.4999 28.2201V22.8938C40.4999 22.5815 40.6733 22.2866 40.951 22.1305L42.8073 21.0547C42.9462 20.968 43.1023 20.9331 43.2584 20.9331C43.4145 20.9331 43.5706 20.968 43.6922 21.0547L45.5485 22.1305C45.8263 22.2866 45.9996 22.5814 45.9996 22.8938V28.2201C45.9996 28.5324 46.1732 28.8274 46.4507 28.9835L50.8228 31.4818C50.9617 31.5686 51.1351 31.5686 51.2739 31.4818C51.4128 31.4123 51.4995 31.2562 51.4995 31.1001L51.4821 19.7189Z" fill="#333333"/>
<path d="M86.8406 4.05213C86.7019 3.98262 86.5283 3.98262 86.4067 4.05213C86.268 4.13889 86.1813 4.2776 86.1813 4.43372V15.7111C86.1813 15.8151 86.1293 15.9191 86.0252 15.9886C85.9211 16.0406 85.8169 16.0406 85.7129 15.9886L83.8739 14.9303C83.739 14.8536 83.5865 14.8132 83.4314 14.8132C83.2762 14.8132 83.1238 14.8536 82.9889 14.9303L75.6327 19.181C75.3552 19.3371 75.1816 19.6321 75.1816 19.9443V28.4282C75.1816 28.7404 75.3552 29.0355 75.6327 29.1917L82.9889 33.4423C83.1238 33.5191 83.2762 33.5594 83.4314 33.5594C83.5865 33.5594 83.739 33.5191 83.8739 33.4423L91.2301 29.1917C91.5076 29.0355 91.6812 28.7406 91.6812 28.4282V7.27914C91.6812 6.94949 91.5076 6.65466 91.2301 6.49839L86.8407 4.05213H86.8406ZM86.164 25.635C86.164 25.7218 86.1293 25.7911 86.0598 25.8258L83.5442 27.2831C83.5091 27.3002 83.4705 27.3092 83.4314 27.3092C83.3923 27.3092 83.3537 27.3002 83.3186 27.2831L80.803 25.8258C80.7335 25.7911 80.6988 25.7043 80.6988 25.635V22.7202C80.6988 22.6335 80.7335 22.5641 80.803 22.5294L83.3186 21.072C83.3537 21.0548 83.3923 21.0459 83.4314 21.0459C83.4705 21.0459 83.5091 21.0548 83.5442 21.072L86.0598 22.5294C86.1293 22.564 86.164 22.6509 86.164 22.7202V25.635Z" fill="#333333"/>
<path d="M111.321 22.6509C111.599 22.4948 111.755 22.1998 111.755 21.8874V19.8229C111.755 19.5106 111.581 19.2157 111.321 19.0596L104.017 14.8263C103.882 14.7496 103.729 14.7092 103.574 14.7092C103.419 14.7092 103.267 14.7496 103.132 14.8263L95.7757 19.0768C95.498 19.2329 95.3246 19.5279 95.3246 19.8403V28.3242C95.3246 28.6364 95.498 28.9314 95.7757 29.0875L103.08 33.2514C103.358 33.4075 103.687 33.4075 103.947 33.2514L108.371 30.788C108.51 30.7185 108.597 30.5624 108.597 30.4063C108.597 30.2501 108.51 30.094 108.371 30.0245L100.98 25.7739C100.842 25.6873 100.755 25.5484 100.755 25.3923V22.7378C100.755 22.5817 100.842 22.4256 100.98 22.3561L103.288 21.0375C103.356 20.995 103.434 20.9724 103.514 20.9724C103.593 20.9724 103.672 20.995 103.739 21.0375L106.047 22.3561C106.185 22.4428 106.272 22.5815 106.272 22.7378V24.8197C106.272 24.9759 106.359 25.132 106.498 25.2013C106.636 25.2881 106.81 25.2881 106.949 25.2013L111.321 22.6509V22.6509Z" fill="#333333"/>
<path d="M103.462 22.2519C103.487 22.2349 103.517 22.2259 103.548 22.2259C103.579 22.2259 103.609 22.2349 103.635 22.2519L105.04 23.0673C105.092 23.1018 105.127 23.1539 105.127 23.2234V24.8543C105.127 24.9236 105.092 24.9757 105.04 25.0104L103.635 25.8258C103.609 25.8427 103.579 25.8518 103.548 25.8518C103.517 25.8518 103.487 25.8427 103.462 25.8258L102.056 25.0104C102.004 24.9757 101.969 24.9236 101.969 24.8543V23.2234C101.969 23.1539 102.004 23.1018 102.056 23.0673L103.462 22.2519V22.2519Z" fill="#539E43"/>
<mask id="mask0" mask-type="alpha" maskUnits="userSpaceOnUse" x="55" y="14" width="17" height="20">
<path d="M63.783 14.861C63.6482 14.7842 63.4957 14.7439 63.3406 14.7439C63.1855 14.7439 63.033 14.7842 62.8982 14.861L55.5941 19.0766C55.3164 19.2327 55.1602 19.5277 55.1602 19.84V28.2893C55.1602 28.6015 55.3338 28.8965 55.5941 29.0526L62.8982 33.2686C63.033 33.3453 63.1855 33.3857 63.3406 33.3857C63.4957 33.3857 63.6482 33.3453 63.783 33.2686L71.0872 29.0526C71.3648 28.8965 71.5211 28.6015 71.5211 28.2893V19.8401C71.5211 19.5279 71.3474 19.2329 71.0872 19.0768L63.783 14.861Z" fill="white"/>
</mask>
<g mask="url(#mask0)">
<path d="M63.783 14.861C63.6482 14.7842 63.4957 14.7439 63.3406 14.7439C63.1855 14.7439 63.033 14.7842 62.8982 14.861L55.5941 19.0766C55.3164 19.2327 55.1602 19.5277 55.1602 19.84V28.2893C55.1602 28.6015 55.3338 28.8965 55.5941 29.0526L62.8982 33.2686C63.033 33.3453 63.1855 33.3857 63.3406 33.3857C63.4957 33.3857 63.6482 33.3453 63.783 33.2686L71.0872 29.0526C71.3648 28.8965 71.5211 28.6015 71.5211 28.2893V19.8401C71.5211 19.5279 71.3474 19.2329 71.0872 19.0768L63.783 14.861Z" fill="url(#paint0_linear)"/>
<path d="M71.1045 19.0768L63.7657 14.861C63.6936 14.8246 63.618 14.7955 63.5401 14.7742L55.3164 28.8622C55.3845 28.9454 55.4668 29.0158 55.5594 29.0704L62.8982 33.2864C63.1064 33.4078 63.3493 33.4425 63.5748 33.373L71.2955 19.2505C71.2434 19.1811 71.1739 19.1289 71.1045 19.077V19.0768Z" fill="url(#paint1_linear)"/>
<path fill-rule="evenodd" clip-rule="evenodd" d="M71.1219 29.0528C71.3301 28.9314 71.4862 28.7231 71.5557 28.4977L63.5053 14.7568C63.297 14.7221 63.0714 14.7394 62.8808 14.8608L55.5939 19.0595L63.4532 33.3902C63.5675 33.3715 63.6785 33.3365 63.7828 33.2862L71.1218 29.0529L71.1219 29.0528Z" fill="url(#paint2_linear)"/>
<path fill-rule="evenodd" clip-rule="evenodd" d="M71.1219 29.0528L63.8004 33.2688C63.697 33.3215 63.5856 33.3566 63.4707 33.3728L63.6096 33.6331L71.7291 28.9315V28.8273L71.5209 28.4803C71.4862 28.7231 71.3301 28.9313 71.1219 29.0528V29.0528Z" fill="url(#paint3_linear)"/>
<path fill-rule="evenodd" clip-rule="evenodd" d="M71.1219 29.0528L63.8004 33.2688C63.697 33.3215 63.5856 33.3566 63.4707 33.3728L63.6096 33.6331L71.7291 28.9315V28.8273L71.5209 28.4803C71.4862 28.7231 71.3301 28.9313 71.1219 29.0528V29.0528Z" fill="url(#paint4_linear)"/>
</g>
</g>
<defs>
<filter id="filter0_d" x="31" y="1" width="84.7546" height="55" filterUnits="userSpaceOnUse" color-interpolation-filters="sRGB">
<feFlood flood-opacity="0" result="BackgroundImageFix"/>
<feColorMatrix in="SourceAlpha" type="matrix" values="0 0 0 0 0 0 0 0 0 0 0 0 0 0 0 0 0 0 127 0"/>
<feOffset dy="1"/>
<feGaussianBlur stdDeviation="2"/>
<feColorMatrix type="matrix" values="0 0 0 0 0 0 0 0 0 0 0 0 0 0 0 0 0 0 0.25 0"/>
<feBlend mode="normal" in2="BackgroundImageFix" result="effect1_dropShadow"/>
<feBlend mode="normal" in="SourceGraphic" in2="effect1_dropShadow" result="shape"/>
</filter>
<linearGradient id="paint0_linear" x1="66.3164" y1="18.0038" x2="58.3103" y2="30.5836" gradientUnits="userSpaceOnUse">
<stop stop-color="#41873F"/>
<stop offset="0.3288" stop-color="#418B3D"/>
<stop offset="0.6352" stop-color="#419637"/>
<stop offset="0.9319" stop-color="#3FA92D"/>
<stop offset="1" stop-color="#3FAE2A"/>
</linearGradient>
<linearGradient id="paint1_linear" x1="62.2316" y1="25.0545" x2="82.2823" y2="14.1609" gradientUnits="userSpaceOnUse">
<stop offset="0.1376" stop-color="#41873F"/>
<stop offset="0.4032" stop-color="#54A044"/>
<stop offset="0.7136" stop-color="#66B848"/>
<stop offset="0.9081" stop-color="#6CC04A"/>
</linearGradient>
<linearGradient id="paint2_linear" x1="54.8933" y1="24.065" x2="71.795" y2="24.065" gradientUnits="userSpaceOnUse">
<stop offset="0.09192" stop-color="#6CC04A"/>
<stop offset="0.2864" stop-color="#66B848"/>
<stop offset="0.5968" stop-color="#54A044"/>
<stop offset="0.8624" stop-color="#41873F"/>
</linearGradient>
<linearGradient id="paint3_linear" x1="54.8935" y1="31.0708" x2="71.7949" y2="31.0708" gradientUnits="userSpaceOnUse">
<stop offset="0.09192" stop-color="#6CC04A"/>
<stop offset="0.2864" stop-color="#66B848"/>
<stop offset="0.5968" stop-color="#54A044"/>
<stop offset="0.8624" stop-color="#41873F"/>
</linearGradient>
<linearGradient id="paint4_linear" x1="74.2573" y1="17.6042" x2="69.9755" y2="40.0408" gradientUnits="userSpaceOnUse">
<stop stop-color="#41873F"/>
<stop offset="0.3288" stop-color="#418B3D"/>
<stop offset="0.6352" stop-color="#419637"/>
<stop offset="0.9319" stop-color="#3FA92D"/>
<stop offset="1" stop-color="#3FAE2A"/>
</linearGradient>
</defs>
</svg>
