<svg width="74" height="29" viewBox="0 0 74 29" fill="none" xmlns="http://www.w3.org/2000/svg">
<path d="M0 14.1918C0 6.35388 6.35388 0 14.1918 0H59.8082C67.6461 0 74 6.35388 74 14.1918V14.1918C74 22.0297 67.6461 28.3836 59.8082 28.3836H14.1918C6.35388 28.3836 0 22.0297 0 14.1918V14.1918Z" fill="#A3FF82"/>
<path d="M37.2884 25.8813C37.1562 25.8813 37.0328 25.8461 36.9181 25.7843L35.7457 25.088C35.5694 24.9909 35.6575 24.9557 35.7105 24.9381C35.9485 24.8587 35.9925 24.8411 36.2394 24.7001C36.2658 24.6824 36.3011 24.6912 36.3275 24.7089L37.2267 25.2466C37.262 25.2642 37.3061 25.2642 37.3325 25.2466L40.8499 23.2102C40.8851 23.1926 40.9028 23.1573 40.9028 23.1133V19.0493C40.9028 19.0052 40.8851 18.97 40.8499 18.9523L37.3325 16.9248C37.2972 16.9071 37.2531 16.9071 37.2267 16.9248L33.7093 18.9523C33.6741 18.9699 33.6564 19.014 33.6564 19.0493V23.1132C33.6564 23.1485 33.6741 23.1925 33.7093 23.2102L34.6702 23.7656C35.1904 24.03 35.5165 23.7215 35.5165 23.413V19.4019C35.5165 19.349 35.5606 19.2961 35.6223 19.2961H36.0719C36.1248 19.2961 36.1777 19.3402 36.1777 19.4019V23.413C36.1777 24.1093 35.7986 24.5149 35.1374 24.5149C34.9347 24.5149 34.776 24.5149 34.3264 24.2945L33.4008 23.7656C33.1716 23.6334 33.0305 23.3865 33.0305 23.122V19.0581C33.0305 18.7937 33.1716 18.5468 33.4008 18.4146L36.9181 16.3782C37.1386 16.2548 37.4383 16.2548 37.6587 16.3782L41.176 18.4146C41.4053 18.5468 41.5464 18.7937 41.5464 19.0581V23.122C41.5464 23.3865 41.4053 23.6334 41.176 23.7656L37.6587 25.802C37.5441 25.8549 37.4119 25.8813 37.2885 25.8813H37.2884ZM38.3727 23.0868C36.83 23.0868 36.5127 22.3816 36.5127 21.7821C36.5127 21.7292 36.5567 21.6763 36.6185 21.6763H37.0769C37.1297 21.6763 37.1738 21.7116 37.1738 21.7645C37.2444 22.2317 37.4471 22.4609 38.3816 22.4609C39.122 22.4609 39.4395 22.2934 39.4395 21.8967C39.4395 21.6675 39.3512 21.5 38.1964 21.3854C37.2355 21.2884 36.6361 21.0769 36.6361 20.3099C36.6361 19.5958 37.2356 19.1727 38.2405 19.1727C39.3689 19.1727 39.9243 19.5606 39.9948 20.4068C39.9948 20.4333 39.986 20.4597 39.9684 20.4862C39.9507 20.5038 39.9243 20.5214 39.8978 20.5214H39.4394C39.3953 20.5214 39.3512 20.4862 39.3425 20.4421C39.2367 19.9573 38.9634 19.7986 38.2405 19.7986C37.4295 19.7986 37.3325 20.0807 37.3325 20.2922C37.3325 20.5479 37.4471 20.6272 38.5402 20.7683C39.6245 20.9094 40.1359 21.1121 40.1359 21.8702C40.127 22.646 39.4923 23.0868 38.3727 23.0868Z" fill="#539E43"/>
<path d="M26.3748 9.98694C26.3748 9.82828 26.2866 9.67833 26.1456 9.599L22.4078 7.44804C22.346 7.41273 22.2755 7.39511 22.205 7.38626H22.1697C22.0993 7.38626 22.0287 7.41273 21.967 7.44804L18.2292 9.599C18.0881 9.67833 18 9.82821 18 9.98694L18.0088 15.7699C18.0088 15.8492 18.0529 15.9285 18.1234 15.9639C18.194 16.0079 18.2821 16.0079 18.3438 15.9639L20.5654 14.6944C20.7064 14.6151 20.7946 14.4652 20.7946 14.3065V11.6002C20.7946 11.4415 20.8827 11.2916 21.0238 11.2123L21.967 10.6657C22.0375 10.6216 22.1169 10.6039 22.1962 10.6039C22.2755 10.6039 22.3549 10.6216 22.4166 10.6657L23.3599 11.2123C23.501 11.2916 23.5891 11.4414 23.5891 11.6002V14.3065C23.5891 14.4652 23.6772 14.6151 23.8183 14.6944L26.0398 15.9639C26.1103 16.0079 26.1984 16.0079 26.269 15.9639C26.3395 15.9285 26.3836 15.8492 26.3836 15.7699L26.3748 9.98694Z" fill="#333333"/>
<path d="M44.3408 2.02649C44.2704 1.99117 44.1822 1.99117 44.1204 2.02649C44.0499 2.07057 44.0058 2.14105 44.0058 2.22038V7.95055C44.0058 8.0034 43.9795 8.05626 43.9265 8.09158C43.8737 8.11797 43.8207 8.11797 43.7679 8.09158L42.8334 7.55384C42.7649 7.51483 42.6874 7.49432 42.6086 7.49432C42.5298 7.49432 42.4523 7.51483 42.3838 7.55384L38.646 9.71364C38.505 9.79297 38.4168 9.94285 38.4168 10.1015V14.4123C38.4168 14.5709 38.505 14.7209 38.646 14.8002L42.3838 16.96C42.4523 16.999 42.5298 17.0195 42.6086 17.0195C42.6874 17.0195 42.7649 16.999 42.8334 16.96L46.5712 14.8002C46.7122 14.7209 46.8004 14.571 46.8004 14.4123V3.66617C46.8004 3.49867 46.7122 3.34887 46.5712 3.26947L44.3409 2.02649H44.3408ZM43.9971 12.993C43.9971 13.0371 43.9795 13.0723 43.9441 13.09L42.6659 13.8304C42.6481 13.8392 42.6285 13.8437 42.6086 13.8437C42.5887 13.8437 42.5691 13.8392 42.5513 13.8304L41.2731 13.09C41.2377 13.0723 41.2201 13.0283 41.2201 12.993V11.512C41.2201 11.4679 41.2377 11.4327 41.2731 11.415L42.5513 10.6745C42.5691 10.6658 42.5887 10.6612 42.6086 10.6612C42.6285 10.6612 42.6481 10.6658 42.6659 10.6745L43.9441 11.415C43.9795 11.4326 43.9971 11.4767 43.9971 11.512V12.993Z" fill="#333333"/>
<path d="M56.7796 11.4767C56.9207 11.3974 57 11.2475 57 11.0888V10.0398C57 9.88113 56.9118 9.73125 56.7796 9.65192L53.0682 7.50096C52.9997 7.46197 52.9223 7.44147 52.8435 7.44147C52.7646 7.44147 52.6872 7.46197 52.6187 7.50096L48.8809 9.66069C48.7398 9.74002 48.6517 9.8899 48.6517 10.0486V14.3594C48.6517 14.518 48.7398 14.6679 48.8809 14.7473L52.5922 16.863C52.7333 16.9423 52.9007 16.9423 53.033 16.863L55.2809 15.6113C55.3515 15.576 55.3955 15.4967 55.3955 15.4173C55.3955 15.338 55.3515 15.2587 55.2809 15.2234L51.5255 13.0636C51.455 13.0195 51.4109 12.949 51.4109 12.8697V11.5209C51.4109 11.4416 51.455 11.3622 51.5255 11.3269L52.698 10.6569C52.7323 10.6353 52.7721 10.6239 52.8126 10.6239C52.8532 10.6239 52.8929 10.6353 52.9272 10.6569L54.0996 11.3269C54.1702 11.371 54.2143 11.4415 54.2143 11.5209V12.5788C54.2143 12.6581 54.2584 12.7374 54.3288 12.7726C54.3994 12.8167 54.4875 12.8167 54.5581 12.7726L56.7796 11.4767V11.4767Z" fill="#333333"/>
<path d="M52.7862 11.274C52.7993 11.2654 52.8146 11.2608 52.8302 11.2608C52.8459 11.2608 52.8612 11.2654 52.8743 11.274L53.5884 11.6883C53.6148 11.7059 53.6325 11.7323 53.6325 11.7677V12.5963C53.6325 12.6315 53.6148 12.658 53.5884 12.6756L52.8743 13.09C52.8612 13.0986 52.8459 13.1032 52.8302 13.1032C52.8146 13.1032 52.7993 13.0986 52.7862 13.09L52.0721 12.6756C52.0456 12.658 52.028 12.6315 52.028 12.5963V11.7677C52.028 11.7323 52.0456 11.7059 52.0721 11.6883L52.7862 11.274V11.274Z" fill="#539E43"/>
<mask id="mask0" mask-type="alpha" maskUnits="userSpaceOnUse" x="28" y="7" width="9" height="10">
<path d="M32.625 7.5186C32.5565 7.47961 32.479 7.45911 32.4002 7.45911C32.3214 7.45911 32.2439 7.47961 32.1754 7.5186L28.4641 9.66064C28.323 9.73996 28.2437 9.88984 28.2437 10.0485V14.3417C28.2437 14.5004 28.3318 14.6502 28.4641 14.7296L32.1754 16.8718C32.2439 16.9108 32.3214 16.9313 32.4002 16.9313C32.479 16.9313 32.5565 16.9108 32.625 16.8718L36.3364 14.7296C36.4774 14.6502 36.5568 14.5004 36.5568 14.3417V10.0486C36.5568 9.88992 36.4686 9.74004 36.3364 9.66071L32.625 7.5186Z" fill="white"/>
</mask>
<g mask="url(#mask0)">
<path d="M32.625 7.5186C32.5565 7.47961 32.479 7.45911 32.4002 7.45911C32.3214 7.45911 32.2439 7.47961 32.1754 7.5186L28.4641 9.66064C28.323 9.73996 28.2437 9.88984 28.2437 10.0485V14.3417C28.2437 14.5004 28.3318 14.6502 28.4641 14.7296L32.1754 16.8718C32.2439 16.9108 32.3214 16.9313 32.4002 16.9313C32.479 16.9313 32.5565 16.9108 32.625 16.8718L36.3364 14.7296C36.4774 14.6502 36.5568 14.5004 36.5568 14.3417V10.0486C36.5568 9.88992 36.4686 9.74004 36.3364 9.66071L32.625 7.5186Z" fill="url(#paint0_linear)"/>
<path d="M36.3452 9.66072L32.6162 7.5186C32.5796 7.5001 32.5412 7.48533 32.5016 7.47452L28.323 14.6328C28.3576 14.675 28.3994 14.7109 28.4465 14.7386L32.1754 16.8808C32.2812 16.9425 32.4046 16.9601 32.5192 16.9248L36.4422 9.74897C36.4157 9.71373 36.3804 9.68718 36.3452 9.66079V9.66072Z" fill="url(#paint1_linear)"/>
<path fill-rule="evenodd" clip-rule="evenodd" d="M36.354 14.7296C36.4598 14.6679 36.5391 14.5621 36.5744 14.4476L32.4839 7.46566C32.3781 7.44805 32.2634 7.45682 32.1666 7.51852L28.464 9.65194L32.4574 16.9335C32.5155 16.924 32.5719 16.9062 32.6249 16.8807L36.3539 14.7297L36.354 14.7296Z" fill="url(#paint2_linear)"/>
<path fill-rule="evenodd" clip-rule="evenodd" d="M36.354 14.7297L32.6338 16.8719C32.5813 16.8986 32.5247 16.9165 32.4663 16.9247L32.5369 17.057L36.6625 14.668V14.6151L36.5567 14.4388C36.5391 14.5622 36.4598 14.668 36.354 14.7297V14.7297Z" fill="url(#paint3_linear)"/>
<path fill-rule="evenodd" clip-rule="evenodd" d="M36.354 14.7297L32.6338 16.8719C32.5813 16.8986 32.5247 16.9165 32.4663 16.9247L32.5369 17.057L36.6625 14.668V14.6151L36.5567 14.4388C36.5391 14.5622 36.4598 14.668 36.354 14.7297V14.7297Z" fill="url(#paint4_linear)"/>
</g>
<defs>
<linearGradient id="paint0_linear" x1="33.9122" y1="9.1155" x2="29.8443" y2="15.5075" gradientUnits="userSpaceOnUse">
<stop stop-color="#41873F"/>
<stop offset="0.3288" stop-color="#418B3D"/>
<stop offset="0.6352" stop-color="#419637"/>
<stop offset="0.9319" stop-color="#3FA92D"/>
<stop offset="1" stop-color="#3FAE2A"/>
</linearGradient>
<linearGradient id="paint1_linear" x1="31.8367" y1="12.6981" x2="42.0248" y2="7.16287" gradientUnits="userSpaceOnUse">
<stop offset="0.1376" stop-color="#41873F"/>
<stop offset="0.4032" stop-color="#54A044"/>
<stop offset="0.7136" stop-color="#66B848"/>
<stop offset="0.9081" stop-color="#6CC04A"/>
</linearGradient>
<linearGradient id="paint2_linear" x1="28.1081" y1="12.1953" x2="36.696" y2="12.1953" gradientUnits="userSpaceOnUse">
<stop offset="0.09192" stop-color="#6CC04A"/>
<stop offset="0.2864" stop-color="#66B848"/>
<stop offset="0.5968" stop-color="#54A044"/>
<stop offset="0.8624" stop-color="#41873F"/>
</linearGradient>
<linearGradient id="paint3_linear" x1="28.1081" y1="15.7551" x2="36.696" y2="15.7551" gradientUnits="userSpaceOnUse">
<stop offset="0.09192" stop-color="#6CC04A"/>
<stop offset="0.2864" stop-color="#66B848"/>
<stop offset="0.5968" stop-color="#54A044"/>
<stop offset="0.8624" stop-color="#41873F"/>
</linearGradient>
<linearGradient id="paint4_linear" x1="37.9471" y1="8.9125" x2="35.7715" y2="20.3128" gradientUnits="userSpaceOnUse">
<stop stop-color="#41873F"/>
<stop offset="0.3288" stop-color="#418B3D"/>
<stop offset="0.6352" stop-color="#419637"/>
<stop offset="0.9319" stop-color="#3FA92D"/>
<stop offset="1" stop-color="#3FAE2A"/>
</linearGradient>
</defs>
</svg>
