<svg width="34" height="35" viewBox="0 0 34 35" fill="none" xmlns="http://www.w3.org/2000/svg">
<path d="M17 33.5C26.1127 33.5 33.5 26.1127 33.5 17C33.5 7.8873 26.1127 0.5 17 0.5C7.8873 0.5 0.5 7.8873 0.5 17C0.5 26.1127 7.8873 33.5 17 33.5Z" fill="#A3FF82" stroke="white"/>
<g filter="url(#filter0_d)">
<path d="M16.994 4C16.629 4 16.264 4.09 15.949 4.27L6.04 9.99C5.4 10.36 5 11.06 5 11.8V22.18C5 22.93 5.4 23.62 6.04 23.99L8.64 25.49C9.9 26.11 10.35 26.11 10.92 26.11C12.79 26.11 13.86 24.98 13.86 23.02V12.31C13.86 12.2331 13.8294 12.1593 13.7751 12.1049C13.7207 12.0506 13.6469 12.02 13.57 12.02H12.32C12.2818 12.0195 12.2438 12.0266 12.2084 12.041C12.173 12.0554 12.1408 12.0767 12.1137 12.1037C12.0867 12.1308 12.0654 12.163 12.051 12.1984C12.0366 12.2338 12.0295 12.2718 12.03 12.31V23.01C12.03 23.89 11.12 24.75 9.65 24.02L6.93 22.45C6.88122 22.4239 6.84052 22.3849 6.81232 22.3373C6.78411 22.2897 6.76948 22.2353 6.77 22.18V11.81C6.77 11.69 6.83 11.59 6.93 11.53L16.84 5.81C16.8864 5.78067 16.9401 5.7651 16.995 5.7651C17.0499 5.7651 17.1036 5.78067 17.15 5.81L27.06 11.53C27.16 11.59 27.22 11.69 27.22 11.8V22.18C27.22 22.29 27.16 22.4 27.07 22.45L17.15 28.18C17.102 28.2046 17.0489 28.2174 16.995 28.2174C16.9411 28.2174 16.888 28.2046 16.84 28.18L14.29 26.67C14.2558 26.6448 14.2152 26.6296 14.1728 26.6261C14.1305 26.6225 14.0879 26.6308 14.05 26.65C13.34 27.05 13.21 27.1 12.55 27.33C12.39 27.38 12.14 27.48 12.64 27.76L15.95 29.72C16.27 29.9 16.63 30 16.99 30C17.36 30 17.72 29.9 18.04 29.72L27.96 23.99C28.6 23.62 29 22.93 29 22.18V11.81C29 11.06 28.6 10.37 27.96 10L18.04 4.27C17.724 4.09 17.36 4 16.994 4ZM19.66 12.006C16.83 12.006 15.14 13.206 15.14 15.206C15.14 17.376 16.82 17.974 19.54 18.244C22.79 18.564 23.04 19.046 23.04 19.686C23.04 20.786 22.15 21.256 20.06 21.256C17.43 21.256 16.85 20.595 16.66 19.295C16.6503 19.2279 16.6166 19.1665 16.5651 19.1224C16.5136 19.0783 16.4478 19.0543 16.38 19.055H15.09C15.0157 19.055 14.9445 19.0845 14.892 19.137C14.8395 19.1895 14.81 19.2607 14.81 19.335C14.81 21.005 15.72 22.995 20.06 22.995C23.2 22.995 25 21.755 25 19.595C25 17.455 23.55 16.885 20.51 16.475C17.42 16.075 17.11 15.865 17.11 15.145C17.11 14.545 17.38 13.755 19.66 13.755C21.69 13.755 22.45 14.195 22.76 15.565C22.79 15.695 22.9 15.795 23.04 15.795H24.33C24.41 15.795 24.48 15.755 24.54 15.695C24.5672 15.6658 24.5876 15.6309 24.5997 15.5929C24.6118 15.5548 24.6153 15.5146 24.61 15.475C24.41 13.115 22.84 12.006 19.66 12.006Z" fill="black"/>
</g>
<defs>
<filter id="filter0_d" x="1" y="1" width="32" height="34" filterUnits="userSpaceOnUse" color-interpolation-filters="sRGB">
<feFlood flood-opacity="0" result="BackgroundImageFix"/>
<feColorMatrix in="SourceAlpha" type="matrix" values="0 0 0 0 0 0 0 0 0 0 0 0 0 0 0 0 0 0 127 0"/>
<feOffset dy="1"/>
<feGaussianBlur stdDeviation="2"/>
<feColorMatrix type="matrix" values="0 0 0 0 0 0 0 0 0 0 0 0 0 0 0 0 0 0 0.25 0"/>
<feBlend mode="normal" in2="BackgroundImageFix" result="effect1_dropShadow"/>
<feBlend mode="normal" in="SourceGraphic" in2="effect1_dropShadow" result="shape"/>
</filter>
</defs>
</svg>
