<svg width="74" height="32" viewBox="0 0 74 32" fill="none" xmlns="http://www.w3.org/2000/svg">
<path d="M0 15.1918C0 7.35388 6.35388 1 14.1918 1H59.8082C67.6461 1 74 7.35388 74 15.1918V15.1918C74 23.0297 67.6461 29.3836 59.8082 29.3836H14.1918C6.35388 29.3836 0 23.0297 0 15.1918V15.1918Z" fill="#A3FF82"/>
<g filter="url(#filter0_d)">
<path d="M36.9801 26.8493C36.8483 26.8493 36.7252 26.8142 36.6108 26.7526L35.4413 26.0579C35.2654 25.9612 35.3534 25.926 35.4062 25.9084C35.6435 25.8293 35.6875 25.8117 35.9337 25.6711C35.9601 25.6534 35.9954 25.6622 36.0217 25.6798L36.9187 26.2162C36.9538 26.2338 36.9978 26.2338 37.0241 26.2162L40.5328 24.1849C40.5679 24.1673 40.5856 24.1321 40.5856 24.0882V20.0343C40.5856 19.9903 40.5679 19.9552 40.5328 19.9376L37.0241 17.9151C36.989 17.8974 36.945 17.8974 36.9187 17.9151L33.41 19.9376C33.3748 19.9551 33.3572 19.9991 33.3572 20.0343V24.0881C33.3572 24.1233 33.3748 24.1672 33.41 24.1849L34.3685 24.7389C34.8873 25.0026 35.2127 24.6949 35.2127 24.3871V20.386C35.2127 20.3333 35.2566 20.2805 35.3182 20.2805H35.7667C35.8195 20.2805 35.8722 20.3245 35.8722 20.386V24.3871C35.8722 25.0818 35.494 25.4863 34.8345 25.4863C34.6323 25.4863 34.474 25.4863 34.0255 25.2664L33.1022 24.7389C32.8736 24.607 32.7329 24.3607 32.7329 24.0969V20.0431C32.7329 19.7793 32.8736 19.533 33.1022 19.4012L36.6108 17.3698C36.8307 17.2467 37.1297 17.2467 37.3495 17.3698L40.8581 19.4012C41.0868 19.533 41.2275 19.7793 41.2275 20.0431V24.0969C41.2275 24.3607 41.0868 24.607 40.8581 24.7389L37.3495 26.7702C37.2352 26.823 37.1033 26.8493 36.9802 26.8493H36.9801ZM38.0618 24.0618C36.5229 24.0618 36.2063 23.3583 36.2063 22.7603C36.2063 22.7075 36.2503 22.6548 36.3119 22.6548H36.7692C36.8219 22.6548 36.8659 22.6899 36.8659 22.7428C36.9362 23.2088 37.1385 23.4374 38.0706 23.4374C38.8092 23.4374 39.1259 23.2703 39.1259 22.8746C39.1259 22.646 39.0379 22.479 37.8859 22.3646C36.9274 22.2678 36.3295 22.0568 36.3295 21.2918C36.3295 20.5795 36.9275 20.1574 37.9299 20.1574C39.0554 20.1574 39.6095 20.5443 39.6799 21.3884C39.6799 21.4149 39.6711 21.4412 39.6535 21.4676C39.6358 21.4852 39.6095 21.5028 39.5831 21.5028H39.1258C39.0818 21.5028 39.0379 21.4676 39.0291 21.4237C38.9236 20.9401 38.651 20.7817 37.9299 20.7817C37.1209 20.7817 37.0241 21.0632 37.0241 21.2742C37.0241 21.5292 37.1385 21.6083 38.2289 21.749C39.3105 21.8898 39.8206 22.092 39.8206 22.8482C39.8117 23.6221 39.1786 24.0618 38.0618 24.0618Z" fill="#539E43"/>
<path d="M26.0937 10.9945C26.0937 10.8362 26.0057 10.6866 25.865 10.6075L22.1365 8.4619C22.0749 8.42667 22.0046 8.40909 21.9343 8.40027H21.8991C21.8288 8.40027 21.7584 8.42667 21.6969 8.4619L17.9684 10.6075C17.8276 10.6866 17.7397 10.8361 17.7397 10.9945L17.7485 16.7631C17.7485 16.8422 17.7925 16.9213 17.8628 16.9565C17.9332 17.0005 18.0211 17.0005 18.0827 16.9565L20.2987 15.6902C20.4394 15.6111 20.5273 15.4616 20.5273 15.3034V12.6037C20.5273 12.4454 20.6152 12.2959 20.756 12.2168L21.6969 11.6716C21.7672 11.6276 21.8464 11.6099 21.9255 11.6099C22.0046 11.6099 22.0837 11.6276 22.1454 11.6716L23.0862 12.2168C23.227 12.2959 23.3149 12.4454 23.3149 12.6037V15.3034C23.3149 15.4616 23.4028 15.6111 23.5435 15.6902L25.7595 16.9565C25.8299 17.0005 25.9178 17.0005 25.9881 16.9565C26.0585 16.9213 26.1025 16.8422 26.1025 16.7631L26.0937 10.9945Z" fill="#333333"/>
<path d="M44.0151 3.05383C43.9448 3.0186 43.8568 3.0186 43.7952 3.05383C43.7249 3.0978 43.6809 3.16811 43.6809 3.24723V8.96316C43.6809 9.01588 43.6546 9.06861 43.6018 9.10384C43.5491 9.13016 43.4963 9.13016 43.4435 9.10384L42.5114 8.56744C42.4431 8.52852 42.3658 8.50806 42.2871 8.50806C42.2085 8.50806 42.1312 8.52852 42.0629 8.56744L38.3344 10.7219C38.1937 10.801 38.1058 10.9505 38.1058 11.1088V15.4088C38.1058 15.5671 38.1937 15.7167 38.3344 15.7958L42.0629 17.9502C42.1312 17.9891 42.2085 18.0096 42.2871 18.0096C42.3658 18.0096 42.4431 17.9891 42.5114 17.9502L46.2399 15.7958C46.3806 15.7167 46.4685 15.5671 46.4685 15.4088V4.68943C46.4685 4.52235 46.3806 4.37292 46.2399 4.29371L44.0152 3.05383H44.0151ZM43.6722 13.9931C43.6722 14.0371 43.6546 14.0722 43.6194 14.0898L42.3443 14.8284C42.3265 14.8371 42.307 14.8416 42.2871 14.8416C42.2673 14.8416 42.2478 14.8371 42.23 14.8284L40.9549 14.0898C40.9197 14.0722 40.9021 14.0282 40.9021 13.9931V12.5157C40.9021 12.4718 40.9197 12.4366 40.9549 12.419L42.23 11.6803C42.2478 11.6716 42.2673 11.6671 42.2871 11.6671C42.307 11.6671 42.3265 11.6716 42.3443 11.6803L43.6194 12.419C43.6546 12.4365 43.6722 12.4806 43.6722 12.5157V13.9931Z" fill="#333333"/>
<path d="M56.4229 12.4806C56.5636 12.4015 56.6428 12.2519 56.6428 12.0936V11.0472C56.6428 10.8889 56.5548 10.7394 56.4229 10.6603L52.7208 8.5147C52.6525 8.47581 52.5752 8.45535 52.4966 8.45535C52.4179 8.45535 52.3407 8.47581 52.2723 8.5147L48.5438 10.6691C48.4031 10.7482 48.3152 10.8977 48.3152 11.056V15.3561C48.3152 15.5143 48.4031 15.6638 48.5438 15.743L52.2459 17.8534C52.3867 17.9326 52.5537 17.9326 52.6856 17.8534L54.9279 16.6049C54.9983 16.5696 55.0423 16.4905 55.0423 16.4114C55.0423 16.3323 54.9983 16.2531 54.9279 16.2179L51.1819 14.0635C51.1116 14.0196 51.0676 13.9492 51.0676 13.8701V12.5246C51.0676 12.4455 51.1116 12.3664 51.1819 12.3311L52.3515 11.6628C52.3857 11.6413 52.4253 11.6298 52.4658 11.6298C52.5062 11.6298 52.5459 11.6413 52.5801 11.6628L53.7496 12.3311C53.82 12.3751 53.864 12.4454 53.864 12.5246V13.5799C53.864 13.659 53.9079 13.7381 53.9782 13.7733C54.0486 13.8172 54.1365 13.8172 54.2069 13.7733L56.4229 12.4806V12.4806Z" fill="#333333"/>
<path d="M52.4394 12.2783C52.4525 12.2697 52.4677 12.2652 52.4834 12.2652C52.499 12.2652 52.5142 12.2697 52.5273 12.2783L53.2396 12.6916C53.266 12.7091 53.2836 12.7355 53.2836 12.7708V13.5974C53.2836 13.6325 53.266 13.6589 53.2396 13.6765L52.5273 14.0898C52.5142 14.0984 52.499 14.1029 52.4834 14.1029C52.4677 14.1029 52.4525 14.0984 52.4394 14.0898L51.7271 13.6765C51.7007 13.6589 51.6831 13.6325 51.6831 13.5974V12.7708C51.6831 12.7355 51.7007 12.7091 51.7271 12.6916L52.4394 12.2783V12.2783Z" fill="#539E43"/>
<mask id="mask0" mask-type="alpha" maskUnits="userSpaceOnUse" x="27" y="8" width="10" height="10">
<path d="M32.3283 8.53228C32.26 8.49338 32.1827 8.47293 32.1041 8.47293C32.0255 8.47293 31.9482 8.49338 31.8799 8.53228L28.1778 10.669C28.0371 10.7481 27.9579 10.8976 27.9579 11.0559V15.3384C27.9579 15.4967 28.0459 15.6462 28.1778 15.7253L31.8799 17.8622C31.9482 17.9011 32.0255 17.9215 32.1041 17.9215C32.1827 17.9215 32.26 17.9011 32.3283 17.8622L36.0305 15.7253C36.1712 15.6462 36.2504 15.4967 36.2504 15.3384V11.056C36.2504 10.8977 36.1624 10.7482 36.0305 10.6691L32.3283 8.53228Z" fill="white"/>
</mask>
<g mask="url(#mask0)">
<path d="M32.3283 8.53228C32.26 8.49338 32.1827 8.47293 32.1041 8.47293C32.0255 8.47293 31.9482 8.49338 31.8799 8.53228L28.1778 10.669C28.0371 10.7481 27.9579 10.8976 27.9579 11.0559V15.3384C27.9579 15.4967 28.0459 15.6462 28.1778 15.7253L31.8799 17.8622C31.9482 17.9011 32.0255 17.9215 32.1041 17.9215C32.1827 17.9215 32.26 17.9011 32.3283 17.8622L36.0305 15.7253C36.1712 15.6462 36.2504 15.4967 36.2504 15.3384V11.056C36.2504 10.8977 36.1624 10.7482 36.0305 10.6691L32.3283 8.53228Z" fill="url(#paint0_linear)"/>
<path d="M36.0393 10.6691L32.3196 8.53229C32.2831 8.51383 32.2447 8.4991 32.2052 8.48831L28.0371 15.6288C28.0716 15.6709 28.1133 15.7067 28.1602 15.7343L31.8799 17.8712C31.9854 17.9327 32.1085 17.9503 32.2228 17.9151L36.136 10.7571C36.1096 10.722 36.0744 10.6955 36.0393 10.6691V10.6691Z" fill="url(#paint1_linear)"/>
<path fill-rule="evenodd" clip-rule="evenodd" d="M36.0481 15.7254C36.1536 15.6638 36.2328 15.5583 36.268 15.444L32.1876 8.47947C32.0821 8.46189 31.9677 8.47064 31.8711 8.5322L28.1777 10.6603L32.1612 17.9238C32.2191 17.9143 32.2754 17.8966 32.3283 17.8711L36.048 15.7255L36.0481 15.7254Z" fill="url(#paint2_linear)"/>
<path fill-rule="evenodd" clip-rule="evenodd" d="M36.0481 15.7254L32.3372 17.8623C32.2848 17.889 32.2283 17.9068 32.1701 17.915L32.2405 18.0469L36.3559 15.6639V15.6111L36.2503 15.4352C36.2327 15.5583 36.1536 15.6638 36.0481 15.7254V15.7254Z" fill="url(#paint3_linear)"/>
<path fill-rule="evenodd" clip-rule="evenodd" d="M36.0481 15.7254L32.3372 17.8623C32.2848 17.889 32.2283 17.9068 32.1701 17.915L32.2405 18.0469L36.3559 15.6639V15.6111L36.2503 15.4352C36.2327 15.5583 36.1536 15.6638 36.0481 15.7254V15.7254Z" fill="url(#paint4_linear)"/>
</g>
</g>
<defs>
<filter id="filter0_d" x="13.7397" y="0.0274048" width="46.903" height="31.8219" filterUnits="userSpaceOnUse" color-interpolation-filters="sRGB">
<feFlood flood-opacity="0" result="BackgroundImageFix"/>
<feColorMatrix in="SourceAlpha" type="matrix" values="0 0 0 0 0 0 0 0 0 0 0 0 0 0 0 0 0 0 127 0"/>
<feOffset dy="1"/>
<feGaussianBlur stdDeviation="2"/>
<feColorMatrix type="matrix" values="0 0 0 0 0 0 0 0 0 0 0 0 0 0 0 0 0 0 0.25 0"/>
<feBlend mode="normal" in2="BackgroundImageFix" result="effect1_dropShadow"/>
<feBlend mode="normal" in="SourceGraphic" in2="effect1_dropShadow" result="shape"/>
</filter>
<linearGradient id="paint0_linear" x1="33.6124" y1="10.1252" x2="29.5545" y2="16.5013" gradientUnits="userSpaceOnUse">
<stop stop-color="#41873F"/>
<stop offset="0.3288" stop-color="#418B3D"/>
<stop offset="0.6352" stop-color="#419637"/>
<stop offset="0.9319" stop-color="#3FA92D"/>
<stop offset="1" stop-color="#3FAE2A"/>
</linearGradient>
<linearGradient id="paint1_linear" x1="31.5421" y1="13.6989" x2="41.7047" y2="8.17744" gradientUnits="userSpaceOnUse">
<stop offset="0.1376" stop-color="#41873F"/>
<stop offset="0.4032" stop-color="#54A044"/>
<stop offset="0.7136" stop-color="#66B848"/>
<stop offset="0.9081" stop-color="#6CC04A"/>
</linearGradient>
<linearGradient id="paint2_linear" x1="27.8227" y1="13.1974" x2="36.3893" y2="13.1974" gradientUnits="userSpaceOnUse">
<stop offset="0.09192" stop-color="#6CC04A"/>
<stop offset="0.2864" stop-color="#66B848"/>
<stop offset="0.5968" stop-color="#54A044"/>
<stop offset="0.8624" stop-color="#41873F"/>
</linearGradient>
<linearGradient id="paint3_linear" x1="27.8227" y1="16.7482" x2="36.3892" y2="16.7482" gradientUnits="userSpaceOnUse">
<stop offset="0.09192" stop-color="#6CC04A"/>
<stop offset="0.2864" stop-color="#66B848"/>
<stop offset="0.5968" stop-color="#54A044"/>
<stop offset="0.8624" stop-color="#41873F"/>
</linearGradient>
<linearGradient id="paint4_linear" x1="37.6372" y1="9.9227" x2="35.467" y2="21.2946" gradientUnits="userSpaceOnUse">
<stop stop-color="#41873F"/>
<stop offset="0.3288" stop-color="#418B3D"/>
<stop offset="0.6352" stop-color="#419637"/>
<stop offset="0.9319" stop-color="#3FA92D"/>
<stop offset="1" stop-color="#3FAE2A"/>
</linearGradient>
</defs>
</svg>
