<svg width="56" height="56" viewBox="0 0 56 56" fill="none" xmlns="http://www.w3.org/2000/svg">
<rect width="56" height="56" rx="7" fill="#0D1117"/>
<path d="M41.6709 46H8.43187C5.97218 46 4 43.975 4 41.5V14.5C4 12.0025 5.97218 10 8.43187 10H21.7275L26.1594 14.5H41.6709C44.1018 14.5 46.1028 16.5317 46.1028 19H8.43187V41.5L13.174 23.5H51L45.9477 42.625C45.438 44.5825 43.7096 46 41.6709 46Z" fill="#1E88E5"/>
<path d="M35.3333 50C26.6774 50 19.6667 46.6448 19.6667 42.5C19.6667 38.3552 26.6776 35 35.3333 35C43.9891 35 51 38.3552 51 42.5C51 46.6448 43.9891 50 35.3333 50ZM28.5574 40.1934C29.2624 40.1934 29.7455 40.3167 29.9805 40.5758C30.2155 40.8225 30.2677 41.2666 30.1502 41.8463C30.0197 42.5001 29.7716 42.9195 29.393 43.1909C29.0274 43.4623 28.466 43.598 27.7088 43.598H26.573L27.2649 40.1935L28.5574 40.1934ZM23.988 47.0396H25.868L26.3119 44.881H27.9177C28.6227 44.881 29.1972 44.807 29.6541 44.6713C30.111 44.5232 30.5288 44.2889 30.9074 43.9558C31.2208 43.6844 31.4688 43.3884 31.6646 43.0553C31.8605 42.7346 32.0041 42.3645 32.0694 41.9698C32.2783 41.0076 32.1346 40.2552 31.6385 39.7247C31.1294 39.182 30.346 38.9229 29.2624 38.9229H25.6589L23.988 47.0396ZM33.4531 36.7643L31.782 44.881H33.6359L34.602 40.2305H36.0903C36.5603 40.2305 36.8737 40.3045 37.0173 40.4525C37.1609 40.6005 37.187 40.8719 37.1087 41.2667L36.3645 44.8809H38.2576L39.0279 41.0939C39.1976 40.3291 39.0671 39.774 38.6754 39.4163C38.2837 39.0832 37.5657 38.9229 36.5212 38.9229H34.8631L35.3331 36.7643L33.4531 36.7643ZM43.1664 40.1935C43.8844 40.1935 44.3544 40.3169 44.5894 40.5759C44.8244 40.8226 44.8767 41.2667 44.7591 41.8465C44.6286 42.5002 44.3805 42.9196 44.015 43.191C43.6364 43.4624 43.075 43.5981 42.3177 43.5981H41.208L41.8608 40.1936L43.1664 40.1935ZM38.5969 47.0397H40.4769L40.9208 44.8811H42.5136C43.2316 44.8811 43.8192 44.8071 44.2761 44.6714C44.733 44.5234 45.1247 44.289 45.5164 43.9559C45.8297 43.6845 46.0908 43.3885 46.2736 43.0554C46.4694 42.7347 46.613 42.3647 46.6914 41.9699C46.8872 41.0078 46.7436 40.2553 46.2475 39.7248C45.7775 39.1821 44.955 38.923 43.8713 38.923H40.281L38.5969 47.0397Z" fill="#BBDEFB"/>
</svg>
