<svg width="74" height="29" viewBox="0 0 74 29" fill="none" xmlns="http://www.w3.org/2000/svg">
<path d="M0 14.1918C0 6.35388 6.35388 0 14.1918 0H59.8082C67.6461 0 74 6.35388 74 14.1918V14.1918C74 22.0297 67.6461 28.3836 59.8082 28.3836H14.1918C6.35388 28.3836 0 22.0297 0 14.1918V14.1918Z" fill="#8194D1"/>
<path d="M28.2136 11.3776H26.5958L25.7144 15.9078H27.1513C28.0994 15.9078 28.8076 15.7282 29.2759 15.3677C29.7365 15.0136 30.0508 14.4119 30.2112 13.5766C30.3703 12.7748 30.2971 12.2064 30.0046 11.8729C29.7031 11.5457 29.1078 11.3789 28.2136 11.3789V11.3776ZM36.7466 3.6478C25.4065 3.6478 16.2192 8.48585 16.2192 14.4452C16.2192 20.4046 25.4065 25.2426 36.7466 25.2426C48.0867 25.2426 57.274 20.4046 57.274 14.4452C57.274 8.48585 48.0867 3.6478 36.7466 3.6478ZM31.167 16.3966C30.7228 16.8235 30.1883 17.1449 29.603 17.337C29.0283 17.5179 28.2944 17.618 27.4053 17.618H25.3795L24.8253 20.4918H22.4659L24.5713 9.67387H29.1014C30.4652 9.67387 31.4608 10.028 32.0881 10.7426C32.7104 11.4572 32.9041 12.4605 32.6488 13.7434C32.5532 14.2515 32.3779 14.7412 32.1292 15.1945C31.8733 15.6434 31.5481 16.0491 31.1657 16.3966H31.167ZM38.0565 17.618L38.9853 12.8287C39.0918 12.286 39.0521 11.9139 38.8635 11.7112C38.6838 11.5175 38.2887 11.4174 37.6883 11.4174H35.8241L34.622 17.618H32.2767L34.3808 6.79362H36.7196L36.159 9.67387H38.2438C39.5614 9.67387 40.462 9.90096 40.9573 10.3551C41.4589 10.817 41.6052 11.5573 41.4127 12.5811L40.4287 17.6193L38.0565 17.618ZM51.0452 13.7434C50.9526 14.2523 50.777 14.7425 50.5256 15.1945C50.2721 15.6429 49.9495 16.0486 49.5698 16.3966C49.1216 16.8214 48.5855 17.1425 47.9994 17.337C47.4247 17.5179 46.6895 17.618 45.8017 17.618H43.7836L43.223 20.4918H40.8636L42.9689 9.67387H47.4991C48.8629 9.67387 49.8584 10.028 50.4858 10.7503C51.1081 11.4585 51.3018 12.4605 51.0465 13.7434H51.0452ZM46.61 11.3776H44.9986L44.1172 15.9078H45.5477C46.5022 15.9078 47.2104 15.7282 47.6723 15.3677C48.1393 15.0136 48.4536 14.4119 48.6153 13.5766C48.7743 12.7748 48.7012 12.2064 48.3997 11.8729C48.1072 11.5457 47.5055 11.3789 46.61 11.3789V11.3776Z" fill="black"/>
</svg>
