<svg width="56" height="56" viewBox="0 0 56 56" fill="none" xmlns="http://www.w3.org/2000/svg">
<rect width="56" height="56" rx="7" fill="#0D1117"/>
<path d="M41.6709 46H8.43187C5.97218 46 4 43.975 4 41.5V14.5C4 12.0025 5.97218 10 8.43187 10H21.7275L26.1594 14.5H41.6709C44.1018 14.5 46.1028 16.5317 46.1028 19H8.43187V41.5L13.174 23.5H51L45.9477 42.625C45.438 44.5825 43.7096 46 41.6709 46Z" fill="#1E88E5"/>
<path d="M35.6667 50C27.0107 50 20 46.6448 20 42.5C20 38.3552 27.0109 35 35.6667 35C44.3224 35 51.3333 38.3552 51.3333 42.5C51.3333 46.6448 44.3224 50 35.6667 50ZM28.8908 40.1934C29.5958 40.1934 30.0788 40.3167 30.3138 40.5758C30.5488 40.8225 30.6011 41.2666 30.4836 41.8463C30.353 42.5001 30.1049 42.9195 29.7263 43.1909C29.3608 43.4623 28.7994 43.598 28.0422 43.598H26.9063L27.5983 40.1935L28.8908 40.1934ZM24.3213 47.0396H26.2013L26.6452 44.881H28.2511C28.9561 44.881 29.5305 44.807 29.9874 44.6713C30.4444 44.5232 30.8622 44.2889 31.2408 43.9558C31.5541 43.6844 31.8022 43.3884 31.998 43.0553C32.1938 42.7346 32.3374 42.3645 32.4027 41.9698C32.6116 41.0076 32.468 40.2552 31.9719 39.7247C31.4627 39.182 30.6794 38.9229 29.5957 38.9229H25.9923L24.3213 47.0396ZM33.7865 36.7643L32.1154 44.881H33.9692L34.9353 40.2305H36.4237C36.8937 40.2305 37.207 40.3045 37.3506 40.4525C37.4942 40.6005 37.5204 40.8719 37.442 41.2667L36.6978 44.8809H38.591L39.3612 41.0939C39.531 40.3291 39.4004 39.774 39.0087 39.4163C38.6171 39.0832 37.899 38.9229 36.8545 38.9229H35.1965L35.6665 36.7643L33.7865 36.7643ZM43.4997 40.1935C44.2178 40.1935 44.6878 40.3169 44.9228 40.5759C45.1578 40.8226 45.21 41.2667 45.0925 41.8465C44.9619 42.5002 44.7139 42.9196 44.3483 43.191C43.9697 43.4624 43.4083 43.5981 42.6511 43.5981H41.5413L42.1941 40.1936L43.4997 40.1935ZM38.9302 47.0397H40.8103L41.2541 44.8811H42.8469C43.565 44.8811 44.1525 44.8071 44.6094 44.6714C45.0664 44.5234 45.4581 44.289 45.8497 43.9559C46.1631 43.6845 46.4242 43.3885 46.6069 43.0554C46.8028 42.7347 46.9464 42.3647 47.0247 41.9699C47.2206 41.0078 47.0769 40.2553 46.5808 39.7248C46.1108 39.1821 45.2883 38.923 44.2047 38.923H40.6144L38.9302 47.0397Z" fill="#BBDEFB"/>
</svg>
