<svg width="56" height="56" viewBox="0 0 56 56" fill="none" xmlns="http://www.w3.org/2000/svg">
<rect width="56" height="56" rx="7" fill="#0D1117"/>
<path d="M42.0679 46H10.2433C7.88826 46 6 43.975 6 41.5V14.5C6 12.0025 7.88826 10 10.2433 10H22.9731L27.2164 14.5H42.0679C44.3953 14.5 46.3112 16.5317 46.3112 19H10.2433V41.5L14.7836 23.5H51L46.1627 42.625C45.6747 44.5825 44.0198 46 42.0679 46Z" fill="#1E88E5"/>
<path d="M37.6667 48C29.0107 48 22 44.6448 22 40.5C22 36.3552 29.0109 33 37.6667 33C46.3224 33 53.3333 36.3552 53.3333 40.5C53.3333 44.6448 46.3224 48 37.6667 48ZM30.8908 38.1934C31.5958 38.1934 32.0788 38.3167 32.3138 38.5758C32.5488 38.8225 32.6011 39.2666 32.4836 39.8463C32.353 40.5001 32.1049 40.9195 31.7263 41.1909C31.3608 41.4623 30.7994 41.598 30.0422 41.598H28.9063L29.5983 38.1935L30.8908 38.1934ZM26.3213 45.0396H28.2013L28.6452 42.881H30.2511C30.9561 42.881 31.5305 42.807 31.9874 42.6713C32.4444 42.5232 32.8622 42.2889 33.2408 41.9558C33.5541 41.6844 33.8022 41.3884 33.998 41.0553C34.1938 40.7346 34.3374 40.3645 34.4027 39.9698C34.6116 39.0076 34.468 38.2552 33.9719 37.7247C33.4627 37.182 32.6794 36.9229 31.5957 36.9229H27.9923L26.3213 45.0396ZM35.7865 34.7643L34.1154 42.881H35.9692L36.9353 38.2305H38.4237C38.8937 38.2305 39.207 38.3045 39.3506 38.4525C39.4942 38.6005 39.5204 38.8719 39.442 39.2667L38.6978 42.8809H40.591L41.3612 39.0939C41.531 38.3291 41.4004 37.774 41.0087 37.4163C40.6171 37.0832 39.899 36.9229 38.8545 36.9229H37.1965L37.6665 34.7643L35.7865 34.7643ZM45.4997 38.1935C46.2178 38.1935 46.6878 38.3169 46.9228 38.5759C47.1578 38.8226 47.21 39.2667 47.0925 39.8465C46.9619 40.5002 46.7139 40.9196 46.3483 41.191C45.9697 41.4624 45.4083 41.5981 44.6511 41.5981H43.5413L44.1941 38.1936L45.4997 38.1935ZM40.9302 45.0397H42.8103L43.2541 42.8811H44.8469C45.565 42.8811 46.1525 42.8071 46.6094 42.6714C47.0664 42.5234 47.4581 42.289 47.8497 41.9559C48.1631 41.6845 48.4242 41.3885 48.6069 41.0554C48.8028 40.7347 48.9464 40.3647 49.0247 39.9699C49.2206 39.0078 49.0769 38.2553 48.5808 37.7248C48.1108 37.1821 47.2883 36.923 46.2047 36.923H42.6144L40.9302 45.0397Z" fill="#BBDEFB"/>
</svg>
