<svg width="34" height="32" viewBox="0 0 34 32" fill="none" xmlns="http://www.w3.org/2000/svg">
<path d="M32.5 16C32.5 24.5604 25.5604 31.5 17 31.5C8.43959 31.5 1.5 24.5604 1.5 16C1.5 7.43959 8.43959 0.5 17 0.5C25.5604 0.5 32.5 7.43959 32.5 16Z" fill="#212121" stroke="white"/>
<g filter="url(#filter0_d)">
<path d="M12.6492 21.3757C12.5273 20.5618 12.1922 19.9006 11.3786 19.5809C11.0602 19.4562 10.7845 19.2285 10.4707 19.0851C10.1142 18.9214 9.7516 18.7654 9.37531 18.6641C9.09043 18.5861 8.82535 18.7171 8.65625 18.9728C8.49629 19.2129 8.61207 19.439 8.74613 19.6402C8.89695 19.8663 9.06453 20.0814 9.23363 20.2935C9.51395 20.6459 9.81102 20.9843 10.0837 21.3414C10.3442 21.6829 10.5666 22.0618 10.5286 22.5139C10.4448 23.5056 10.006 24.3274 9.29914 24.9963C9.22145 25.068 9.08434 25.1195 8.98379 25.1101C8.53285 25.0602 8.12305 24.8856 7.79246 24.5628C7.41312 24.1933 7.47101 23.7582 7.925 23.4885C8.03316 23.4246 8.1459 23.3653 8.24492 23.2873C8.52219 23.0737 8.61512 22.7089 8.4643 22.3923C8.3927 22.2395 8.31195 22.0742 8.19312 21.9635C7.61269 21.4225 7.04288 20.8642 6.42132 20.3715C4.91458 19.174 4.14073 17.5898 4.02185 15.6719C3.88779 13.5419 4.37072 11.5538 5.46912 9.73408C5.88501 9.04333 6.36947 8.38527 7.11291 8.04384C7.61869 7.81151 8.17322 7.68053 8.71409 7.53552C10.2025 7.13479 11.7046 6.83385 13.254 7.10205C14.5885 7.33126 15.5651 8.03449 16.013 9.37701C16.307 10.2549 16.3771 11.1624 16.2857 12.0917C16.1059 13.9177 14.7881 15.5502 13.0697 16.0336C12.3247 16.2425 11.9179 16.1256 11.47 15.491C11.1486 15.0341 10.882 14.5367 10.5941 14.0548C10.5514 13.9831 10.5209 13.9005 10.4844 13.8241C10.4493 13.7477 10.4113 13.6744 10.3747 13.598C10.4829 14.3901 10.6626 15.1526 11.0846 15.8324C11.3131 16.202 11.6178 16.4748 12.0642 16.5154C13.7064 16.6666 15.0928 16.1146 16.077 14.7627C17.1784 13.2502 17.4207 11.51 17.1022 9.6779C17.0398 9.31615 16.9347 8.96219 16.86 8.602C16.8097 8.36967 16.8996 8.19816 17.1236 8.11707C17.2272 8.08121 17.3338 8.05159 17.4374 8.02976C18.7811 7.7335 20.14 7.63526 21.5096 7.77716C23.0636 7.9362 24.5337 8.37279 25.8484 9.25695C27.9066 10.6431 29.1817 12.6157 29.8749 15.0014C29.9754 15.3475 29.9907 15.7264 29.9998 16.0913C30.0059 16.3346 29.8536 16.3985 29.6723 16.2457C29.4727 16.0789 29.2899 15.8886 29.1178 15.6922C28.9578 15.5066 28.8298 15.2946 28.6744 15.0997C28.5541 14.9469 28.449 14.9702 28.3911 15.1605C28.3545 15.2759 28.3225 15.3897 28.2905 15.5051C27.931 16.818 27.3643 18.0155 26.4456 19.0244C26.3177 19.1663 26.2034 19.3768 26.1882 19.5639C26.1486 20.0816 26.1196 20.6101 26.1684 21.1263C26.2689 22.2349 26.4258 23.3389 26.5477 24.446C26.6163 25.0712 26.4197 25.4392 25.8454 25.656C25.4417 25.8073 25.009 25.918 24.5825 25.9492C23.903 25.9975 23.2175 25.9632 22.535 25.9632C22.5167 25.1836 22.5822 24.4179 21.8662 24C22.0048 23.4215 22.1648 22.8727 22.2608 22.3113C22.34 21.8451 22.2729 21.3867 21.953 21.0047C21.6529 20.6445 21.2766 20.5463 20.9323 20.7521C19.8948 21.3711 18.8162 21.3742 17.7178 20.9688C17.2135 20.7817 16.8616 20.8877 16.5828 21.3586C16.2826 21.8654 16.1562 22.4345 16.1897 23.01C16.2324 23.735 16.3558 24.4523 16.4502 25.1742C16.502 25.5781 16.4578 25.6825 16.0663 25.7854C15.1964 26.0115 14.3113 26.0365 13.4216 25.9632C13.3743 25.9585 13.3271 25.9382 13.2966 25.9304C13.2525 25.1742 13.3302 24.3883 12.4496 23.986C12.8396 23.1393 12.7863 22.2615 12.6522 21.3836L12.6492 21.3758V21.3757ZM7.39022 18.4084C7.51971 18.2837 7.62331 18.0888 7.65987 17.9094C7.75128 17.4604 7.42221 16.8585 7.04135 16.6917C6.83874 16.6012 6.66202 16.634 6.51882 16.7993C6.16995 17.2031 5.82565 17.6116 5.48283 18.0218C5.42494 18.0919 5.37314 18.1746 5.33201 18.2572C5.1949 18.527 5.27564 18.7234 5.56814 18.7967C5.74486 18.8419 5.92767 18.8513 6.10896 18.8778C6.58123 18.831 7.03826 18.7499 7.39017 18.41V18.4085L7.39022 18.4084ZM7.42983 13.9192C7.42831 13.598 7.16628 13.3298 6.85702 13.3283C6.53862 13.3267 6.2644 13.6183 6.27507 13.9395C6.28878 14.2623 6.55081 14.5211 6.86464 14.5149C7.18151 14.5102 7.4344 14.2451 7.43135 13.9208L7.42983 13.9192V13.9192Z" fill="#8194D1"/>
</g>
<defs>
<filter id="filter0_d" x="0" y="4" width="34" height="27" filterUnits="userSpaceOnUse" color-interpolation-filters="sRGB">
<feFlood flood-opacity="0" result="BackgroundImageFix"/>
<feColorMatrix in="SourceAlpha" type="matrix" values="0 0 0 0 0 0 0 0 0 0 0 0 0 0 0 0 0 0 127 0"/>
<feOffset dy="1"/>
<feGaussianBlur stdDeviation="2"/>
<feColorMatrix type="matrix" values="0 0 0 0 0 0 0 0 0 0 0 0 0 0 0 0 0 0 0.25 0"/>
<feBlend mode="normal" in2="BackgroundImageFix" result="effect1_dropShadow"/>
<feBlend mode="normal" in="SourceGraphic" in2="effect1_dropShadow" result="shape"/>
</filter>
</defs>
</svg>
