<svg width="47" height="40" viewBox="0 0 47 40" fill="none" xmlns="http://www.w3.org/2000/svg">
<path d="M36.0679 36H4.24328C1.88826 36 0 33.975 0 31.5V4.5C0 2.0025 1.88826 0 4.24328 0H16.9731L21.2164 4.5H36.0679C38.3953 4.5 40.3112 6.53175 40.3112 9H4.24328V31.5L8.78359 13.5H45L40.1627 32.625C39.6747 34.5825 38.0198 36 36.0679 36Z" fill="#1E88E5"/>
<path d="M35 40C28.3699 40 23 37.3159 23 34C23 30.6841 28.3701 28 35 28C41.6299 28 47 30.6841 47 34C47 37.3159 41.6299 40 35 40V40ZM29.81 32.1547C30.35 32.1547 30.72 32.2534 30.9 32.4606C31.08 32.658 31.12 33.0132 31.03 33.4771C30.93 34.0001 30.74 34.3356 30.45 34.5527C30.17 34.7698 29.74 34.8784 29.16 34.8784H28.2899L28.8199 32.1548H29.8099L29.81 32.1547ZM26.3099 37.6317H27.75L28.09 35.9048H29.32C29.86 35.9048 30.3 35.8456 30.65 35.737C31 35.6186 31.32 35.4311 31.61 35.1646C31.85 34.9475 32.04 34.7107 32.19 34.4443C32.3399 34.1877 32.4499 33.8916 32.4999 33.5758C32.6599 32.8061 32.5499 32.2041 32.1699 31.7798C31.7799 31.3456 31.1799 31.1383 30.3499 31.1383H27.5898L26.3098 37.6317L26.3099 37.6317ZM33.5599 29.4114L32.2799 35.9048H33.6998L34.4398 32.1844H35.5798C35.9398 32.1844 36.1798 32.2436 36.2898 32.362C36.3998 32.4804 36.4198 32.6975 36.3598 33.0133L35.7898 35.9047H37.2399L37.8299 32.8751C37.9599 32.2633 37.8599 31.8192 37.5599 31.533C37.2599 31.2666 36.7099 31.1383 35.9099 31.1383H34.6399L34.9999 29.4114H33.5598L33.5599 29.4114ZM40.9998 32.1548C41.5498 32.1548 41.9098 32.2535 42.0898 32.4607C42.2698 32.6581 42.3098 33.0133 42.2198 33.4772C42.1198 34.0002 41.9298 34.3357 41.6498 34.5528C41.3598 34.7699 40.9298 34.8785 40.3498 34.8785H39.4998L39.9998 32.1549H40.9998L40.9998 32.1548ZM37.4997 37.6318H38.9398L39.2798 35.9049H40.4998C41.0498 35.9049 41.4998 35.8457 41.8498 35.7371C42.1998 35.6187 42.4998 35.4312 42.7998 35.1647C43.0398 34.9476 43.2398 34.7108 43.3798 34.4444C43.5298 34.1878 43.6398 33.8917 43.6998 33.5759C43.8498 32.8062 43.7398 32.2042 43.3598 31.7799C42.9998 31.3457 42.3698 31.1384 41.5398 31.1384H38.7897L37.4997 37.6318Z" fill="#BBDEFB"/>
</svg>
