<svg width="146" height="56" viewBox="0 0 146 56" fill="none" xmlns="http://www.w3.org/2000/svg">
<path d="M0 17C0 7.61116 7.61116 0 17 0H129C138.389 0 146 7.61116 146 17V39C146 48.3888 138.389 56 129 56H17C7.61116 56 0 48.3888 0 39V17Z" fill="#8194D1"/>
<path d="M55.6647 22.4478H52.4728L50.7338 31.3856H53.5688C55.4394 31.3856 56.8366 31.0313 57.7605 30.32C58.6693 29.6214 59.2894 28.4342 59.6058 26.7864C59.9197 25.2043 59.7754 24.083 59.1983 23.4249C58.6034 22.7794 57.4289 22.4503 55.6647 22.4503V22.4478ZM72.5 7.19702C50.1263 7.19702 32 16.7424 32 28.5C32 40.2577 50.1263 49.803 72.5 49.803C94.8737 49.803 113 40.2577 113 28.5C113 16.7424 94.8737 7.19702 72.5 7.19702ZM61.4916 32.3501C60.6153 33.1922 59.5607 33.8264 58.406 34.2055C57.272 34.5624 55.8241 34.7598 54.07 34.7598H50.0731L48.9796 40.4298H44.3247L48.4784 19.0863H57.4163C60.107 19.0863 62.0713 19.7849 63.309 21.1948C64.5367 22.6047 64.9189 24.5842 64.4152 27.1154C64.2267 28.1178 63.8807 29.0841 63.39 29.9783C62.8851 30.864 62.2436 31.6644 61.4891 32.3501H61.4916ZM75.0844 34.7598L76.917 25.3106C77.1271 24.2399 77.0487 23.5059 76.6766 23.1059C76.3222 22.7237 75.5426 22.5263 74.3579 22.5263H70.68L68.3082 34.7598H63.6811L67.8324 13.4036H72.4468L71.3407 19.0863H75.454C78.0536 19.0863 79.8305 19.5343 80.8076 20.4304C81.7973 21.3416 82.0858 22.8022 81.7062 24.8221L79.7647 34.7623L75.0844 34.7598ZM100.711 27.1154C100.528 28.1194 100.182 29.0865 99.6856 29.9783C99.1855 30.863 98.5491 31.6634 97.7998 32.3501C96.9156 33.1882 95.8579 33.8217 94.7016 34.2055C93.5676 34.5624 92.1172 34.7598 90.3656 34.7598H86.3839L85.2778 40.4298H80.6228L84.7766 19.0863H93.7144C96.4051 19.0863 98.3694 19.7849 99.6072 21.21C100.835 22.6073 101.217 24.5842 100.713 27.1154H100.711ZM91.9602 22.4478H88.781L87.042 31.3856H89.8644C91.7476 31.3856 93.1449 31.0313 94.0561 30.32C94.9775 29.6214 95.5977 28.4342 95.9166 26.7864C96.2305 25.2043 96.0862 24.083 95.4913 23.4249C94.9142 22.7794 93.7271 22.4503 91.9602 22.4503V22.4478Z" fill="black"/>
</svg>
