<svg width="56" height="56" viewBox="0 0 56 56" fill="none" xmlns="http://www.w3.org/2000/svg">
<rect width="56" height="56" rx="7" fill="#0D1117"/>
<path d="M41.0679 48H9.24328C6.88826 48 5 45.975 5 43.5V16.5C5 14.0025 6.88826 12 9.24328 12H21.9731L26.2164 16.5H41.0679C43.3953 16.5 45.3112 18.5317 45.3112 21H9.24328V43.5L13.7836 25.5H50L45.1627 44.625C44.6747 46.5825 43.0198 48 41.0679 48Z" fill="#1E88E5"/>
<path d="M35.6667 49C27.0107 49 20 45.6448 20 41.5C20 37.3552 27.0109 34 35.6667 34C44.3224 34 51.3333 37.3552 51.3333 41.5C51.3333 45.6448 44.3224 49 35.6667 49ZM28.8908 39.1934C29.5958 39.1934 30.0788 39.3167 30.3138 39.5758C30.5488 39.8225 30.6011 40.2666 30.4836 40.8463C30.353 41.5001 30.1049 41.9195 29.7263 42.1909C29.3608 42.4623 28.7994 42.598 28.0422 42.598H26.9063L27.5983 39.1935L28.8908 39.1934ZM24.3213 46.0396H26.2013L26.6452 43.881H28.2511C28.9561 43.881 29.5305 43.807 29.9874 43.6713C30.4444 43.5232 30.8622 43.2889 31.2408 42.9558C31.5541 42.6844 31.8022 42.3884 31.998 42.0553C32.1938 41.7346 32.3374 41.3645 32.4027 40.9698C32.6116 40.0076 32.468 39.2552 31.9719 38.7247C31.4627 38.182 30.6794 37.9229 29.5957 37.9229H25.9923L24.3213 46.0396ZM33.7865 35.7643L32.1154 43.881H33.9692L34.9353 39.2305H36.4237C36.8937 39.2305 37.207 39.3045 37.3506 39.4525C37.4942 39.6005 37.5204 39.8719 37.442 40.2667L36.6978 43.8809H38.591L39.3612 40.0939C39.531 39.3291 39.4004 38.774 39.0087 38.4163C38.6171 38.0832 37.899 37.9229 36.8545 37.9229H35.1965L35.6665 35.7643L33.7865 35.7643ZM43.4997 39.1935C44.2178 39.1935 44.6878 39.3169 44.9228 39.5759C45.1578 39.8226 45.21 40.2667 45.0925 40.8465C44.9619 41.5002 44.7139 41.9196 44.3483 42.191C43.9697 42.4624 43.4083 42.5981 42.6511 42.5981H41.5413L42.1941 39.1936L43.4997 39.1935ZM38.9302 46.0397H40.8103L41.2541 43.8811H42.8469C43.565 43.8811 44.1525 43.8071 44.6094 43.6714C45.0664 43.5234 45.4581 43.289 45.8497 42.9559C46.1631 42.6845 46.4242 42.3885 46.6069 42.0554C46.8028 41.7347 46.9464 41.3647 47.0247 40.9699C47.2206 40.0078 47.0769 39.2553 46.5808 38.7248C46.1108 38.1821 45.2883 37.923 44.2047 37.923H40.6144L38.9302 46.0397Z" fill="#BBDEFB"/>
</svg>
