<svg width="34" height="34" viewBox="0 0 34 34" fill="none" xmlns="http://www.w3.org/2000/svg">
<circle cx="17" cy="17" r="16.5" fill="#4AD5FF" stroke="white"/>
<path d="M17.364 19.2053C18.5817 19.2053 19.5688 18.2182 19.5688 17.0005C19.5688 15.7829 18.5817 14.7958 17.364 14.7958C16.1464 14.7958 15.1592 15.7829 15.1592 17.0005C15.1592 18.2182 16.1464 19.2053 17.364 19.2053Z" fill="black"/>
<path d="M11.1907 21.3842L10.7028 21.2594C7.07879 20.3441 5 18.7878 5 16.9956C5 15.2021 7.08002 13.6471 10.7028 12.7318L11.1907 12.6083L11.3278 13.0912C11.694 14.3557 12.1633 15.588 12.7309 16.7757L12.8359 16.9956L12.7309 17.2155C12.1627 18.4049 11.6921 19.6376 11.3278 20.9024L11.1907 21.3842V21.3842ZM10.478 13.8558C7.72478 14.6315 6.03383 15.8148 6.03383 16.9956C6.03383 18.174 7.72354 19.3585 10.478 20.1329C10.8152 19.0608 11.2228 18.0121 11.6946 16.9956C11.2194 15.9774 10.8129 14.9284 10.478 13.8558V13.8558ZM23.5362 21.3842L23.4003 20.9C23.033 19.6353 22.5634 18.4026 21.9959 17.2142L21.8909 16.9956L21.9959 16.7745C22.5641 15.5875 23.0322 14.3536 23.4003 13.0888L23.5362 12.6071L24.024 12.7306C27.6493 13.6458 29.7268 15.2009 29.7268 16.9956C29.7268 18.7891 27.648 20.3441 24.024 21.2594L23.5362 21.3842V21.3842ZM23.0297 16.9956C23.5238 18.0653 23.9351 19.1176 24.2488 20.1329C27.0033 19.3585 28.6942 18.174 28.6942 16.9956C28.6942 15.8148 27.0045 14.6327 24.2488 13.8558C23.912 14.9281 23.5047 15.977 23.0297 16.9956V16.9956Z" fill="black"/>
<path d="M10.4706 13.8509L10.3347 13.3692C9.31444 9.7773 9.62323 7.20445 11.1833 6.30772C12.7087 5.42457 15.163 6.46829 17.7333 9.10537L18.0841 9.46604L17.7333 9.82548C16.8204 10.7749 15.986 11.7969 15.2383 12.8813L15.0987 13.0814L14.8566 13.1011C13.5419 13.2044 12.2378 13.4147 10.9572 13.7298L10.4706 13.8509V13.8509ZM12.4246 7.02165C12.1479 7.02165 11.9034 7.08217 11.6971 7.20075C10.6744 7.78992 10.494 9.84153 11.1981 12.6108C12.2986 12.3675 13.409 12.1933 14.5281 12.0957C15.1759 11.1768 15.8827 10.3009 16.6439 9.47345C15.0345 7.9085 13.5152 7.02165 12.4246 7.02165V7.02165ZM22.3022 27.9997C20.8348 27.9997 18.95 26.893 16.9935 24.8846L16.6439 24.5252L16.9935 24.167C17.9066 23.216 18.7414 22.1929 19.4898 21.1075L19.6281 20.9099L19.8677 20.8864C21.1829 20.785 22.4875 20.5755 23.7684 20.2602L24.2563 20.1367L24.3934 20.6196C25.4087 24.209 25.1011 26.7856 23.5436 27.6823C23.1654 27.8967 22.7369 28.0062 22.3022 27.9997V27.9997ZM18.0841 24.5166C19.6923 26.0815 21.2128 26.9696 22.3022 26.9696C22.5801 26.9696 22.8247 26.9078 23.0297 26.7905C24.0537 26.2001 24.2353 24.1448 23.5287 21.3755C22.4294 21.6201 21.3178 21.7955 20.1963 21.8931C19.5512 22.8134 18.8455 23.6898 18.0841 24.5166V24.5166Z" fill="black"/>
<path d="M24.2563 13.8509L23.7684 13.7286C22.4876 13.4124 21.183 13.2022 19.8677 13.0999L19.6281 13.0789L19.4897 12.8788C18.7424 11.7938 17.9075 10.7718 16.9935 9.82301L16.6439 9.46358L16.9935 9.10538C19.5626 6.46953 22.0157 5.42582 23.5436 6.30773C25.1023 7.20569 25.4124 9.77855 24.3934 13.3692L24.2563 13.8509ZM20.1963 12.0957C21.3746 12.2007 22.4912 12.3773 23.5287 12.6108C24.234 9.84154 24.0537 7.78993 23.0297 7.19952C22.012 6.61034 20.0962 7.51201 18.0841 9.47346C18.845 10.301 19.5515 11.1755 20.1963 12.0957ZM12.4246 27.9997C11.99 28.0059 11.5615 27.8964 11.1832 27.6823C9.62323 26.7856 9.31444 24.2102 10.3334 20.6196L10.4668 20.1367L10.9547 20.2602C12.1454 20.5603 13.4572 20.7715 14.8554 20.8864L15.095 20.9099L15.2346 21.1075C15.9806 22.192 16.8156 23.2159 17.7296 24.167L18.0804 24.5252L17.7296 24.8846C15.7744 26.8943 13.8895 27.9997 12.4246 27.9997V27.9997ZM11.1981 21.3768C10.494 24.146 10.6744 26.2013 11.6971 26.7917C12.7161 27.3723 14.6257 26.4768 16.6439 24.5166C15.883 23.6889 15.1762 22.813 14.5281 21.8943C13.4079 21.7952 12.2955 21.6224 11.1981 21.3768V21.3768Z" fill="black"/>
<path d="M17.364 22.0252C16.5155 22.0252 15.6447 21.9894 14.7702 21.9165L14.5281 21.8955L14.3885 21.6954C13.8954 20.9863 13.4314 20.2574 12.9977 19.5104C12.5672 18.7615 12.1671 17.9954 11.7984 17.2142L11.6946 16.9956L11.7984 16.7745C12.1677 15.9939 12.5666 15.2281 12.9977 14.4796C13.4263 13.7434 13.8944 13.0073 14.3885 12.2933L14.5281 12.0957L14.7702 12.0735C16.4956 11.929 18.23 11.929 19.9554 12.0735L20.195 12.0969L20.3346 12.2946C21.3225 13.7135 22.1901 15.2124 22.9285 16.7758L23.031 16.9969L22.9285 17.2155C22.1922 18.7799 21.3244 20.279 20.3346 21.6967L20.195 21.8968L19.9554 21.9178C19.0834 21.9882 18.2114 22.0252 17.364 22.0252V22.0252ZM15.0987 20.9086C16.6242 21.0235 18.1039 21.0235 19.6281 20.9086C20.479 19.6626 21.2354 18.3546 21.8909 16.9956C21.2377 15.6354 20.4812 14.3272 19.6281 13.0826C18.1205 12.9665 16.6063 12.9665 15.0987 13.0826C14.2449 14.3268 13.4884 15.635 12.8359 16.9956C13.4929 18.3539 14.2492 19.6618 15.0987 20.9086V20.9086Z" fill="black"/>
</svg>
