<svg width="56" height="56" viewBox="0 0 56 56" fill="none" xmlns="http://www.w3.org/2000/svg">
<rect width="56" height="56" rx="7" fill="#0D1117"/>
<path d="M41.0679 46H9.24328C6.88826 46 5 43.975 5 41.5V14.5C5 12.0025 6.88826 10 9.24328 10H21.9731L26.2164 14.5H41.0679C43.3953 14.5 45.3112 16.5317 45.3112 19H9.24328V41.5L13.7836 23.5H50L45.1627 42.625C44.6747 44.5825 43.0198 46 41.0679 46Z" fill="#00BCD4"/>
<path d="M37.0002 34.2399C38.2458 34.2399 39.2617 35.2444 39.2617 36.4999C39.2617 37.6957 38.2459 38.712 37.0002 38.712C35.7547 38.712 34.7388 37.6956 34.7388 36.4999C34.7388 35.2443 35.7546 34.2399 37.0002 34.2399V34.2399ZM31.4011 46.0664C32.163 46.5208 33.8318 45.8272 35.7546 44.0335C35.1258 43.328 34.509 42.5627 33.9286 41.7614C32.937 41.6658 31.9575 41.5223 31.0262 41.3309C30.4095 43.8899 30.6393 45.6478 31.4011 46.0664L31.4011 46.0664ZM32.2597 39.2024L31.909 38.5925C31.776 38.9393 31.643 39.2861 31.5584 39.6209C31.8849 39.6927 32.2477 39.7525 32.6225 39.8123C32.5016 39.609 32.3807 39.4057 32.2597 39.2024V39.2024ZM40.1685 38.2936L41.148 36.4999L40.1685 34.7063C39.8057 34.0725 39.4188 33.5105 39.0681 32.9484C38.415 32.9126 37.7257 32.9126 37.0002 32.9126C36.2746 32.9126 35.5853 32.9126 34.9323 32.9484C34.5816 33.5105 34.1946 34.0725 33.8318 34.7063L32.8523 36.4999L33.8318 38.2936C34.1946 38.9274 34.5816 39.4894 34.9323 40.0515C35.5853 40.0873 36.2746 40.0873 37.0002 40.0873C37.7257 40.0873 38.415 40.0873 39.0681 40.0515C39.4187 39.4894 39.8057 38.9274 40.1685 38.2936ZM37.0001 30.2578C36.7704 30.5209 36.5285 30.7959 36.2866 31.1188H37.0001H37.7136C37.4717 30.7959 37.2299 30.5209 37.0001 30.2578ZM37.0001 42.7421C37.2299 42.479 37.4717 42.204 37.7136 41.8811H37.0001H36.2866C36.5285 42.204 36.7704 42.479 37.0001 42.7421ZM42.587 26.9336C41.8373 26.4792 40.1684 27.1728 38.2456 28.9665C38.8745 29.672 39.4912 30.4373 40.0716 31.2386C41.0632 31.3342 42.0427 31.4777 42.9739 31.6691C43.5907 29.1101 43.3609 27.3522 42.587 26.9336L42.587 26.9336ZM41.7405 33.7976L42.0911 34.4075C42.2242 34.0607 42.3572 33.7139 42.4418 33.3791C42.1153 33.3073 41.7525 33.2476 41.3777 33.1878C41.4986 33.3911 41.6195 33.5943 41.7405 33.7976V33.7976ZM43.4939 25.3672C45.2717 26.3716 45.465 29.0144 44.7153 32.0995C47.7869 32.9964 50 34.4792 50 36.5C50 38.521 47.7869 40.0037 44.7153 40.9005C45.4651 43.9856 45.2716 46.6284 43.4939 47.6328C41.7284 48.6373 39.3218 47.4893 37.0001 45.301C34.6782 47.4893 32.2717 48.6373 30.494 47.6328C28.7285 46.6284 28.5349 43.9856 29.2847 40.9005C26.2131 40.0036 24 38.5208 24 36.5C24 34.4791 26.2131 32.9963 29.2847 32.0995C28.5349 29.0144 28.7284 26.3716 30.494 25.3672C32.2717 24.3627 34.6782 25.5106 37.0001 27.699C39.322 25.5107 41.7284 24.3627 43.4939 25.3672V25.3672ZM43.1432 36.5002C43.5544 37.397 43.9172 38.2938 44.2195 39.2027C46.759 38.4494 48.186 37.3732 48.186 36.5002C48.186 35.6272 46.7591 34.5511 44.2195 33.7976C43.9172 34.7064 43.5544 35.6034 43.1432 36.5002ZM30.8567 36.5002C30.4456 35.6033 30.0828 34.7065 29.7804 33.7976C27.2409 34.551 25.8139 35.6272 25.8139 36.5002C25.8139 37.3731 27.2409 38.4493 29.7804 39.2027C30.0828 38.2939 30.4455 37.397 30.8567 36.5002ZM41.7403 39.2027C41.6194 39.406 41.4985 39.6093 41.3776 39.8126C41.7525 39.7528 42.1152 39.693 42.4417 39.6212C42.3571 39.2864 42.2241 38.9396 42.091 38.5928L41.7403 39.2027V39.2027ZM38.2455 44.0338C40.1682 45.8274 41.8371 46.5211 42.5869 46.0667C43.3608 45.6481 43.5906 43.8903 42.9738 41.3313C42.0427 41.5226 41.0632 41.6661 40.0715 41.7618C39.491 42.563 38.8743 43.3283 38.2455 44.0339L38.2455 44.0338ZM32.2595 33.7977C32.3804 33.5944 32.5013 33.3911 32.6222 33.1878C32.2474 33.2476 31.8846 33.3074 31.5581 33.3791C31.6427 33.714 31.7757 34.0607 31.9088 34.4075L32.2595 33.7977V33.7977ZM35.7544 28.9666C33.8316 27.1729 32.1627 26.4792 31.4009 26.9337C30.639 27.3522 30.4093 29.1101 31.026 31.6691C31.9572 31.4778 32.9367 31.3343 33.9284 31.2386C34.5088 30.4374 35.1256 29.6721 35.7543 28.9665L35.7544 28.9666Z" fill="#B2EBF2"/>
</svg>
