<svg width="56" height="56" viewBox="0 0 56 56" fill="none" xmlns="http://www.w3.org/2000/svg">
<rect width="56" height="56" rx="7" fill="#0D1117"/>
<path d="M40.0679 44H8.24328C5.88826 44 4 41.975 4 39.5V12.5C4 10.0025 5.88826 8 8.24328 8H20.9731L25.2164 12.5H40.0679C42.3953 12.5 44.3112 14.5317 44.3112 17H8.24328V39.5L12.7836 21.5H49L44.1627 40.625C43.6747 42.5825 42.0198 44 40.0679 44Z" fill="#00BCD4"/>
<path d="M38.0002 34.2399C39.2458 34.2399 40.2617 35.2444 40.2617 36.4999C40.2617 37.6957 39.2459 38.712 38.0002 38.712C36.7547 38.712 35.7388 37.6956 35.7388 36.4999C35.7388 35.2443 36.7546 34.2399 38.0002 34.2399ZM32.4011 46.0664C33.163 46.5208 34.8318 45.8272 36.7546 44.0335C36.1258 43.328 35.509 42.5627 34.9286 41.7614C33.937 41.6658 32.9575 41.5223 32.0262 41.3309C31.4095 43.8899 31.6393 45.6478 32.4011 46.0664L32.4011 46.0664ZM33.2597 39.2024L32.909 38.5925C32.776 38.9393 32.643 39.2861 32.5584 39.6209C32.8849 39.6927 33.2477 39.7525 33.6225 39.8123C33.5016 39.609 33.3807 39.4057 33.2597 39.2024V39.2024ZM41.1685 38.2936L42.148 36.4999L41.1685 34.7063C40.8057 34.0725 40.4188 33.5105 40.0681 32.9484C39.415 32.9126 38.7257 32.9126 38.0002 32.9126C37.2746 32.9126 36.5853 32.9126 35.9323 32.9484C35.5816 33.5105 35.1946 34.0725 34.8318 34.7063L33.8523 36.4999L34.8318 38.2936C35.1946 38.9274 35.5816 39.4894 35.9323 40.0515C36.5853 40.0873 37.2746 40.0873 38.0002 40.0873C38.7257 40.0873 39.415 40.0873 40.0681 40.0515C40.4187 39.4894 40.8057 38.9274 41.1685 38.2936ZM38.0001 30.2578C37.7704 30.5209 37.5285 30.7959 37.2866 31.1188H38.0001H38.7136C38.4717 30.7959 38.2299 30.5209 38.0001 30.2578ZM38.0001 42.7421C38.2299 42.479 38.4717 42.204 38.7136 41.8811H38.0001H37.2866C37.5285 42.204 37.7704 42.479 38.0001 42.7421ZM43.587 26.9336C42.8373 26.4792 41.1684 27.1728 39.2456 28.9665C39.8745 29.672 40.4912 30.4373 41.0716 31.2386C42.0632 31.3342 43.0427 31.4777 43.9739 31.6691C44.5907 29.1101 44.3609 27.3522 43.587 26.9336L43.587 26.9336ZM42.7404 33.7976L43.0911 34.4075C43.2242 34.0607 43.3572 33.7139 43.4418 33.3791C43.1153 33.3073 42.7525 33.2476 42.3777 33.1878C42.4986 33.3911 42.6195 33.5943 42.7404 33.7976ZM44.4939 25.3672C46.2717 26.3716 46.465 29.0144 45.7153 32.0995C48.7869 32.9964 51 34.4792 51 36.5C51 38.521 48.7869 40.0037 45.7153 40.9005C46.4651 43.9856 46.2716 46.6284 44.4939 47.6328C42.7284 48.6373 40.3218 47.4893 38.0001 45.301C35.6782 47.4893 33.2717 48.6373 31.494 47.6328C29.7285 46.6284 29.5349 43.9856 30.2847 40.9005C27.2131 40.0036 25 38.5208 25 36.5C25 34.4791 27.2131 32.9963 30.2847 32.0995C29.5349 29.0144 29.7284 26.3716 31.494 25.3672C33.2717 24.3627 35.6782 25.5106 38.0001 27.699C40.322 25.5107 42.7284 24.3627 44.4939 25.3672ZM44.1432 36.5002C44.5544 37.397 44.9172 38.2938 45.2195 39.2027C47.7591 38.4494 49.186 37.3732 49.186 36.5002C49.186 35.6272 47.7591 34.5511 45.2195 33.7976C44.9172 34.7064 44.5544 35.6034 44.1432 36.5002ZM31.8567 36.5002C31.4456 35.6033 31.0828 34.7065 30.7804 33.7976C28.2409 34.551 26.8139 35.6272 26.8139 36.5002C26.8139 37.3731 28.2409 38.4493 30.7804 39.2027C31.0828 38.2939 31.4455 37.397 31.8567 36.5002ZM42.7403 39.2027C42.6194 39.406 42.4985 39.6093 42.3776 39.8126C42.7525 39.7528 43.1152 39.693 43.4417 39.6212C43.3571 39.2864 43.2241 38.9396 43.091 38.5928L42.7403 39.2027V39.2027ZM39.2455 44.0338C41.1682 45.8274 42.8371 46.5211 43.5869 46.0667C44.3608 45.6481 44.5906 43.8903 43.9738 41.3313C43.0427 41.5226 42.0632 41.6661 41.0715 41.7618C40.491 42.563 39.8743 43.3283 39.2455 44.0339L39.2455 44.0338ZM33.2595 33.7977C33.3804 33.5944 33.5013 33.3911 33.6222 33.1878C33.2474 33.2476 32.8846 33.3074 32.5581 33.3791C32.6427 33.714 32.7757 34.0607 32.9088 34.4075L33.2595 33.7977ZM36.7544 28.9666C34.8316 27.1729 33.1627 26.4792 32.4009 26.9337C31.639 27.3522 31.4093 29.1101 32.026 31.6691C32.9572 31.4778 33.9367 31.3343 34.9284 31.2386C35.5088 30.4374 36.1256 29.6721 36.7543 28.9665L36.7544 28.9666Z" fill="#B2EBF2"/>
</svg>
