<svg width="74" height="28.38" viewBox="0 0 74 29" fill="none" xmlns="http://www.w3.org/2000/svg">
<path d="M0 14.1918C0 6.35388 6.35388 0 14.1918 0H59.8082C67.6461 0 74 6.35388 74 14.1918V14.1918C74 22.0297 67.6461 28.3836 59.8082 28.3836H14.1918C6.35388 28.3836 0 22.0297 0 14.1918V14.1918Z" fill="#18BCEE"/>
<path d="M37.2534 15.7719C38.5234 15.7719 39.5529 14.7424 39.5529 13.4724C39.5529 12.2024 38.5234 11.1729 37.2534 11.1729C35.9834 11.1729 34.9539 12.2024 34.9539 13.4724C34.9539 14.7424 35.9834 15.7719 37.2534 15.7719Z" fill="#E5E5E5"/>
<path d="M30.8149 18.0444L30.306 17.9143C26.5263 16.9597 24.3582 15.3365 24.3582 13.4673C24.3582 11.5967 26.5276 9.97484 30.306 9.02025L30.8149 8.89142L30.9578 9.39513C31.3399 10.7139 31.8293 11.9991 32.4213 13.238L32.5308 13.4673L32.4213 13.6966C31.8287 14.9371 31.3379 16.2228 30.9578 17.542L30.8149 18.0444V18.0444ZM30.0715 10.1925C27.2 11.0016 25.4364 12.2357 25.4364 13.4673C25.4364 14.6962 27.1988 15.9317 30.0715 16.7394C30.4232 15.6212 30.8483 14.5275 31.3405 13.4673C30.8448 12.4053 30.4209 11.3112 30.0715 10.1925V10.1925ZM43.6908 18.0444L43.5491 17.5394C43.1661 16.2204 42.6762 14.9347 42.0844 13.6953L41.9749 13.4673L42.0844 13.2367C42.677 11.9987 43.1652 10.7117 43.5491 9.39255L43.6908 8.89014L44.1997 9.01896C47.9807 9.97355 50.1475 11.5954 50.1475 13.4673C50.1475 15.3378 47.9794 16.9597 44.1997 17.9143L43.6908 18.0444V18.0444ZM43.1627 13.4673C43.678 14.5829 44.1069 15.6805 44.4341 16.7394C47.3069 15.9317 49.0705 14.6962 49.0705 13.4673C49.0705 12.2357 47.3082 11.0029 44.4341 10.1925C44.0828 11.3109 43.6581 12.4048 43.1627 13.4673V13.4673Z" fill="#E5E5E5"/>
<path d="M30.0639 10.1878L29.9222 9.68542C28.8581 5.93922 29.1802 3.25581 30.8072 2.32054C32.3982 1.39945 34.9579 2.48802 37.6387 5.23841L38.0046 5.61458L37.6387 5.98946C36.6866 6.97971 35.8163 8.04558 35.0365 9.17657L34.8909 9.38526L34.6384 9.40587C33.2672 9.51357 31.907 9.73287 30.5715 10.0616L30.0639 10.1878V10.1878ZM32.1019 3.06515C31.8133 3.06515 31.5582 3.12827 31.3431 3.25194C30.2764 3.86643 30.0884 6.0062 30.8227 8.89444C31.9705 8.64066 33.1286 8.45902 34.2958 8.35725C34.9715 7.39886 35.7086 6.4853 36.5025 5.62231C34.8239 3.99011 33.2394 3.06515 32.1019 3.06515V3.06515ZM42.404 24.9446C40.8735 24.9446 38.9077 23.7904 36.8671 21.6957L36.5025 21.3208L36.8671 20.9472C37.8194 19.9554 38.6901 18.8883 39.4706 17.7563L39.6149 17.5501L39.8648 17.5257C41.2365 17.4199 42.5972 17.2014 43.9331 16.8725L44.4419 16.7437L44.5849 17.2474C45.6439 20.991 45.3231 23.6783 43.6986 24.6136C43.3042 24.8371 42.8573 24.9514 42.404 24.9446V24.9446ZM38.0046 21.3118C39.6819 22.944 41.2677 23.8702 42.404 23.8702C42.6938 23.8702 42.9489 23.8058 43.1627 23.6835C44.2307 23.0677 44.42 20.924 43.6832 18.0358C42.5366 18.2909 41.3772 18.4738 40.2075 18.5756C39.5347 19.5355 38.7987 20.4496 38.0046 21.3118V21.3118Z" fill="#E5E5E5"/>
<path d="M44.4421 10.1873L43.9333 10.0598C42.5974 9.73001 41.2368 9.5107 39.865 9.40405L39.6151 9.38215L39.4708 9.17345C38.6913 8.04184 37.8206 6.97591 36.8672 5.98634L36.5027 5.61146L36.8672 5.23787C39.5468 2.48876 42.1052 1.4002 43.6988 2.32C45.3246 3.25656 45.6479 5.93996 44.5851 9.68488L44.4421 10.1873ZM40.2077 8.35671C41.4366 8.46621 42.6012 8.65042 43.6833 8.8939C44.4189 6.00566 44.2308 3.86589 43.1629 3.25012C42.1014 2.63562 40.1033 3.57604 38.0048 5.62177C38.7983 6.48489 39.5352 7.39697 40.2077 8.35671ZM32.102 24.9441C31.6487 24.9506 31.2019 24.8363 30.8073 24.613C29.1803 23.6778 28.8582 20.9918 29.921 17.2469L30.0602 16.7432L30.569 16.872C31.8109 17.185 33.179 17.4053 34.6373 17.5251L34.8872 17.5496L35.0328 17.7557C35.8109 18.8868 36.6817 19.9547 37.635 20.9467L38.0009 21.3203L37.635 21.6952C35.5957 23.7911 33.6299 24.9441 32.102 24.9441V24.9441ZM30.8228 18.0366C30.0885 20.9248 30.2766 23.0684 31.3433 23.6842C32.4061 24.2897 34.3977 23.3557 36.5027 21.3113C35.7091 20.448 34.9719 19.5345 34.2959 18.5763C33.1276 18.473 31.9674 18.2927 30.8228 18.0366V18.0366Z" fill="#E5E5E5"/>
<path d="M37.2532 18.7133C36.3682 18.7133 35.46 18.676 34.5479 18.6L34.2954 18.5781L34.1498 18.3694C33.6355 17.6298 33.1516 16.8695 32.6993 16.0905C32.2503 15.3093 31.833 14.5104 31.4484 13.6956L31.3402 13.4676L31.4484 13.237C31.8336 12.4228 32.2497 11.6241 32.6993 10.8435C33.1463 10.0757 33.6345 9.30787 34.1498 8.56327L34.2954 8.35715L34.5479 8.33396C36.3474 8.18324 38.1564 8.18324 39.956 8.33396L40.2059 8.35844L40.3514 8.56456C41.3818 10.0444 42.2867 11.6078 43.0568 13.2383L43.1637 13.4689L43.0568 13.6969C42.2888 15.3286 41.3838 16.8921 40.3514 18.3707L40.2059 18.5794L39.956 18.6013C39.0465 18.6747 38.137 18.7133 37.2532 18.7133ZM34.8906 17.5488C36.4816 17.6686 38.0249 17.6686 39.6146 17.5488C40.502 16.2492 41.2909 14.885 41.9746 13.4676C41.2933 12.0489 40.5043 10.6846 39.6146 9.38646C38.0422 9.26536 36.4629 9.26536 34.8906 9.38646C34.0001 10.6841 33.211 12.0485 32.5305 13.4676C33.2157 14.8842 34.0045 16.2483 34.8906 17.5488Z" fill="#E5E5E5"/>
</svg>
