<svg width="32" height="32" viewBox="0 0 32 32" fill="none" xmlns="http://www.w3.org/2000/svg">
<circle cx="16" cy="16" r="15.5" fill="#4AD5FF" stroke="white"/>
<path d="M16.364 18.2053C17.5817 18.2053 18.5688 17.2182 18.5688 16.0005C18.5688 14.7829 17.5817 13.7958 16.364 13.7958C15.1464 13.7958 14.1592 14.7829 14.1592 16.0005C14.1592 17.2182 15.1464 18.2053 16.364 18.2053Z" fill="black"/>
<path d="M10.1907 20.3842L9.70277 20.2594C6.07879 19.3441 4 17.7878 4 15.9956C4 14.2021 6.08002 12.6471 9.70277 11.7318L10.1907 11.6083L10.3278 12.0912C10.694 13.3557 11.1633 14.588 11.7309 15.7757L11.8359 15.9956L11.7309 16.2155C11.1627 17.4049 10.6921 18.6376 10.3278 19.9024L10.1907 20.3842V20.3842ZM9.47797 12.8558C6.72478 13.6315 5.03383 14.8148 5.03383 15.9956C5.03383 17.174 6.72354 18.3585 9.47797 19.1329C9.81517 18.0608 10.2228 17.0121 10.6946 15.9956C10.2194 14.9774 9.8129 13.9284 9.47797 12.8558V12.8558ZM22.5362 20.3842L22.4003 19.9C22.033 18.6353 21.5634 17.4026 20.9959 16.2142L20.8909 15.9956L20.9959 15.7745C21.5641 14.5875 22.0322 13.3536 22.4003 12.0888L22.5362 11.6071L23.024 11.7306C26.6493 12.6458 28.7268 14.2009 28.7268 15.9956C28.7268 17.7891 26.648 19.3441 23.024 20.2594L22.5362 20.3842V20.3842ZM22.0297 15.9956C22.5238 17.0653 22.9351 18.1176 23.2488 19.1329C26.0033 18.3585 27.6942 17.174 27.6942 15.9956C27.6942 14.8148 26.0045 13.6327 23.2488 12.8558C22.912 13.9281 22.5047 14.977 22.0297 15.9956V15.9956Z" fill="black"/>
<path d="M9.47056 12.8509L9.33469 12.3692C8.31444 8.7773 8.62323 6.20445 10.1833 5.30772C11.7087 4.42457 14.163 5.46829 16.7333 8.10537L17.0841 8.46604L16.7333 8.82548C15.8204 9.77493 14.986 10.7969 14.2383 11.8813L14.0987 12.0814L13.8566 12.1011C12.5419 12.2044 11.2378 12.4147 9.95722 12.7298L9.47056 12.8509V12.8509ZM11.4246 6.02165C11.1479 6.02165 10.9034 6.08217 10.6971 6.20075C9.67436 6.78992 9.49403 8.84153 10.1981 11.6108C11.2986 11.3675 12.409 11.1933 13.5281 11.0957C14.1759 10.1768 14.8827 9.30089 15.6439 8.47345C14.0345 6.9085 12.5152 6.02165 11.4246 6.02165V6.02165ZM21.3022 26.9997C19.8348 26.9997 17.95 25.893 15.9935 23.8846L15.6439 23.5252L15.9935 23.167C16.9066 22.216 17.7414 21.1929 18.4898 20.1075L18.6281 19.9099L18.8677 19.8864C20.1829 19.785 21.4875 19.5755 22.7684 19.2602L23.2563 19.1367L23.3934 19.6196C24.4087 23.209 24.1011 25.7856 22.5436 26.6823C22.1654 26.8967 21.7369 27.0062 21.3022 26.9997V26.9997ZM17.0841 23.5166C18.6923 25.0815 20.2128 25.9696 21.3022 25.9696C21.5801 25.9696 21.8247 25.9078 22.0297 25.7905C23.0537 25.2001 23.2353 23.1448 22.5287 20.3755C21.4294 20.6201 20.3178 20.7955 19.1963 20.8931C18.5512 21.8134 17.8455 22.6898 17.0841 23.5166V23.5166Z" fill="black"/>
<path d="M23.2563 12.8509L22.7684 12.7286C21.4876 12.4124 20.183 12.2022 18.8677 12.0999L18.6281 12.0789L18.4897 11.8788C17.7424 10.7938 16.9075 9.77182 15.9935 8.82301L15.6439 8.46358L15.9935 8.10538C18.5626 5.46953 21.0157 4.42582 22.5436 5.30773C24.1023 6.20569 24.4124 8.77855 23.3934 12.3692L23.2563 12.8509ZM19.1963 11.0957C20.3746 11.2007 21.4912 11.3773 22.5287 11.6108C23.234 8.84154 23.0537 6.78993 22.0297 6.19952C21.012 5.61034 19.0962 6.51201 17.0841 8.47346C17.845 9.30102 18.5515 10.1755 19.1963 11.0957ZM11.4246 26.9997C10.99 27.0059 10.5615 26.8964 10.1832 26.6823C8.62323 25.7856 8.31444 23.2102 9.33345 19.6196L9.46685 19.1367L9.95474 19.2602C11.1454 19.5603 12.4572 19.7715 13.8554 19.8864L14.095 19.9099L14.2346 20.1075C14.9806 21.192 15.8156 22.2159 16.7296 23.167L17.0804 23.5252L16.7296 23.8846C14.7744 25.8943 12.8895 26.9997 11.4246 26.9997V26.9997ZM10.1981 20.3768C9.49402 23.146 9.67435 25.2013 10.6971 25.7917C11.7161 26.3723 13.6257 25.4768 15.6439 23.5166C14.883 22.6889 14.1762 21.813 13.5281 20.8943C12.4079 20.7952 11.2955 20.6224 10.1981 20.3768V20.3768Z" fill="black"/>
<path d="M16.364 21.0252C15.5155 21.0252 14.6447 20.9894 13.7702 20.9165L13.5281 20.8955L13.3885 20.6954C12.8954 19.9863 12.4314 19.2574 11.9977 18.5104C11.5672 17.7615 11.1671 16.9954 10.7984 16.2142L10.6946 15.9956L10.7984 15.7745C11.1677 14.9939 11.5666 14.2281 11.9977 13.4796C12.4263 12.7434 12.8944 12.0073 13.3885 11.2933L13.5281 11.0957L13.7702 11.0735C15.4956 10.929 17.23 10.929 18.9554 11.0735L19.195 11.0969L19.3346 11.2946C20.3225 12.7135 21.1901 14.2124 21.9285 15.7758L22.031 15.9969L21.9285 16.2155C21.1922 17.7799 20.3244 19.279 19.3346 20.6967L19.195 20.8968L18.9554 20.9178C18.0834 20.9882 17.2114 21.0252 16.364 21.0252V21.0252ZM14.0987 19.9086C15.6242 20.0235 17.1039 20.0235 18.6281 19.9086C19.479 18.6626 20.2354 17.3546 20.8909 15.9956C20.2377 14.6354 19.4812 13.3272 18.6281 12.0826C17.1205 11.9665 15.6063 11.9665 14.0987 12.0826C13.2449 13.3268 12.4884 14.635 11.8359 15.9956C12.4929 17.3539 13.2492 18.6618 14.0987 19.9086V19.9086Z" fill="black"/>
</svg>
