<svg width="146" height="56" viewBox="0 0 146 56" fill="none" xmlns="http://www.w3.org/2000/svg">
<path d="M0 17C0 7.61116 7.61116 0 17 0H129C138.389 0 146 7.61116 146 17V39C146 48.3888 138.389 56 129 56H17C7.61116 56 0 48.3888 0 39V17Z" fill="#18BCEE"/>
<path d="M73.5 31.1179C76.0056 31.1179 78.0369 29.0867 78.0369 26.5811C78.0369 24.0754 76.0056 22.0442 73.5 22.0442C70.9943 22.0442 68.9631 24.0754 68.9631 26.5811C68.9631 29.0867 70.9943 31.1179 73.5 31.1179Z" fill="#E5E5E5"/>
<path d="M60.7967 35.6014L59.7928 35.3447C52.3355 33.4613 48.0579 30.2588 48.0579 26.5709C48.0579 22.8804 52.3381 19.6804 59.7928 17.7971L60.7967 17.5429L61.0788 18.5367C61.8326 21.1386 62.7982 23.6743 63.9662 26.1185L64.1822 26.5709L63.9662 27.0233C62.797 29.4709 61.8286 32.0075 61.0788 34.6102L60.7967 35.6014V35.6014ZM59.3302 20.11C53.6648 21.7061 50.1853 24.1411 50.1853 26.5709C50.1853 28.9956 53.6623 31.4331 59.3302 33.0267C60.0241 30.8205 60.8628 28.6627 61.8337 26.5709C60.8558 24.4756 60.0194 22.3171 59.3302 20.11V20.11ZM86.2007 35.6014L85.9211 34.6051C85.1654 32.0027 84.1989 29.4662 83.0312 27.0208L82.8152 26.5709L83.0312 26.1159C84.2004 23.6734 85.1637 21.1343 85.9211 18.5316L86.2007 17.5403L87.2046 17.7945C94.6644 19.6779 98.9395 22.8778 98.9395 26.5709C98.9395 30.2614 94.6619 33.4613 87.2046 35.3447L86.2007 35.6014V35.6014ZM85.1586 26.5709C86.1753 28.772 87.0216 30.9375 87.6672 33.0267C93.3351 31.4331 96.8147 28.9956 96.8147 26.5709C96.8147 24.1411 93.3377 21.7087 87.6672 20.11C86.974 22.3164 86.136 24.4748 85.1586 26.5709V26.5709Z" fill="#E5E5E5"/>
<path d="M59.3149 20.0998L59.0353 19.1085C56.9359 11.7174 57.5713 6.42307 60.7815 4.57782C63.9204 2.76053 68.9707 4.90824 74.2599 10.3347L74.9818 11.0769L74.2599 11.8165C72.3813 13.7702 70.6643 15.8732 69.1258 18.1046L68.8386 18.5163L68.3404 18.557C65.635 18.7695 62.9514 19.2021 60.3164 19.8507L59.3149 20.0998V20.0998ZM63.3359 6.0469C62.7665 6.0469 62.2633 6.17144 61.8388 6.41544C59.7343 7.62782 59.3632 11.8495 60.812 17.5479C63.0766 17.0472 65.3616 16.6889 67.6643 16.4881C68.9975 14.5972 70.4518 12.7948 72.0182 11.0921C68.7064 7.87182 65.5801 6.0469 63.3359 6.0469V6.0469ZM83.6616 49.2146C80.6421 49.2146 76.7635 46.9372 72.7375 42.8045L72.0182 42.0649L72.7375 41.3278C74.6164 39.3709 76.3342 37.2655 77.8742 35.0321L78.1589 34.6254L78.6519 34.5771C81.3583 34.3684 84.0429 33.9374 86.6785 33.2885L87.6825 33.0343L87.9646 34.0281C90.0539 41.4142 89.421 46.7161 86.2159 48.5614C85.4377 49.0025 84.556 49.228 83.6616 49.2146V49.2146ZM74.9818 42.0471C78.291 45.2674 81.4198 47.0948 83.6616 47.0948C84.2334 47.0948 84.7367 46.9677 85.1586 46.7263C87.2656 45.5114 87.6393 41.282 86.1854 35.5836C83.9233 36.0869 81.6359 36.4478 79.328 36.6486C78.0005 38.5424 76.5486 40.3459 74.9818 42.0471V42.0471Z" fill="#E5E5E5"/>
<path d="M87.6825 20.0998L86.6785 19.8482C84.043 19.1976 81.3584 18.7649 78.652 18.5545L78.1589 18.5112L77.8742 18.0995C76.3364 15.8669 74.6184 13.7638 72.7375 11.8114L72.0182 11.0718L72.7375 10.3347C78.0242 4.91079 83.0719 2.76308 86.216 4.57783C89.4236 6.42562 90.0615 11.7199 87.9646 19.1085L87.6825 20.0998ZM79.328 16.4881C81.7528 16.7041 84.0505 17.0676 86.1855 17.548C87.6368 11.8495 87.2657 7.62783 85.1586 6.41291C83.0643 5.20053 79.1222 7.05595 74.9818 11.0921C76.5475 12.795 78.0013 14.5945 79.328 16.4881ZM63.3359 49.2146C62.4415 49.2273 61.5599 49.0019 60.7815 48.5614C57.5714 46.7161 56.936 41.4167 59.0328 34.0281L59.3073 33.0343L60.3113 33.2885C62.7615 33.9061 65.4607 34.3407 68.3379 34.5771L68.831 34.6254L69.1182 35.0321C70.6533 37.2637 72.3715 39.3707 74.2523 41.3278L74.9742 42.0649L74.2523 42.8045C70.2289 46.9398 66.3503 49.2146 63.3359 49.2146V49.2146ZM60.812 35.5862C59.3633 41.2846 59.7343 45.5139 61.8388 46.7288C63.9357 47.9234 67.8651 46.0807 72.0182 42.0471C70.4524 40.3439 68.9981 38.5415 67.6643 36.6511C65.3593 36.4473 63.0702 36.0915 60.812 35.5862V35.5862Z" fill="#E5E5E5"/>
<path d="M73.5 36.9205C71.7539 36.9205 69.962 36.8468 68.1625 36.6969L67.6644 36.6537L67.3771 36.2419C66.3624 34.7827 65.4076 33.2828 64.5152 31.7457C63.6294 30.2045 62.8061 28.6283 62.0473 27.0208L61.8338 26.5709L62.0473 26.1159C62.8072 24.5096 63.6282 22.9338 64.5152 21.3935C65.3972 19.8787 66.3605 18.3638 67.3771 16.8947L67.6644 16.4881L68.1625 16.4423C71.7129 16.145 75.282 16.145 78.8324 16.4423L79.3255 16.4906L79.6127 16.8973C81.6455 19.817 83.4309 22.9015 84.9502 26.1185L85.1612 26.5734L84.9502 27.0233C83.4351 30.2425 81.6495 33.3273 79.6127 36.2445L79.3255 36.6562L78.8324 36.6994C77.038 36.8443 75.2436 36.9205 73.5 36.9205ZM68.8386 34.6229C71.9776 34.8593 75.0225 34.8593 78.1589 34.6229C79.9098 32.0589 81.4663 29.3673 82.8152 26.5709C81.471 23.7719 79.9144 21.08 78.1589 18.5189C75.0567 18.28 71.9408 18.28 68.8386 18.5189C67.0817 21.0791 65.5249 23.7711 64.1823 26.5709C65.5341 29.3658 67.0905 32.0571 68.8386 34.6229Z" fill="#E5E5E5"/>
</svg>
