<svg width="47" height="40" viewBox="0 0 47 40" fill="none" xmlns="http://www.w3.org/2000/svg">
<path d="M36.0679 36H4.24328C1.88826 36 0 33.975 0 31.5V4.5C0 2.0025 1.88826 0 4.24328 0H16.9731L21.2164 4.5H36.0679C38.3953 4.5 40.3112 6.53175 40.3112 9H4.24328V31.5L8.78359 13.5H45L40.1627 32.625C39.6747 34.5825 38.0198 36 36.0679 36Z" fill="#00BCD4"/>
<path d="M34.0002 26.2399C35.2458 26.2399 36.2617 27.2444 36.2617 28.4999C36.2617 29.6957 35.2459 30.712 34.0002 30.712C32.7547 30.712 31.7388 29.6956 31.7388 28.4999C31.7388 27.2443 32.7546 26.2399 34.0002 26.2399V26.2399ZM28.4011 38.0664C29.163 38.5208 30.8318 37.8272 32.7546 36.0335C32.1258 35.328 31.509 34.5627 30.9286 33.7614C29.937 33.6658 28.9575 33.5223 28.0262 33.3309C27.4095 35.8899 27.6393 37.6478 28.4011 38.0664L28.4011 38.0664ZM29.2597 31.2024L28.909 30.5925C28.776 30.9393 28.643 31.2861 28.5584 31.6209C28.8849 31.6927 29.2477 31.7525 29.6225 31.8123C29.5016 31.609 29.3807 31.4057 29.2597 31.2024V31.2024ZM37.1685 30.2936L38.148 28.4999L37.1685 26.7063C36.8057 26.0725 36.4188 25.5105 36.0681 24.9484C35.415 24.9126 34.7257 24.9126 34.0002 24.9126C33.2746 24.9126 32.5853 24.9126 31.9323 24.9484C31.5816 25.5105 31.1946 26.0725 30.8318 26.7063L29.8523 28.4999L30.8318 30.2936C31.1946 30.9274 31.5816 31.4894 31.9323 32.0515C32.5853 32.0873 33.2746 32.0873 34.0002 32.0873C34.7257 32.0873 35.415 32.0873 36.0681 32.0515C36.4187 31.4894 36.8057 30.9274 37.1685 30.2936ZM34.0001 22.2578C33.7704 22.5209 33.5285 22.7959 33.2866 23.1188H34.0001H34.7136C34.4717 22.7959 34.2299 22.5209 34.0001 22.2578ZM34.0001 34.7421C34.2299 34.479 34.4717 34.204 34.7136 33.8811H34.0001H33.2866C33.5285 34.204 33.7704 34.479 34.0001 34.7421ZM39.587 18.9336C38.8373 18.4792 37.1684 19.1728 35.2456 20.9665C35.8745 21.672 36.4912 22.4373 37.0716 23.2386C38.0632 23.3342 39.0427 23.4777 39.9739 23.6691C40.5907 21.1101 40.3609 19.3522 39.587 18.9336L39.587 18.9336ZM38.7405 25.7976L39.0911 26.4075C39.2242 26.0607 39.3572 25.7139 39.4418 25.3791C39.1153 25.3073 38.7525 25.2476 38.3777 25.1878C38.4986 25.3911 38.6195 25.5943 38.7405 25.7976V25.7976ZM40.4939 17.3672C42.2717 18.3716 42.465 21.0144 41.7153 24.0995C44.7869 24.9964 47 26.4792 47 28.5C47 30.521 44.7869 32.0037 41.7153 32.9005C42.4651 35.9856 42.2716 38.6284 40.4939 39.6328C38.7284 40.6373 36.3218 39.4893 34.0001 37.301C31.6782 39.4893 29.2717 40.6373 27.494 39.6328C25.7285 38.6284 25.5349 35.9856 26.2847 32.9005C23.2131 32.0036 21 30.5208 21 28.5C21 26.4791 23.2131 24.9963 26.2847 24.0995C25.5349 21.0144 25.7284 18.3716 27.494 17.3672C29.2717 16.3627 31.6782 17.5106 34.0001 19.699C36.322 17.5107 38.7284 16.3627 40.4939 17.3672V17.3672ZM40.1432 28.5002C40.5544 29.397 40.9172 30.2938 41.2195 31.2027C43.759 30.4494 45.186 29.3732 45.186 28.5002C45.186 27.6272 43.7591 26.5511 41.2195 25.7976C40.9172 26.7064 40.5544 27.6034 40.1432 28.5002ZM27.8567 28.5002C27.4456 27.6033 27.0828 26.7065 26.7804 25.7976C24.2409 26.551 22.8139 27.6272 22.8139 28.5002C22.8139 29.3731 24.2409 30.4493 26.7804 31.2027C27.0828 30.2939 27.4455 29.397 27.8567 28.5002ZM38.7403 31.2027C38.6194 31.406 38.4985 31.6093 38.3776 31.8126C38.7525 31.7528 39.1152 31.693 39.4417 31.6212C39.3571 31.2864 39.2241 30.9396 39.091 30.5928L38.7403 31.2027V31.2027ZM35.2455 36.0338C37.1682 37.8274 38.8371 38.5211 39.5869 38.0667C40.3608 37.6481 40.5906 35.8903 39.9738 33.3313C39.0427 33.5226 38.0632 33.6661 37.0715 33.7618C36.491 34.563 35.8743 35.3283 35.2455 36.0339L35.2455 36.0338ZM29.2595 25.7977C29.3804 25.5944 29.5013 25.3911 29.6222 25.1878C29.2474 25.2476 28.8846 25.3074 28.5581 25.3791C28.6427 25.714 28.7757 26.0607 28.9088 26.4075L29.2595 25.7977V25.7977ZM32.7544 20.9666C30.8316 19.1729 29.1627 18.4792 28.4009 18.9337C27.639 19.3522 27.4093 21.1101 28.026 23.6691C28.9572 23.4778 29.9367 23.3343 30.9284 23.2386C31.5088 22.4374 32.1256 21.6721 32.7543 20.9665L32.7544 20.9666Z" fill="#B2EBF2"/>
</svg>
