<svg width="56" height="56" viewBox="0 0 56 56" fill="none" xmlns="http://www.w3.org/2000/svg">
<rect width="56" height="56" rx="7" fill="#0D1117"/>
<path d="M40.0425 44H8.24029C5.88693 44 4 41.975 4 39.5V12.5C4 10.0025 5.88693 8 8.24029 8H20.9612L25.2015 12.5H40.0425C42.3683 12.5 44.2828 14.5317 44.2828 17H8.24029V39.5L12.7774 21.5H48.9683L44.1344 40.625C43.6467 42.5825 41.993 44 40.0425 44Z" fill="#0288D1"/>
<path fill-rule="evenodd" clip-rule="evenodd" d="M44.0096 28.0001C43.7425 27.9992 43.4972 28.0061 43.314 28.0236C41.881 28.1493 40.5426 28.7806 39.6266 29.763C39.1676 30.2551 38.7519 30.9608 38.5488 31.5926C38.325 32.2888 38.3266 32.2754 38.3277 33.3662C38.3289 34.7595 38.3991 35.1045 38.869 36.0311C39.3415 36.9629 40.0614 37.7241 41.1002 38.39C41.5554 38.6819 42.7211 39.2682 43.673 39.6842C45.7451 40.5897 46.4006 41.0075 46.7048 41.6166L46.8304 41.8681V42.3948C46.8304 42.903 46.8284 42.9292 46.7259 43.1387C46.4922 43.6236 45.9405 44.0205 45.2339 44.2124C44.9668 44.2847 44.8444 44.295 44.2473 44.2952C43.6629 44.2952 43.521 44.2832 43.2531 44.2158C42.7854 44.0966 42.3914 43.9313 42.0834 43.7255C41.7062 43.4736 40.9647 42.7183 40.663 42.279C40.5299 42.0849 40.3961 41.926 40.3662 41.926C40.3165 41.926 37.7597 43.4006 37.3134 43.6866C37.163 43.7831 37.1249 43.8269 37.1249 43.9042C37.1249 44.0645 37.7223 44.9754 38.1903 45.5287C39.1436 46.6561 41.0556 47.6501 42.7492 47.8989C43.4187 47.9972 44.5307 48.029 45.3077 47.9713C45.8167 47.9337 46.3313 47.8361 46.8842 47.6726C48.8846 47.0807 50.2495 45.8232 50.7551 44.1059C50.9614 43.4053 51.0448 42.5436 50.9767 41.8167C50.837 40.3252 50.3825 39.2708 49.4854 38.3575C48.6524 37.5095 47.5087 36.8261 45.2515 35.8277C43.2945 34.962 42.7838 34.6259 42.5017 34.0178C42.2582 33.4928 42.3046 32.7704 42.611 32.3215C42.9694 31.796 43.7011 31.5364 44.517 31.6454C45.2757 31.7465 45.7664 32.0498 46.2471 32.7143C46.4967 33.0595 46.67 33.2392 46.7531 33.2392C46.835 33.2392 47.188 33.0195 48.2836 32.2857C49.3989 31.5389 49.7496 31.2854 49.7736 31.209C49.8109 31.0906 49.6361 30.8135 49.1248 30.1807C48.0981 28.9104 46.8911 28.236 45.3414 28.0669C44.9608 28.0253 44.4548 28.0015 44.0096 28.0001ZM31.6809 28.2156C30.7609 28.215 29.71 28.2156 28.5422 28.2168C22.4867 28.2228 21.0812 28.2328 21.0433 28.2722C21.0064 28.3094 20.9968 28.6839 20.9968 30.082V31.8447L23.7506 31.8548L26.5044 31.8648L26.505 39.728C26.5052 44.0528 26.5149 47.6277 26.5283 47.6726L26.549 47.7542H28.5504C30.3421 47.7542 30.5539 47.7502 30.5732 47.6971C30.5852 47.6655 30.594 44.0906 30.594 39.7525V31.8652L33.3477 31.8552L36.1015 31.8451V30.0612C36.1015 28.5149 36.0955 28.2727 36.0477 28.2428C36.0224 28.2267 34.4409 28.217 31.6809 28.2156Z" fill="#90CAF9"/>
</svg>
