<svg width="47" height="40" viewBox="0 0 47 40" fill="none" xmlns="http://www.w3.org/2000/svg">
<path d="M36.0425 36H4.24029C1.88693 36 0 33.975 0 31.5V4.5C0 2.0025 1.88693 0 4.24029 0H16.9612L21.2015 4.5H36.0425C38.3683 4.5 40.2828 6.53175 40.2828 9H4.24029V31.5L8.77741 13.5H44.9683L40.1344 32.625C39.6467 34.5825 37.993 36 36.0425 36Z" fill="#0288D1"/>
<path fill-rule="evenodd" clip-rule="evenodd" d="M40.0096 20.0001C39.7425 19.9992 39.4972 20.0061 39.314 20.0236C37.881 20.1493 36.5426 20.7806 35.6266 21.763C35.1676 22.2551 34.7519 22.9608 34.5488 23.5926C34.325 24.2888 34.3266 24.2754 34.3277 25.3662C34.3289 26.7595 34.3991 27.1045 34.869 28.0311C35.3415 28.9629 36.0614 29.7241 37.1002 30.39C37.5554 30.6819 38.7211 31.2682 39.673 31.6842C41.7451 32.5897 42.4006 33.0075 42.7048 33.6166L42.8304 33.8681V34.3948C42.8304 34.903 42.8284 34.9292 42.7259 35.1387C42.4922 35.6236 41.9405 36.0205 41.2339 36.2124C40.9668 36.2847 40.8444 36.295 40.2473 36.2952C39.6629 36.2952 39.521 36.2832 39.2531 36.2158C38.7854 36.0966 38.3914 35.9313 38.0834 35.7255C37.7062 35.4736 36.9647 34.7183 36.663 34.279C36.5299 34.0849 36.3961 33.926 36.3662 33.926C36.3165 33.926 33.7597 35.4006 33.3134 35.6866C33.163 35.7831 33.1249 35.8269 33.1249 35.9042C33.1249 36.0645 33.7223 36.9754 34.1903 37.5287C35.1436 38.6561 37.0556 39.6501 38.7492 39.8989C39.4187 39.9972 40.5307 40.029 41.3077 39.9713C41.8167 39.9337 42.3313 39.8361 42.8842 39.6726C44.8846 39.0807 46.2495 37.8232 46.7551 36.1059C46.9614 35.4053 47.0448 34.5436 46.9767 33.8167C46.837 32.3252 46.3825 31.2708 45.4854 30.3575C44.6524 29.5095 43.5087 28.8261 41.2515 27.8277C39.2945 26.962 38.7838 26.6259 38.5017 26.0178C38.2582 25.4928 38.3046 24.7704 38.611 24.3215C38.9694 23.796 39.7011 23.5364 40.517 23.6454C41.2757 23.7465 41.7664 24.0498 42.2471 24.7143C42.4967 25.0595 42.67 25.2392 42.7531 25.2392C42.835 25.2392 43.188 25.0195 44.2836 24.2857C45.3989 23.5389 45.7496 23.2854 45.7736 23.209C45.8109 23.0906 45.6361 22.8135 45.1248 22.1807C44.0981 20.9104 42.8911 20.236 41.3414 20.0669C40.9608 20.0253 40.4548 20.0015 40.0096 20.0001ZM27.6809 20.2156C26.7609 20.215 25.71 20.2156 24.5422 20.2168C18.4867 20.2228 17.0812 20.2328 17.0433 20.2722C17.0064 20.3094 16.9968 20.6839 16.9968 22.082V23.8447L19.7506 23.8548L22.5044 23.8648L22.505 31.728C22.5052 36.0528 22.5149 39.6277 22.5283 39.6726L22.549 39.7542H24.5504C26.3421 39.7542 26.5539 39.7502 26.5732 39.6971C26.5852 39.6655 26.594 36.0906 26.594 31.7525V23.8652L29.3477 23.8552L32.1015 23.8451V22.0612C32.1015 20.5149 32.0955 20.2727 32.0477 20.2428C32.0224 20.2267 30.4409 20.217 27.6809 20.2156Z" fill="#90CAF9"/>
</svg>
