<svg width="32" height="32" viewBox="0 0 32 32" fill="none" xmlns="http://www.w3.org/2000/svg">
<circle cx="16" cy="16" r="15.5" fill="#3178C6" stroke="white"/>
<g filter="url(#filter0_d)">
<path d="M24.2383 9.13475C25.0233 9.31558 25.7367 9.72259 26.2883 10.3044C26.5922 10.6193 26.8561 10.9698 27.074 11.3481C27.0842 11.3892 25.6594 12.337 24.7953 12.8657C24.7639 12.8867 24.6394 12.7524 24.4984 12.5461C24.3405 12.2774 24.1164 12.0528 23.8471 11.8931C23.5778 11.7334 23.272 11.6439 22.9583 11.633C21.9651 11.5654 21.3251 12.0804 21.3297 12.9415C21.3211 13.153 21.3698 13.363 21.4708 13.5496C21.6893 13.997 22.0951 14.2655 23.3696 14.8124C25.7156 15.8122 26.7227 16.4715 27.3442 17.4083C27.6956 18.0003 27.912 18.6611 27.9782 19.3445C28.0445 20.028 27.959 20.7175 27.7279 21.3648C27.4102 22.0747 26.9063 22.6874 26.2687 23.1394C25.6311 23.5914 24.8829 23.8661 24.1018 23.9352C23.2715 24.0295 22.4326 24.0209 21.6045 23.9096C20.336 23.7032 19.1675 23.1004 18.2699 22.1893C17.9307 21.8112 17.6435 21.3902 17.4159 20.9375C17.5116 20.867 17.6124 20.8035 17.7175 20.7475C17.8632 20.6654 18.4146 20.3512 18.9348 20.0527L19.8791 19.5048L20.0764 19.7897C20.4088 20.2603 20.8319 20.6613 21.3214 20.9694C21.8157 21.2379 22.3756 21.3651 22.9387 21.3369C23.5018 21.3087 24.0459 21.1261 24.5103 20.8096C24.7499 20.5784 24.8997 20.2711 24.9334 19.9416C24.9671 19.612 24.8826 19.2812 24.6948 19.0072C24.4403 18.6465 23.9201 18.3433 22.4419 17.7087C21.2827 17.3217 20.2269 16.6803 19.3534 15.8323C18.9374 15.363 18.6302 14.8091 18.4534 14.2098C18.3226 13.5269 18.3033 12.8277 18.3962 12.1388C18.5697 11.3461 18.9852 10.6254 19.5863 10.0743C20.1874 9.52325 20.9451 9.16846 21.7567 9.05805C22.5831 8.96027 23.4196 8.98613 24.2383 9.13475ZM16.5444 10.4889L16.5546 11.8165H12.2848V23.8219H9.27385V11.8193H5.00409V10.5154C4.99273 10.0688 5.00504 9.62201 5.04097 9.17675C5.05665 9.15575 7.65263 9.14571 10.8001 9.15119L16.5278 9.16671L16.5444 10.4889Z" fill="white"/>
</g>
<defs>
<filter id="filter0_d" x="1" y="6" width="31" height="23" filterUnits="userSpaceOnUse" color-interpolation-filters="sRGB">
<feFlood flood-opacity="0" result="BackgroundImageFix"/>
<feColorMatrix in="SourceAlpha" type="matrix" values="0 0 0 0 0 0 0 0 0 0 0 0 0 0 0 0 0 0 127 0"/>
<feOffset dy="1"/>
<feGaussianBlur stdDeviation="2"/>
<feColorMatrix type="matrix" values="0 0 0 0 0 0 0 0 0 0 0 0 0 0 0 0 0 0 0.25 0"/>
<feBlend mode="normal" in2="BackgroundImageFix" result="effect1_dropShadow"/>
<feBlend mode="normal" in="SourceGraphic" in2="effect1_dropShadow" result="shape"/>
</filter>
</defs>
</svg>
