<svg width="146" height="56" viewBox="0 0 146 56" fill="none" xmlns="http://www.w3.org/2000/svg">
<rect width="146" height="56" rx="17" fill="#3178C6"/>
<g filter="url(#filter0_d)">
<path d="M89.1495 12.2875C90.7878 12.6732 92.2765 13.5415 93.4278 14.7828C94.062 15.4546 94.6127 16.2023 95.0676 17.0093C95.0887 17.0969 92.1153 19.1189 90.3119 20.2468C90.2465 20.2916 89.9867 20.0052 89.6922 19.565C89.3628 18.9918 88.8952 18.5126 88.3331 18.1719C87.7711 17.8313 87.1329 17.6404 86.4782 17.617C84.4054 17.4729 83.0697 18.5715 83.0794 20.4084C83.0615 20.8597 83.1631 21.3076 83.3738 21.7058C83.8299 22.6603 84.6768 23.233 87.3365 24.3998C92.2327 26.5328 94.3343 27.9392 95.6315 29.9378C96.3647 31.2006 96.8163 32.6103 96.9546 34.0683C97.0929 35.5263 96.9145 36.9973 96.4321 38.3782C95.769 39.8926 94.7176 41.1998 93.3869 42.164C92.0562 43.1283 90.4947 43.7144 88.8646 43.8617C87.1319 44.0628 85.3811 44.0445 83.6529 43.8071C81.0056 43.3669 78.567 42.0809 76.6936 40.1372C75.9858 39.3305 75.3865 38.4325 74.9114 37.4666C75.1112 37.3162 75.3215 37.1808 75.5408 37.0614C75.8449 36.8861 76.9958 36.216 78.0812 35.579L80.052 34.4103L80.4639 35.018C81.1575 36.0221 82.0405 36.8774 83.062 37.5348C84.0937 38.1075 85.2622 38.3789 86.4374 38.3187C87.6125 38.2585 88.748 37.8691 89.7172 37.1939C90.2172 36.7006 90.5297 36.0451 90.6001 35.342C90.6705 34.639 90.4942 33.9333 90.1021 33.3486C89.571 32.5792 88.4855 31.9325 85.4004 30.5786C82.9813 29.753 80.7779 28.3846 78.955 26.5756C78.0868 25.5743 77.4457 24.3929 77.0766 23.1141C76.8036 21.6574 76.7633 20.1658 76.9573 18.6962C77.3194 17.0051 78.1865 15.4675 79.441 14.2919C80.6955 13.1163 82.2767 12.3594 83.9704 12.1238C85.6951 11.9152 87.441 11.9704 89.1495 12.2875ZM73.0927 15.1763L73.1139 18.0086H64.2031V43.6201H57.9193V18.0144H49.0085V15.2328C48.9848 14.2802 49.0105 13.327 49.0855 12.3771C49.1182 12.3323 54.5359 12.3108 61.1045 12.3225L73.0581 12.3556L73.0927 15.1763Z" fill="white"/>
</g>
<defs>
<filter id="filter0_d" x="45" y="9" width="56" height="40" filterUnits="userSpaceOnUse" color-interpolation-filters="sRGB">
<feFlood flood-opacity="0" result="BackgroundImageFix"/>
<feColorMatrix in="SourceAlpha" type="matrix" values="0 0 0 0 0 0 0 0 0 0 0 0 0 0 0 0 0 0 127 0"/>
<feOffset dy="1"/>
<feGaussianBlur stdDeviation="2"/>
<feColorMatrix type="matrix" values="0 0 0 0 0 0 0 0 0 0 0 0 0 0 0 0 0 0 0.25 0"/>
<feBlend mode="normal" in2="BackgroundImageFix" result="effect1_dropShadow"/>
<feBlend mode="normal" in="SourceGraphic" in2="effect1_dropShadow" result="shape"/>
</filter>
</defs>
</svg>
