<svg width="56" height="56" viewBox="0 0 56 56" fill="none" xmlns="http://www.w3.org/2000/svg">
<rect width="56" height="56" rx="7" fill="#0D1117"/>
<path d="M43.0425 44H11.2403C8.88693 44 7 41.975 7 39.5V12.5C7 10.0025 8.88693 8 11.2403 8H23.9612L28.2015 12.5H43.0425C45.3683 12.5 47.2828 14.5317 47.2828 17H11.2403V39.5L15.7774 21.5H51.9683L47.1344 40.625C46.6467 42.5825 44.993 44 43.0425 44Z" fill="#0288D1"/>
<path fill-rule="evenodd" clip-rule="evenodd" d="M47.0096 28.0001C46.7425 27.9992 46.4972 28.0061 46.314 28.0236C44.881 28.1493 43.5426 28.7806 42.6266 29.763C42.1676 30.2551 41.7519 30.9608 41.5488 31.5926C41.325 32.2888 41.3266 32.2754 41.3277 33.3662C41.3289 34.7595 41.3991 35.1045 41.869 36.0311C42.3415 36.9629 43.0614 37.7241 44.1002 38.39C44.5554 38.6819 45.7211 39.2682 46.673 39.6842C48.7451 40.5897 49.4006 41.0075 49.7048 41.6166L49.8304 41.8681V42.3948C49.8304 42.903 49.8284 42.9292 49.7259 43.1387C49.4922 43.6236 48.9405 44.0205 48.2339 44.2124C47.9668 44.2847 47.8444 44.295 47.2473 44.2952C46.6629 44.2952 46.521 44.2832 46.2531 44.2158C45.7854 44.0966 45.3914 43.9313 45.0834 43.7255C44.7062 43.4736 43.9647 42.7183 43.663 42.279C43.5299 42.0849 43.3961 41.926 43.3662 41.926C43.3165 41.926 40.7597 43.4006 40.3134 43.6866C40.163 43.7831 40.1249 43.8269 40.1249 43.9042C40.1249 44.0645 40.7223 44.9754 41.1903 45.5287C42.1436 46.6561 44.0556 47.6501 45.7492 47.8989C46.4187 47.9972 47.5307 48.029 48.3077 47.9713C48.8167 47.9337 49.3313 47.8361 49.8842 47.6726C51.8846 47.0807 53.2495 45.8232 53.7551 44.1059C53.9614 43.4053 54.0448 42.5436 53.9767 41.8167C53.837 40.3252 53.3825 39.2708 52.4854 38.3575C51.6524 37.5095 50.5087 36.8261 48.2515 35.8277C46.2945 34.962 45.7838 34.6259 45.5017 34.0178C45.2582 33.4928 45.3046 32.7704 45.611 32.3215C45.9694 31.796 46.7011 31.5364 47.517 31.6454C48.2757 31.7465 48.7664 32.0498 49.2471 32.7143C49.4967 33.0595 49.67 33.2392 49.7531 33.2392C49.835 33.2392 50.188 33.0195 51.2836 32.2857C52.3989 31.5389 52.7496 31.2854 52.7736 31.209C52.8109 31.0906 52.6361 30.8135 52.1248 30.1807C51.0981 28.9104 49.8911 28.236 48.3414 28.0669C47.9608 28.0253 47.4548 28.0015 47.0096 28.0001ZM34.6809 28.2156C33.7609 28.215 32.71 28.2156 31.5422 28.2168C25.4867 28.2228 24.0812 28.2328 24.0433 28.2722C24.0064 28.3094 23.9968 28.6839 23.9968 30.082V31.8447L26.7506 31.8548L29.5044 31.8648L29.505 39.728C29.5052 44.0528 29.5149 47.6277 29.5283 47.6726L29.549 47.7542H31.5504C33.3421 47.7542 33.5539 47.7502 33.5732 47.6971C33.5852 47.6655 33.594 44.0906 33.594 39.7525V31.8652L36.3477 31.8552L39.1015 31.8451V30.0612C39.1015 28.5149 39.0955 28.2727 39.0477 28.2428C39.0224 28.2267 37.4409 28.217 34.6809 28.2156Z" fill="#90CAF9"/>
</svg>
