<svg width="74" height="29" viewBox="0 0 74 29" fill="none" xmlns="http://www.w3.org/2000/svg">
<rect width="74" height="28.3836" rx="14.1918" fill="#3178C6"/>
<g filter="url(#filter0_d)">
<path d="M45.1854 6.22789C46.0157 6.42341 46.7703 6.86351 47.3538 7.49264C47.6753 7.83312 47.9544 8.2121 48.1849 8.62113C48.1957 8.66556 46.6886 9.6904 45.7745 10.2621C45.7414 10.2848 45.6097 10.1396 45.4604 9.91649C45.2935 9.62599 45.0565 9.38307 44.7716 9.21041C44.4867 9.03776 44.1632 8.941 43.8314 8.92918C42.7808 8.85612 42.1038 9.41296 42.1087 10.344C42.0996 10.5727 42.1512 10.7998 42.258 11.0015C42.4891 11.4853 42.9184 11.7756 44.2665 12.367C46.7481 13.4481 47.8133 14.161 48.4707 15.1739C48.8424 15.814 49.0713 16.5285 49.1414 17.2675C49.2115 18.0065 49.1211 18.752 48.8765 19.452C48.5405 20.2195 48.0075 20.8821 47.3331 21.3708C46.6586 21.8595 45.8672 22.1566 45.041 22.2313C44.1627 22.3332 43.2754 22.3239 42.3994 22.2036C41.0576 21.9805 39.8216 21.3286 38.8721 20.3435C38.5133 19.9346 38.2096 19.4795 37.9688 18.9899C38.0701 18.9137 38.1767 18.845 38.2878 18.7845C38.4419 18.6957 39.0252 18.356 39.5754 18.0332L40.5743 17.4408L40.783 17.7488C41.1346 18.2578 41.5822 18.6913 42.0999 19.0245C42.6228 19.3147 43.2151 19.4523 43.8107 19.4218C44.4063 19.3913 44.9819 19.1939 45.4731 18.8517C45.7265 18.6017 45.8849 18.2694 45.9206 17.9131C45.9563 17.5567 45.8669 17.1991 45.6682 16.9027C45.399 16.5127 44.8488 16.1849 43.2851 15.4988C42.059 15.0803 40.9422 14.3867 40.0183 13.4698C39.5783 12.9623 39.2533 12.3635 39.0662 11.7154C38.9279 10.977 38.9074 10.221 39.0057 9.47615C39.1893 8.619 39.6288 7.83969 40.2646 7.24383C40.9004 6.64796 41.7019 6.26434 42.5604 6.14495C43.4345 6.03923 44.3194 6.06718 45.1854 6.22789ZM37.047 7.69207L37.0577 9.12763H32.5413V22.1088H29.3564V9.13059H24.8399V7.72071C24.8279 7.23788 24.841 6.75475 24.879 6.2733C24.8955 6.25059 27.6415 6.23973 30.9708 6.24566L37.0294 6.26244L37.047 7.69207Z" fill="white"/>
</g>
<defs>
<filter id="filter0_d" x="20.8356" y="3.08218" width="32.3288" height="24.2192" filterUnits="userSpaceOnUse" color-interpolation-filters="sRGB">
<feFlood flood-opacity="0" result="BackgroundImageFix"/>
<feColorMatrix in="SourceAlpha" type="matrix" values="0 0 0 0 0 0 0 0 0 0 0 0 0 0 0 0 0 0 127 0"/>
<feOffset dy="1"/>
<feGaussianBlur stdDeviation="2"/>
<feColorMatrix type="matrix" values="0 0 0 0 0 0 0 0 0 0 0 0 0 0 0 0 0 0 0.25 0"/>
<feBlend mode="normal" in2="BackgroundImageFix" result="effect1_dropShadow"/>
<feBlend mode="normal" in="SourceGraphic" in2="effect1_dropShadow" result="shape"/>
</filter>
</defs>
</svg>
