<svg width="34" height="34" viewBox="0 0 34 34" fill="none" xmlns="http://www.w3.org/2000/svg">
<circle cx="17" cy="17" r="16.5" fill="#3178C6" stroke="white"/>
<g filter="url(#filter0_d)">
<path d="M25.2383 10.1348C26.0233 10.3156 26.7367 10.7226 27.2883 11.3044C27.5922 11.6193 27.8561 11.9698 28.074 12.3481C28.0842 12.3892 26.6594 13.337 25.7953 13.8657C25.7639 13.8867 25.6394 13.7524 25.4984 13.5461C25.3405 13.2774 25.1164 13.0528 24.8471 12.8931C24.5778 12.7334 24.272 12.6439 23.9583 12.633C22.9651 12.5654 22.3251 13.0804 22.3297 13.9415C22.3211 14.153 22.3698 14.363 22.4708 14.5496C22.6893 14.997 23.0951 15.2655 24.3696 15.8124C26.7156 16.8122 27.7227 17.4715 28.3442 18.4083C28.6956 19.0003 28.912 19.6611 28.9782 20.3445C29.0445 21.028 28.959 21.7175 28.7279 22.3648C28.4102 23.0747 27.9063 23.6874 27.2687 24.1394C26.6311 24.5914 25.8829 24.8661 25.1018 24.9352C24.2715 25.0295 23.4326 25.0209 22.6045 24.9096C21.336 24.7032 20.1675 24.1004 19.2699 23.1893C18.9307 22.8112 18.6435 22.3902 18.4159 21.9375C18.5116 21.867 18.6124 21.8035 18.7175 21.7475C18.8632 21.6654 19.4146 21.3512 19.9348 21.0527L20.8791 20.5048L21.0764 20.7897C21.4088 21.2603 21.8319 21.6613 22.3214 21.9694C22.8157 22.2379 23.3756 22.3651 23.9387 22.3369C24.5018 22.3087 25.0459 22.1261 25.5103 21.8096C25.7499 21.5784 25.8997 21.2711 25.9334 20.9416C25.9671 20.612 25.8826 20.2812 25.6948 20.0072C25.4403 19.6465 24.9201 19.3433 23.4419 18.7087C22.2827 18.3217 21.2269 17.6803 20.3534 16.8323C19.9374 16.363 19.6302 15.8091 19.4534 15.2098C19.3226 14.5269 19.3033 13.8277 19.3962 13.1388C19.5697 12.3461 19.9852 11.6254 20.5863 11.0743C21.1874 10.5232 21.9451 10.1685 22.7567 10.0581C23.5831 9.96027 24.4196 9.98613 25.2383 10.1348ZM17.5444 11.4889L17.5546 12.8165H13.2848V24.8219H10.2738V12.8193H6.00409V11.5154C5.99273 11.0688 6.00504 10.622 6.04097 10.1768C6.05665 10.1558 8.65263 10.1457 11.8001 10.1512L17.5278 10.1667L17.5444 11.4889Z" fill="white"/>
</g>
<defs>
<filter id="filter0_d" x="2" y="7" width="31" height="23" filterUnits="userSpaceOnUse" color-interpolation-filters="sRGB">
<feFlood flood-opacity="0" result="BackgroundImageFix"/>
<feColorMatrix in="SourceAlpha" type="matrix" values="0 0 0 0 0 0 0 0 0 0 0 0 0 0 0 0 0 0 127 0"/>
<feOffset dy="1"/>
<feGaussianBlur stdDeviation="2"/>
<feColorMatrix type="matrix" values="0 0 0 0 0 0 0 0 0 0 0 0 0 0 0 0 0 0 0.25 0"/>
<feBlend mode="normal" in2="BackgroundImageFix" result="effect1_dropShadow"/>
<feBlend mode="normal" in="SourceGraphic" in2="effect1_dropShadow" result="shape"/>
</filter>
</defs>
</svg>
