<svg width="50" height="50" viewBox="0 0 50 50" fill="none" xmlns="http://www.w3.org/2000/svg">
<g clip-path="url(#clip0)">
<path d="M49.8769 10.3535C48.5605 12.3242 46.9374 14.041 45.0468 15.4619C45.0565 15.7656 45.0614 16.0762 45.0614 16.3896C45.0614 23.4424 42.3349 30.581 37.58 35.9746C35.0009 38.9014 31.9315 41.2012 28.4579 42.8105C24.6776 44.5615 20.4931 45.4512 16.0205 45.4551H15.9971C10.4365 45.4551 5.02158 43.8682 0.33701 40.8662C0.0499004 40.6816 -0.0721699 40.3242 0.0430644 40.0029C0.158299 39.6816 0.479588 39.4814 0.818455 39.5225C1.56553 39.6103 2.33603 39.6543 3.10849 39.6543C6.84189 39.6543 10.3956 38.6172 13.4893 36.6367C9.76367 35.8662 6.66699 33.1484 5.47558 29.4316C5.39648 29.1855 5.4541 28.916 5.625 28.7226C5.79687 28.5293 6.05762 28.4404 6.31152 28.4893C6.69824 28.5635 7.08789 28.6133 7.47754 28.6377C4.14746 26.7949 1.94922 23.2402 1.94922 19.2764C1.94922 19.2227 1.94922 19.1738 1.95117 19.123C1.95996 18.8682 2.10156 18.6367 2.32324 18.5107C2.54492 18.3857 2.8164 18.3848 3.03906 18.5088C3.58496 18.8125 4.16211 19.0596 4.75683 19.2461C3.01855 17.3076 2.0293 14.7783 2.0293 12.1055C2.0293 10.2197 2.53027 8.3623 3.47656 6.73242C3.59765 6.52441 3.8125 6.38867 4.05273 6.37012C4.29199 6.35156 4.52539 6.45117 4.67773 6.63769C9.41211 12.4463 16.3192 16.083 23.745 16.7109C23.6786 16.2256 23.6454 15.7314 23.6454 15.2334C23.6454 9.33984 28.4413 4.54492 34.3357 4.54492C35.0008 4.54492 35.66 4.60742 36.3055 4.72949C38.3865 5.12207 40.327 6.12695 41.8484 7.625C43.8602 7.18555 45.7771 6.42969 47.5545 5.37695C47.8162 5.22168 48.1463 5.24414 48.3846 5.43359C48.6219 5.62305 48.7176 5.94043 48.6258 6.22949C48.1443 7.73144 47.3396 9.0957 46.2781 10.2373C47.2 9.98437 48.0994 9.66406 48.9695 9.27734C49.2684 9.14453 49.618 9.22558 49.8279 9.47461C50.0379 9.72363 50.0575 10.082 49.8769 10.3535V10.3535Z" fill="#4DD4F7"/>
<path d="M26.2568 3.16016C26.2568 4.90234 24.8418 6.32031 23.1025 6.32031H21.1494L19.501 8.59766C19.3633 8.78809 19.1426 8.90039 18.9072 8.90039C18.6729 8.90039 18.4521 8.78809 18.3145 8.59766L16.666 6.32031H9.50977C7.77051 6.32031 6.35547 4.90234 6.35547 3.16016C6.35547 1.41797 7.77051 0 9.50977 0H23.1025C24.8418 0 26.2568 1.41797 26.2568 3.16016Z" fill="#FF6B81"/>
<path d="M49.9999 46.8398C49.9999 48.582 48.5849 50 46.8456 50H33.2528C31.5136 50 30.0995 48.582 30.0995 46.8398C30.0995 45.0977 31.5136 43.6797 33.2528 43.6797H40.4101L42.0575 41.4023C42.1952 41.2119 42.4159 41.0996 42.6513 41.0996C42.8857 41.0996 43.1073 41.2119 43.245 41.4023L44.8925 43.6797H46.8456C48.5849 43.6797 49.9999 45.0977 49.9999 46.8398Z" fill="#FBDF63"/>
<path d="M41.103 18.2119C40.7009 18.169 40.3402 18.461 40.2978 18.8634C40.2924 18.9143 39.7252 24.0124 36.6721 29.2792C34.8869 32.3586 32.6142 34.8815 29.9168 36.7782C26.5436 39.1501 22.4819 40.5502 17.8445 40.9395C17.4414 40.9734 17.1421 41.3276 17.176 41.7307C17.2081 42.113 17.5282 42.4018 17.905 42.4018C17.9255 42.4018 17.9462 42.401 17.9671 42.3992C22.8669 41.9878 27.1708 40.4997 30.7594 37.9765C33.6315 35.957 36.0472 33.278 37.9395 30.0139C41.1478 24.4796 41.7314 19.2377 41.7546 19.0173C41.797 18.6149 41.5053 18.2544 41.103 18.2119V18.2119Z" fill="#00C2F3"/>
<path d="M36.5102 10.5973C36.1704 10.3779 35.7171 10.4756 35.4977 10.8155C35.2919 11.1344 34.9434 11.3247 34.5653 11.3247C34.1873 11.3247 33.8388 11.1344 33.6331 10.8155C33.4138 10.4756 32.9605 10.3779 32.6205 10.5972C32.2807 10.8165 32.1829 11.2698 32.4022 11.6098C32.8788 12.3486 33.6875 12.7897 34.5653 12.7897C35.4431 12.7897 36.2517 12.3486 36.7284 11.6098C36.9479 11.2699 36.8501 10.8166 36.5102 10.5973V10.5973Z" fill="#00C2F3"/>
<path d="M49.9999 46.8398C49.9999 48.582 48.5849 50 46.8456 50H44.8925C46.6318 50 48.0468 48.582 48.0468 46.8398C48.0468 45.0977 46.6318 43.6797 44.8925 43.6797H46.8456C48.5849 43.6797 49.9999 45.0977 49.9999 46.8398Z" fill="#FFA402"/>
<path d="M26.2568 3.16016C26.2568 4.90234 24.8418 6.32031 23.1025 6.32031H21.1494C22.8887 6.32031 24.3037 4.90234 24.3037 3.16016C24.3037 1.41797 22.8887 0 21.1494 0H23.1025C24.8418 0 26.2568 1.41797 26.2568 3.16016Z" fill="#ED2061"/>
<path d="M49.8769 10.3535C48.5605 12.3242 46.9374 14.041 45.0468 15.4619C45.0565 15.7656 45.0614 16.0762 45.0614 16.3896C45.0614 23.4424 42.3349 30.5811 37.58 35.9746C35.0009 38.9014 31.9315 41.2012 28.4579 42.8106C24.6776 44.5615 20.4931 45.4512 16.0205 45.4551H15.9971C10.4365 45.4551 5.02158 43.8682 0.33701 40.8662C0.0499004 40.6816 -0.0721699 40.3242 0.0430644 40.0029C43.914 56.332 51.2527 8.48633 36.3056 4.72949C38.3866 5.12207 40.3271 6.12695 41.8485 7.625C43.8603 7.18555 45.7773 6.42969 47.5546 5.37695C47.8163 5.22168 48.1464 5.24414 48.3847 5.43359C48.622 5.62305 48.7177 5.94043 48.6259 6.22949C48.1444 7.73145 47.3398 9.0957 46.2782 10.2373C47.2001 9.98438 48.0995 9.66406 48.9696 9.27734C49.2685 9.14453 49.6181 9.22559 49.828 9.47461C50.0379 9.72363 50.0575 10.082 49.8769 10.3535V10.3535Z" fill="#00C2F3"/>
</g>
<defs>
<clipPath id="clip0">
<rect width="50" height="50" fill="white"/>
</clipPath>
</defs>
</svg>
