<svg width="76" height="76" viewBox="0 0 76 76" fill="none" xmlns="http://www.w3.org/2000/svg">
<g clip-path="url(#clip0)">
<path d="M75.2642 15.6234C73.2777 18.5972 70.8285 21.1879 67.9756 23.332C67.9903 23.7903 67.9977 24.2589 67.9977 24.732C67.9977 35.3745 63.8833 46.1468 56.7082 54.2857C52.8163 58.7021 48.1847 62.1725 42.943 64.6011C37.2386 67.2433 30.924 68.5858 24.1749 68.5917H24.1396C15.7487 68.5917 7.57757 66.197 0.508548 61.6671C0.0752997 61.3886 -0.108904 60.8492 0.0649842 60.3644C0.238873 59.8796 0.723698 59.5775 1.23505 59.6394C2.36238 59.772 3.52507 59.8383 4.69072 59.8383C10.3244 59.8383 15.687 58.2733 20.3553 55.2848C14.7334 54.1221 10.0605 50.021 8.26266 44.4123C8.14329 44.041 8.23024 43.6342 8.48812 43.3425C8.74748 43.0507 9.14094 42.9166 9.52409 42.9903C10.1076 43.1023 10.6956 43.1774 11.2836 43.2143C6.25852 40.4335 2.94137 35.0695 2.94137 29.088C2.94137 29.007 2.94137 28.9333 2.94432 28.8567C2.95758 28.472 3.17126 28.1228 3.50577 27.9327C3.84028 27.7441 4.24995 27.7426 4.58594 27.9297C5.4097 28.388 6.28062 28.7609 7.17806 29.0423C4.555 26.1172 3.06221 22.3005 3.06221 18.2671C3.06221 15.4216 3.81818 12.6187 5.24613 10.1592C5.42886 9.84533 5.75306 9.64049 6.11557 9.6125C6.47661 9.5845 6.82881 9.73481 7.0587 10.0163C14.2029 18.7814 24.6257 24.2692 35.8312 25.2168C35.731 24.4844 35.6809 23.7387 35.6809 22.9872C35.6809 14.0938 42.9179 6.85828 51.8126 6.85828C52.8162 6.85828 53.8109 6.95259 54.785 7.13679C57.9253 7.72919 60.8534 9.24556 63.1493 11.5061C66.185 10.843 69.0777 9.70239 71.7597 8.11381C72.1547 7.8795 72.6528 7.9134 73.0123 8.19928C73.3704 8.48517 73.5148 8.9641 73.3763 9.40029C72.6498 11.6667 71.4355 13.7254 69.8337 15.4481C71.2248 15.0664 72.582 14.5831 73.895 13.9995C74.346 13.7991 74.8735 13.9214 75.1904 14.2972C75.5072 14.6729 75.5368 15.2138 75.2642 15.6234V15.6234Z" fill="#4DD4F7"/>
<path d="M39.6216 4.76868C39.6216 7.39764 37.4863 9.53735 34.8617 9.53735H31.9145L29.427 12.9739C29.2192 13.2612 28.8862 13.4307 28.531 13.4307C28.1773 13.4307 27.8443 13.2612 27.6365 12.9739L25.149 9.53735H14.3502C11.7257 9.53735 9.59041 7.39764 9.59041 4.76868C9.59041 2.13971 11.7257 0 14.3502 0H34.8617C37.4863 0 39.6216 2.13971 39.6216 4.76868Z" fill="#FF6B81"/>
<path d="M75.4499 70.6813C75.4499 73.3103 73.3146 75.45 70.69 75.45H50.1785C47.554 75.45 45.4202 73.3103 45.4202 70.6813C45.4202 68.0524 47.554 65.9127 50.1785 65.9127H60.9788L63.4648 62.4761C63.6726 62.1888 64.0056 62.0193 64.3608 62.0193C64.7144 62.0193 65.049 62.1888 65.2567 62.4761L67.7428 65.9127H70.69C73.3146 65.9127 75.4499 68.0524 75.4499 70.6813Z" fill="#FBDF63"/>
<path d="M62.0245 27.4818C61.4176 27.4171 60.8734 27.8577 60.8093 28.4648C60.8012 28.5416 59.9453 36.2347 55.3381 44.1823C52.6443 48.8291 49.2148 52.6362 45.1444 55.4983C40.0542 59.0775 33.9252 61.1902 26.9274 61.7778C26.3191 61.8289 25.8674 62.3634 25.9185 62.9716C25.967 63.5485 26.4501 63.9844 27.0186 63.9844C27.0496 63.9844 27.0808 63.9831 27.1123 63.9804C34.5061 63.3596 41.0007 61.114 46.4159 57.3065C50.7498 54.2591 54.3952 50.2165 57.2506 45.2909C62.092 36.9397 62.9726 29.0297 63.0077 28.6971C63.0716 28.0899 62.6314 27.5459 62.0245 27.4818V27.4818Z" fill="#00C2F3"/>
<path d="M55.0938 15.9913C54.5812 15.6603 53.8971 15.8076 53.566 16.3206C53.2555 16.8018 52.7295 17.089 52.1591 17.089C51.5886 17.089 51.0627 16.8018 50.7524 16.3206C50.4214 15.8076 49.7373 15.6603 49.2243 15.9911C48.7115 16.3221 48.564 17.0062 48.8948 17.5191C49.6141 18.6339 50.8344 19.2996 52.1591 19.2996C53.4836 19.2996 54.7038 18.6339 55.4232 17.5191C55.7543 17.0063 55.6068 16.3222 55.0938 15.9913V15.9913Z" fill="#00C2F3"/>
<path d="M75.4499 70.6813C75.4499 73.3103 73.3146 75.45 70.69 75.45H67.7428C70.3673 75.45 72.5026 73.3103 72.5026 70.6813C72.5026 68.0524 70.3673 65.9127 67.7428 65.9127H70.69C73.3146 65.9127 75.4499 68.0524 75.4499 70.6813Z" fill="#FFA402"/>
<path d="M39.6216 4.76868C39.6216 7.39764 37.4863 9.53735 34.8617 9.53735H31.9145C34.539 9.53735 36.6743 7.39764 36.6743 4.76868C36.6743 2.13971 34.539 0 31.9145 0H34.8617C37.4863 0 39.6216 2.13971 39.6216 4.76868Z" fill="#ED2061"/>
<path d="M75.2642 15.6235C73.2777 18.5973 70.8285 21.1879 67.9756 23.332C67.9903 23.7903 67.9977 24.259 67.9977 24.732C67.9977 35.3746 63.8833 46.1468 56.7082 54.2857C52.8163 58.7022 48.1847 62.1726 42.943 64.6011C37.2386 67.2434 30.924 68.5858 24.1749 68.5917H24.1396C15.7487 68.5917 7.57757 66.1971 0.508548 61.6671C0.0752997 61.3886 -0.108904 60.8493 0.0649842 60.3644C66.2662 85.005 77.3404 12.8059 54.7851 7.13681C57.9254 7.72921 60.8535 9.24558 63.1494 11.5061C66.1851 10.843 69.0779 9.70241 71.7599 8.11383C72.1548 7.87952 72.6529 7.91341 73.0125 8.1993C73.3706 8.48518 73.515 8.96412 73.3765 9.40031C72.65 11.6668 71.4357 13.7254 69.8338 15.4481C71.225 15.0664 72.5822 14.5831 73.8952 13.9995C74.3461 13.7991 74.8737 13.9214 75.1905 14.2972C75.5072 14.673 75.5368 15.2138 75.2642 15.6235V15.6235Z" fill="#00C2F3"/>
</g>
<defs>
<clipPath id="clip0">
<rect width="75.45" height="75.45" fill="white"/>
</clipPath>
</defs>
</svg>
